<?xml version="1.0" encoding="utf-8"?>
<!-- Generator: Adobe Illustrator 19.2.1, SVG Export Plug-In . SVG Version: 6.00 Build 0)  -->
<svg version="1.1" id="Layer_1" xmlns="http://www.w3.org/2000/svg" xmlns:xlink="http://www.w3.org/1999/xlink" x="0px" y="0px"
	 viewBox="0 0 366.7 366.7" style="enable-background:new 0 0 366.7 366.7;" xml:space="preserve">
<g>
	<path d="M81.4,98.5c-5.7,8.9-11.5,17.9-17.2,26.8c-0.7,1.4-1.3,2.7-1.9,4.1C69.6,118,77,106.5,84.4,95
		C83.4,96.2,82.4,97.3,81.4,98.5z"/>
	<path d="M53.9,155.5c12.3-19.2,24.7-38.3,37-57.5c4.6-7.2,9.3-14.4,13.9-21.6c-0.5,0.4-1,0.7-1.5,1.1
		c-11.2,17.4-22.4,34.8-33.6,52.2c-5.2,8-10.3,16-15.5,24.1C54.1,154.3,54,154.9,53.9,155.5z"/>
	<path d="M51.5,172.3c15.1-23.5,30.2-47,45.3-70.5c7.4-11.5,14.8-23.1,22.3-34.6c-0.4,0.2-0.8,0.4-1.2,0.7
		c-14.1,21.9-28.2,43.8-42.2,65.7c-8,12.5-16,24.9-24.1,37.4C51.6,171.4,51.5,171.8,51.5,172.3z"/>
	<path d="M51.1,185.9c17.2-26.8,34.4-53.5,51.6-80.2c9.5-14.8,19.1-29.6,28.6-44.5c-0.4,0.2-0.7,0.3-1.1,0.5
		c-16.2,25.2-32.5,50.5-48.7,75.7c-10.2,15.8-20.3,31.6-30.5,47.4C51.1,185.1,51.1,185.5,51.1,185.9z"/>
	<path d="M51.8,196.6c0,0.3,0.1,0.7,0.1,1c8.7-13.4,17.3-26.9,26-40.4c0.2-0.7,0.3-1.3,0.5-2C69.6,169.1,60.7,182.9,51.8,196.6z"/>
	<path d="M142.4,57c-0.3,0.1-0.6,0.2-1,0.3c-10,15.5-19.9,31-29.9,46.5c0.5-0.4,1.1-0.9,1.6-1.3C122.9,87.4,132.6,72.2,142.4,57z"/>
	<path d="M53.4,207.2c0.1,0.3,0.1,0.6,0.2,0.9c7.1-11.1,14.3-22.2,21.4-33.3c0-0.5,0.1-0.9,0.1-1.4C67.9,184.7,60.6,196,53.4,207.2z
		"/>
	<path d="M152.6,54.2c-0.3,0.1-0.6,0.1-0.9,0.2c-8.4,13.1-16.9,26.2-25.3,39.4c0.4-0.2,0.8-0.4,1.2-0.6
		C135.9,80.1,144.3,67.1,152.6,54.2z"/>
	<path d="M55.6,216.9c0.1,0.3,0.1,0.6,0.2,0.8c6.3-9.7,12.5-19.5,18.8-29.2c0-0.4,0-0.8,0-1.1C68.3,197.2,61.9,207,55.6,216.9z"/>
	<path d="M162.2,52.3c-0.3,0-0.6,0.1-0.9,0.1c-7.7,12-15.4,24-23.1,35.9c0.3-0.1,0.7-0.3,1-0.4C146.9,76.1,154.6,64.2,162.2,52.3z"
		/>
	<path d="M171.3,51.1c-0.3,0-0.5,0-0.8,0.1c-7.3,11.3-14.6,22.6-21.8,33.9c0.3-0.1,0.6-0.1,0.9-0.2
		C156.9,73.7,164.1,62.4,171.3,51.1z"/>
	<path d="M58.3,225.7c0.1,0.3,0.2,0.5,0.3,0.8c5.7-8.8,11.4-17.7,17-26.5c-0.1-0.3-0.1-0.6-0.1-1C69.8,207.9,64.1,216.8,58.3,225.7z
		"/>
	<path d="M61.5,233.9c0.1,0.2,0.2,0.5,0.3,0.7c5.3-8.2,10.5-16.4,15.8-24.6c-0.1-0.3-0.1-0.6-0.2-0.9
		C72.1,217.4,66.8,225.6,61.5,233.9z"/>
	<path d="M180,50.7c-0.3,0-0.5,0-0.8,0c-7,10.9-14,21.8-21,32.7c0.3,0,0.5-0.1,0.8-0.1C166.1,72.4,173.1,61.5,180,50.7z"/>
	<path d="M188.4,50.7c-0.2,0-0.5,0-0.7,0C180.8,61.4,174,72,167.1,82.6c0.3,0,0.5,0,0.8,0C174.7,72,181.5,61.4,188.4,50.7z"/>
	<path d="M65,241.4c0.1,0.2,0.2,0.4,0.3,0.7c5-7.7,9.9-15.5,14.9-23.2c-0.1-0.2-0.2-0.5-0.3-0.8C75,225.9,70,233.7,65,241.4z"/>
	<path d="M68.8,248.5c0.1,0.2,0.2,0.4,0.4,0.6c0.3-0.4,0.5-0.8,0.8-1.2c4.5-7,9-14,13.5-20.9c-0.1-0.2-0.2-0.5-0.3-0.7
		C78.3,233.7,73.6,241.1,68.8,248.5z"/>
	<path d="M196.4,51.3c-0.2,0-0.5,0-0.7-0.1c-6.8,10.5-13.5,21-20.3,31.5c0.2,0,0.5,0,0.7,0C182.9,72.3,189.7,61.8,196.4,51.3z"/>
	<path d="M151.9,120.5c-0.4,0.3-0.8,0.5-1.3,0.8c-8.6,13.4-17.2,26.7-25.8,40.1c-0.1,0.6-0.3,1.2-0.4,1.8
		c6.6-10.3,13.2-20.5,19.8-30.8C146.8,128.4,149.3,124.5,151.9,120.5z"/>
	<path d="M72.9,255.2c0.1,0.2,0.3,0.4,0.4,0.6c0.9-1.3,1.7-2.7,2.6-4c3.7-5.8,7.5-11.6,11.2-17.4c-0.1-0.2-0.2-0.4-0.4-0.6
		C82.2,240.8,77.5,248,72.9,255.2z"/>
	<path d="M204.1,52.3c-0.2,0-0.5-0.1-0.7-0.1c0,0-0.1,0.1-0.1,0.1c-6.7,10.4-13.4,20.9-20.1,31.3c0.2,0,0.5,0.1,0.7,0.1
		C190.7,73.3,197.4,62.8,204.1,52.3z"/>
	<path d="M163.5,115.6c-0.3,0.1-0.6,0.2-0.9,0.3c-11.2,17.3-22.3,34.7-33.5,52c-2.1,3.3-4.2,6.5-6.3,9.8c0,0.4,0,0.8-0.1,1.2
		c9.2-14.3,18.3-28.5,27.5-42.8C154.6,129.3,159.1,122.4,163.5,115.6z"/>
	<path d="M173,113.9c-0.3,0-0.5,0-0.8,0.1c-12.4,19.3-24.8,38.5-37.2,57.8c-4,6.3-8.1,12.5-12.1,18.8c0,0.4,0.1,0.7,0.1,1
		c11-17.2,22.1-34.4,33.1-51.5C161.8,131.3,167.4,122.6,173,113.9z"/>
	<path d="M77.3,261.4c0.1,0.2,0.3,0.4,0.4,0.5c1.4-2.1,2.8-4.3,4.1-6.4c3.2-4.9,6.3-9.8,9.5-14.7c-0.1-0.2-0.3-0.4-0.4-0.6
		C86.4,247.3,81.8,254.4,77.3,261.4z"/>
	<path d="M211.6,53.8c-0.2-0.1-0.4-0.1-0.7-0.2c-0.5,0.8-1.1,1.7-1.6,2.5c-6.2,9.7-12.5,19.4-18.7,29.1c0.2,0.1,0.4,0.1,0.6,0.2
		C198.1,74.8,204.8,64.3,211.6,53.8z"/>
	<path d="M81.9,267.2c0.1,0.2,0.3,0.3,0.4,0.5c1.8-2.8,3.6-5.6,5.4-8.4c2.7-4.2,5.4-8.4,8.1-12.6c-0.1-0.2-0.3-0.3-0.4-0.5
		C90.9,253.3,86.4,260.3,81.9,267.2z"/>
	<path d="M181.2,114.1c-0.2,0-0.5-0.1-0.7-0.1c-13.2,20.5-26.4,41-39.6,61.5c-5.5,8.6-11.1,17.2-16.6,25.8c0.1,0.3,0.1,0.6,0.2,0.9
		c12.5-19.5,25.1-39,37.6-58.4C168.5,133.9,174.8,124,181.2,114.1z"/>
	<path d="M218.8,55.6c-0.2-0.1-0.4-0.1-0.6-0.2c-1,1.5-2,3-2.9,4.6c-5.9,9.2-11.8,18.3-17.7,27.5c0.2,0.1,0.4,0.2,0.6,0.3
		C205.1,77,211.9,66.3,218.8,55.6z"/>
	<path d="M225.8,57.8c-0.2-0.1-0.4-0.1-0.6-0.2c-1.3,2.1-2.7,4.2-4,6.2c-5.7,8.9-11.4,17.8-17.1,26.6c0.2,0.1,0.4,0.2,0.6,0.3
		C211.7,79.7,218.8,68.7,225.8,57.8z"/>
	<path d="M100.3,251.8c-4.5,7-9,14-13.5,21c0.2,0.2,0.3,0.3,0.4,0.5c2.2-3.3,4.3-6.7,6.5-10c2.3-3.6,4.7-7.3,7-10.9
		C100.6,252.1,100.4,251.9,100.3,251.8z"/>
	<path d="M188.6,115.6c-0.2-0.1-0.4-0.1-0.6-0.2c-13.7,21.3-27.4,42.6-41.1,63.9c-6.7,10.5-13.5,21-20.2,31.4
		c0.1,0.3,0.2,0.5,0.3,0.8c13.7-21.3,27.4-42.6,41.1-63.9C174.9,136.9,181.8,126.2,188.6,115.6z"/>
	<path d="M195.4,118.1c-0.2-0.1-0.4-0.2-0.6-0.3c-14,21.8-28,43.5-42,65.3c-7.7,11.9-15.4,23.9-23,35.8c0.1,0.2,0.2,0.5,0.3,0.7
		c14.6-22.7,29.2-45.4,43.8-68.2C181.1,140.3,188.3,129.2,195.4,118.1z"/>
	<path d="M91.9,277.9c0.2,0.1,0.3,0.3,0.5,0.4c2.4-3.8,4.9-7.6,7.3-11.3c2.1-3.3,4.2-6.5,6.3-9.8c-0.2-0.1-0.3-0.3-0.5-0.4
		C100.9,263.8,96.4,270.8,91.9,277.9z"/>
	<path d="M232.6,60.3c-0.2-0.1-0.4-0.2-0.6-0.2c-1.6,2.5-3.2,5-4.9,7.5c-5.5,8.5-11,17.1-16.5,25.6c0.2,0.1,0.4,0.2,0.6,0.2
		C218.4,82.4,225.5,71.3,232.6,60.3z"/>
	<path d="M239.1,63.2c-0.2-0.1-0.4-0.2-0.6-0.3c-1.8,2.8-3.6,5.7-5.5,8.5c-5.1,8-10.3,16-15.4,23.9c0.2,0,0.5,0.1,0.7,0.1
		C225.3,84.7,232.2,73.9,239.1,63.2z"/>
	<path d="M201.6,121.4c-0.2-0.1-0.4-0.2-0.5-0.3C187,143,172.9,165,158.8,187c-8.4,13-16.8,26-25.1,39.1c0.1,0.2,0.3,0.4,0.4,0.6
		c15.3-23.8,30.6-47.6,45.9-71.4C187.1,144,194.4,132.7,201.6,121.4z"/>
	<path d="M97.2,282.7c0.2,0.1,0.3,0.3,0.5,0.4c2.6-4.1,5.3-8.2,7.9-12.3c2-3,3.9-6.1,5.9-9.1c-0.2-0.1-0.3-0.3-0.5-0.4
		C106.4,268.4,101.8,275.5,97.2,282.7z"/>
	<path d="M207.4,125.6c-0.2-0.1-0.3-0.3-0.5-0.4c-14.1,21.9-28.1,43.7-42.2,65.6c-8.9,13.8-17.7,27.5-26.5,41.3
		c0.1,0.2,0.3,0.3,0.4,0.5c15.7-24.5,31.5-49,47.2-73.4C193,147.9,200.2,136.7,207.4,125.6z"/>
	<path d="M245.5,66.4c-0.2-0.1-0.4-0.2-0.6-0.3c-2,3.1-3.9,6.1-5.9,9.2c-1.7,2.7-3.5,5.4-5.2,8.2c0.2,0,0.5,0,0.7,0
		C238.1,77.7,241.8,72,245.5,66.4z"/>
	<path d="M102.7,287.1c0.2,0.1,0.3,0.3,0.5,0.4c2.8-4.3,5.5-8.6,8.3-12.9c1.9-3,3.8-5.9,5.7-8.9c-0.2-0.1-0.4-0.2-0.5-0.4
		C112,272.6,107.4,279.9,102.7,287.1z"/>
	<path d="M108.4,291.3c0.2,0.1,0.3,0.2,0.5,0.4c2.8-4.4,5.7-8.8,8.5-13.2c2-3,3.9-6.1,5.9-9.1c-0.2-0.1-0.4-0.2-0.6-0.3
		C118,276.5,113.2,283.9,108.4,291.3z"/>
	<path d="M251.6,69.9c-0.2-0.1-0.4-0.2-0.5-0.3c-2,3.2-4.1,6.3-6.1,9.5c-0.9,1.4-1.8,2.9-2.8,4.3c0.3,0,0.5,0,0.8,0
		C245.8,78.8,248.7,74.4,251.6,69.9z"/>
	<path d="M212.6,130.4c-0.1-0.2-0.3-0.3-0.4-0.5c-13.9,21.5-27.7,43.1-41.6,64.6c-9.1,14.1-18.2,28.3-27.3,42.4
		c0.2,0.1,0.3,0.3,0.5,0.4c16-24.9,32-49.7,48-74.6C198.7,152.1,205.7,141.3,212.6,130.4z"/>
	<path d="M114.3,295.2c0.2,0.1,0.4,0.2,0.5,0.3c2.8-4.4,5.7-8.8,8.5-13.2c2.1-3.3,4.2-6.6,6.3-9.8c-0.2-0.1-0.4-0.2-0.6-0.3
		C124.2,279.8,119.3,287.5,114.3,295.2z"/>
	<path d="M217.4,136.1c-0.1-0.2-0.3-0.4-0.4-0.6c-13.5,20.9-26.9,41.9-40.4,62.8c-9.2,14.3-18.4,28.5-27.5,42.8
		c0.2,0.1,0.4,0.2,0.5,0.3c16.1-24.9,32.1-49.9,48.1-74.8C204.2,156.5,210.8,146.3,217.4,136.1z"/>
	<path d="M257.5,73.7c-0.2-0.1-0.4-0.2-0.5-0.4c-2,3.2-4.1,6.3-6.1,9.5c-0.1,0.1-0.2,0.2-0.2,0.3c0.3,0,0.5,0,0.8,0
		C253.4,80,255.5,76.9,257.5,73.7z"/>
	<path d="M263.2,77.9c-0.2-0.1-0.3-0.3-0.5-0.4c-1.8,2.9-3.7,5.8-5.6,8.6c0,0.4,0,0.8,0,1.2C259.2,84.2,261.2,81,263.2,77.9z"/>
	<path d="M191.9,187.6c-3.1,4.9-6.3,9.8-9.4,14.7c-9.1,14.1-18.2,28.3-27.3,42.4c0.2,0.1,0.4,0.2,0.6,0.3
		c12-18.7,24.1-37.5,36.1-56.2C191.9,188.3,191.9,187.9,191.9,187.6z"/>
	<path d="M120.4,298.7c0.2,0.1,0.4,0.2,0.6,0.3c2.8-4.3,5.5-8.6,8.3-12.9c2.4-3.7,4.8-7.4,7.1-11.1c-0.2-0.1-0.4-0.1-0.6-0.2
		C130.7,282.7,125.6,290.7,120.4,298.7z"/>
	<path d="M200,176.2c1.2-1.9,2.4-3.8,3.6-5.7c6-9.3,11.9-18.5,17.9-27.8c-0.1-0.2-0.2-0.4-0.3-0.6c-7.3,11.4-14.6,22.7-21.9,34.1
		C199.5,176.2,199.7,176.2,200,176.2z"/>
	<path d="M192.4,200.9c0-0.3,0-0.6-0.1-0.9c-1.3,2-2.6,4-3.9,6c-8.8,13.7-17.7,27.4-26.5,41.2c0.2,0.1,0.4,0.1,0.6,0.2
		c9.9-15.4,19.9-30.9,29.8-46.3C192.4,201,192.4,201,192.4,200.9z"/>
	<path d="M208.5,176c0.4-0.6,0.7-1.1,1.1-1.7c5.1-7.9,10.2-15.9,15.3-23.8c-0.1-0.3-0.2-0.5-0.3-0.8c-5.6,8.8-11.3,17.5-16.9,26.3
		C208,176,208.2,176,208.5,176z"/>
	<path d="M268.7,82.3c-0.2-0.1-0.3-0.3-0.5-0.4c-1.8,2.9-3.7,5.7-5.5,8.6c-1.8,2.9-3.7,5.8-5.6,8.7c0,0.4,0,0.8,0,1.2
		C261,94.3,264.9,88.3,268.7,82.3z"/>
	<path d="M126.8,301.9c0.2,0.1,0.4,0.2,0.6,0.3c2.6-4.1,5.3-8.2,7.9-12.3c2.8-4.3,5.5-8.6,8.3-12.9c-0.2-0.1-0.4-0.1-0.7-0.2
		C137.5,285.2,132.1,293.5,126.8,301.9z"/>
	<path d="M274,87.1c-0.2-0.1-0.3-0.3-0.5-0.4c-1.6,2.5-3.3,5.1-4.9,7.6c-3.9,6-7.7,12-11.6,18c0,0.4,0,0.8,0,1.2
		C262.8,104.7,268.4,95.9,274,87.1z"/>
	<path d="M216.9,176c3.4-5.3,6.8-10.6,10.2-15.8c0-0.3-0.1-0.6-0.1-1c-3.6,5.6-7.2,11.2-10.8,16.8C216.4,176,216.7,176,216.9,176z"
		/>
	<path d="M198.8,203c-1.5,2.3-2.9,4.6-4.4,6.8c-8.4,13-16.7,26-25.1,39c0.2,0,0.5,0.1,0.7,0.1c9.9-15.3,19.7-30.7,29.6-46
		C199.3,203,199,203,198.8,203z"/>
	<path d="M133.3,304.8c0.2,0.1,0.4,0.2,0.6,0.2c2.4-3.8,4.9-7.5,7.3-11.3c3.3-5.1,6.5-10.1,9.8-15.2c-0.2,0-0.5-0.1-0.7-0.1
		C144.6,287.2,139,296,133.3,304.8z"/>
	<path d="M279.1,92.3c-0.2-0.2-0.3-0.3-0.4-0.5c-1.4,2.1-2.7,4.2-4.1,6.3c-5.8,9.1-11.7,18.2-17.5,27.3c0,0.4,0,0.8,0,1.2
		C264.4,115.2,271.8,103.7,279.1,92.3z"/>
	<path d="M140.1,307.3c0.2,0.1,0.4,0.1,0.6,0.2c2.1-3.3,4.3-6.7,6.4-10c3.9-6,7.7-12,11.6-18c-0.2,0-0.5,0-0.7-0.1
		C152,288.7,146,298,140.1,307.3z"/>
	<path d="M224.6,175.9c0.2,0,0.5,0,0.8,0c2.7-4.3,5.5-8.6,8.3-12.9c-0.2,0-0.5,0-0.7,0C230.1,167.4,227.3,171.6,224.6,175.9z"/>
	<path d="M206.9,203.5c-2.2,3.4-4.4,6.8-6.6,10.2c-7.6,11.9-15.2,23.7-22.9,35.6c0.3,0,0.5,0,0.8-0.1c9.8-15.2,19.5-30.4,29.3-45.5
		C207.3,203.6,207.1,203.5,206.9,203.5z"/>
	<path d="M284,97.8c-0.1-0.2-0.3-0.3-0.4-0.5c-1,1.6-2,3.1-3,4.7c-7.8,12.2-15.7,24.4-23.5,36.6c0,0.4,0,0.8,0,1.2
		C266,125.7,275,111.7,284,97.8z"/>
	<path d="M147,309.5c0.2,0.1,0.4,0.1,0.6,0.2c1.8-2.8,3.6-5.6,5.4-8.3c4.6-7.1,9.2-14.2,13.7-21.4c-0.2,0-0.5,0-0.7,0
		C159.7,289.8,153.4,299.7,147,309.5z"/>
	<path d="M213,207c-2.2,3.5-4.5,7-6.7,10.5c-6.4,10-12.9,20-19.3,30c0.3-0.1,0.6-0.2,0.9-0.3c8.5-13.2,17-26.5,25.5-39.7
		C213.2,207.4,213.1,207.2,213,207z"/>
	<path d="M232.9,175.9c0.3,0,0.5,0,0.8,0c2.7-4.2,5.4-8.5,8.2-12.7c-0.3,0-0.5,0-0.8,0C238.4,167.5,235.7,171.7,232.9,175.9z"/>
	<path d="M241.3,176c0.2,0,0.5,0,0.8,0c2.7-4.3,5.5-8.5,8.2-12.8c-0.2,0-0.5,0-0.8,0C246.8,167.5,244,171.7,241.3,176z"/>
	<path d="M212.2,221.3c-4.3,6.7-8.6,13.3-12.9,20c0.5-0.4,1-0.8,1.5-1.2c4.9-7.7,9.9-15.4,14.8-23c0-0.4,0.1-0.9,0.1-1.3
		C214.5,217.6,213.3,219.5,212.2,221.3z"/>
	<path d="M154.3,311.3c0.2,0,0.4,0.1,0.7,0.1c1.3-2.1,2.7-4.2,4.1-6.3c5.4-8.4,10.8-16.9,16.3-25.3c-0.3,0-0.5,0-0.8,0
		C167.7,290.4,161,300.8,154.3,311.3z"/>
	<path d="M288.6,103.6c-0.1-0.2-0.3-0.4-0.4-0.5c-0.6,0.9-1.2,1.8-1.8,2.7c-9.8,15.2-19.6,30.5-29.4,45.7c0,0.4,0,0.8,0,1.2
		C267.6,136.3,278.1,119.9,288.6,103.6z"/>
	<path d="M161.7,312.8c0.2,0,0.5,0.1,0.7,0.1c0.8-1.3,1.7-2.6,2.5-3.9c6.5-10.1,12.9-20.1,19.4-30.2c-0.3,0-0.6,0.1-0.8,0.1
		C176.2,290.2,169,301.5,161.7,312.8z"/>
	<path d="M293,109.8c-0.1-0.2-0.2-0.4-0.4-0.6c-0.1,0.1-0.1,0.2-0.2,0.4c-14.3,22.2-28.5,44.3-42.8,66.5c0.3,0,0.5,0,0.8,0
		C264.6,154,278.8,131.9,293,109.8z"/>
	<path d="M169.5,313.8c0.2,0,0.5,0,0.7,0.1c0.2-0.4,0.5-0.7,0.7-1.1c7.8-12.1,15.6-24.2,23.3-36.3c-0.3,0.1-0.6,0.2-0.9,0.3
		C185.3,289.1,177.4,301.4,169.5,313.8z"/>
	<path d="M297.1,116.4c-0.1-0.2-0.2-0.4-0.4-0.6c-12.9,20.1-25.9,40.2-38.8,60.3c0.3,0,0.5,0,0.8,0
		C271.5,156.2,284.3,136.3,297.1,116.4z"/>
	<path d="M301,123.5c-0.1-0.2-0.2-0.4-0.3-0.7c-11.4,17.8-22.9,35.6-34.3,53.4c0.2,0,0.5,0,0.8,0C278.4,158.7,289.7,141.1,301,123.5
		z"/>
	<path d="M177.5,314.4c0.2,0,0.5,0,0.7,0c9-13.9,17.9-27.8,26.8-41.8c-0.3,0.1-0.7,0.3-1,0.4C195.2,286.8,186.3,300.6,177.5,314.4z"
		/>
	<path d="M185.8,314.5c0.3,0,0.5,0,0.8,0c10.1-15.8,20.3-31.6,30.4-47.3c-0.4,0.2-0.7,0.4-1.1,0.5
		C205.9,283.2,195.8,298.9,185.8,314.5z"/>
	<path d="M304.5,131.1c-0.1-0.2-0.2-0.5-0.3-0.7c-9.8,15.3-19.7,30.6-29.5,45.9c0.2,0,0.5,0,0.8,0
		C285.1,161.2,294.8,146.2,304.5,131.1z"/>
	<path d="M194.5,314c0.3,0,0.5,0,0.8-0.1c10.9-16.9,21.7-33.8,32.6-50.7c-0.3,0-0.5,0.1-0.8,0.1C216.2,280.2,205.4,297.1,194.5,314z
		"/>
	<path d="M307.6,139.3c-0.1-0.3-0.2-0.5-0.3-0.8c-8.1,12.6-16.2,25.2-24.3,37.8c0.2,0,0.5,0,0.8,0
		C291.7,164,299.7,151.6,307.6,139.3z"/>
	<path d="M203.6,312.9c0.3,0,0.6-0.1,0.8-0.1c10.1-15.7,20.2-31.3,30.2-47c-0.1-0.2-0.3-0.4-0.4-0.5
		C224,281.1,213.8,297,203.6,312.9z"/>
	<path d="M265,217.4c-0.1,0.6-0.3,1.2-0.4,1.8c1.4-2.2,2.9-4.5,4.3-6.7c1.9-2.9,3.8-5.8,5.6-8.8c-0.4,0.2-0.7,0.3-1.1,0.5
		C270.6,208.7,267.8,213,265,217.4z"/>
	<path d="M289.8,180.1c6.9-10.7,13.7-21.4,20.6-32c-0.1-0.3-0.2-0.6-0.2-0.8c-6.8,10.5-13.6,21.1-20.3,31.6c0,0,0,0,0,0.1
		C289.8,179.3,289.8,179.7,289.8,180.1z"/>
	<path d="M263.5,232.8c0,0.4,0,0.8,0,1.2c3.8-5.9,7.6-11.8,11.4-17.7c3-4.6,5.9-9.2,8.9-13.9c-0.2,0-0.5,0-0.7,0
		C276.5,212.6,270,222.7,263.5,232.8z"/>
	<path d="M213.2,311c0.3-0.1,0.6-0.1,0.9-0.2c7.8-12.2,15.7-24.4,23.5-36.5c-0.1-0.3-0.1-0.6-0.2-0.9
		C229.3,285.9,221.3,298.5,213.2,311z"/>
	<path d="M312.6,157.7c-0.1-0.3-0.1-0.6-0.2-0.9c-7.6,11.9-15.3,23.8-22.9,35.6c0,0.4,0,0.8,0,1.2
		C297.2,181.6,304.9,169.6,312.6,157.7z"/>
	<path d="M280.8,220.1c11.1-17.3,22.3-34.6,33.4-51.9c0-0.3-0.1-0.7-0.1-1c-16.7,26-33.4,52-50.2,78c0,0.4,0,0.7,0.1,1.1
		C269.6,237.6,275.2,228.9,280.8,220.1z"/>
	<path d="M223.4,308.1c0.3-0.1,0.6-0.2,1-0.3c6.5-10.2,13.1-20.3,19.6-30.5c-0.2,0-0.5,0-0.8,0C236.6,287.6,230,297.9,223.4,308.1z"
		/>
	<path d="M234.5,304c0.3-0.1,0.7-0.3,1.1-0.5c5.6-8.7,11.3-17.5,16.9-26.2c-0.2,0-0.5,0-0.8,0C245.9,286.3,240.2,295.2,234.5,304z"
		/>
	<path d="M286.7,224c9.4-14.6,18.8-29.2,28.2-43.8c0-0.4,0-0.8,0-1.1c-16.4,25.6-32.9,51.1-49.3,76.7c-0.3,0.4-0.5,0.8-0.8,1.3
		c0,0.3,0.1,0.7,0.1,1C272.1,246.6,279.4,235.3,286.7,224z"/>
	<path d="M292.7,227.8c7.3-11.3,14.5-22.6,21.8-33.9c0-0.5,0.1-0.9,0.1-1.4c-14.3,22.3-28.7,44.6-43.1,67c-2,3.1-4,6.2-6,9.3
		c0,0.4,0,0.7,0.1,1.1C274.6,255.9,283.6,241.8,292.7,227.8z"/>
	<path d="M246.7,298.1c0.4-0.2,0.8-0.4,1.2-0.7c4.3-6.7,8.6-13.4,12.9-20.1c-0.3,0-0.5,0-0.8,0C255.6,284.3,251.1,291.2,246.7,298.1
		z"/>
	<path d="M312.2,209.2c-11.6,18-23.2,36.1-34.8,54.1c-5.5,8.5-11,17.1-16.5,25.6c0.5-0.4,1-0.7,1.4-1.1
		c12.1-18.7,24.1-37.5,36.2-56.3c4.4-6.9,8.9-13.8,13.3-20.6C312,210.4,312.1,209.8,312.2,209.2z"/>
	<path d="M281,270.8c1-1.1,1.9-2.2,2.9-3.3c6.1-9.6,12.3-19.1,18.4-28.7c0.6-1.3,1.2-2.6,1.8-4c-6.9,10.8-13.8,21.5-20.8,32.3
		C282.6,268.3,281.8,269.6,281,270.8z"/>
	<path d="M28.3,160.9l17.4,3.5c0.7,0.1,1.3,0,1.8-0.4c0.6-0.4,0.9-1,1.1-1.7l2.6-12.6c0.1-0.7,0-1.4-0.3-2c-0.4-0.6-0.9-1-1.5-1.1
		l-5.1-1l-4.7-1l-1.7,8.4l4.7,1l0.6-3.2l2.8,0.6l-1.5,7.4l-12.8-2.6l1.5-7.4l2.8,0.6l1-5.2l-5.2-1c-0.7-0.1-1.3,0-1.8,0.4
		c-0.6,0.4-0.9,1-1.1,1.7l-2.5,12.6c-0.1,0.7,0,1.4,0.3,2C27.1,160.4,27.6,160.8,28.3,160.9z"/>
	<rect x="42.1" y="121.4" transform="matrix(0.3412 -0.94 0.94 0.3412 -95.1586 129.5005)" width="5.3" height="22.6"/>
	<polygon points="62.6,120.1 49.3,112.6 67.6,111.3 69.8,107.2 50.2,96.1 47.6,100.8 57,106.1 44.1,107 40.3,113.6 60,124.7 	"/>
	<polygon points="85.5,87.9 81.9,84.9 74.3,93.8 71.2,91.1 75.4,86.2 71.7,83.2 67.6,88.1 64.4,85.4 72,76.5 68.3,73.3 57.3,86.2 
		74.5,100.8 	"/>
	<polygon points="102.7,72.9 99.7,69.2 92,75.6 80.7,61.9 76.6,65.3 91,82.7 	"/>
	<polygon points="122.2,61 119.8,56.8 111.2,61.8 102.3,46.4 97.7,49.1 109,68.6 	"/>
	<polygon points="145.4,51.8 143.7,47.3 132.7,51.3 131.3,47.5 137.4,45.3 135.8,40.8 129.7,43 128.3,39.2 139.3,35.2 137.6,30.6 
		121.7,36.4 129.4,57.6 	"/>
	<path d="M181.3,46.4c0.7,0,1.3-0.3,1.8-0.8c0.5-0.5,0.7-1.1,0.7-1.8l-1.2-17.7c0-0.7-0.3-1.2-0.9-1.7c-0.6-0.4-1.2-0.6-1.9-0.6
		l-15.2,1l1.5,22.5L181.3,46.4z M177.4,28.9l0.9,12.9l-7.3,0.5l-0.9-12.9L177.4,28.9z"/>
	<polygon points="209.5,43.8 197.8,42.4 198.3,38.4 204.7,39.2 205.3,34.4 198.8,33.7 199.3,29.6 211,31 211.5,26.1 194.7,24.1 
		192.1,46.6 208.9,48.6 	"/>
	<path d="M223.4,46.8l8,2.6l0.1,5.6l5.2,1.7l-0.2-23.7l-7.7-2.5l-13.9,19.2l5.2,1.7L223.4,46.8z M231.2,36.2l0.1,8l-4.9-1.6
		L231.2,36.2z"/>
	<polygon points="254.2,48.4 255.5,66.7 259.6,69 270.6,49.3 266,46.7 260.7,56.2 259.8,43.2 253.1,39.5 242.1,59.2 246.7,61.8 	"/>
	<polygon points="269.4,76.6 273.5,80 284.9,66.3 288.9,69.6 291.9,66 279.8,55.9 276.8,59.6 280.8,62.9 	"/>
	<path d="M283.9,88.7c0,0.7,0.2,1.3,0.7,1.9l8.3,9.9c0.5,0.6,1,0.9,1.7,1c0.7,0.1,1.3-0.1,1.8-0.5L310,89.5c0.5-0.4,0.8-1,0.8-1.7
		c0-0.7-0.2-1.3-0.7-1.9l-8.3-9.9c-0.5-0.6-1-0.9-1.7-1c-0.7-0.1-1.3,0.1-1.8,0.5L284.7,87C284.2,87.5,283.9,88,283.9,88.7z
		 M299.9,81.2l4.8,5.8l-9.9,8.3l-4.9-5.8L299.9,81.2z"/>
	<polygon points="301.9,114.1 315.4,106.8 306.7,123 309,127.1 328.8,116.4 326.3,111.7 316.7,116.8 322.9,105.4 319.3,98.7 
		299.4,109.5 	"/>
	<rect x="312.3" y="131.7" transform="matrix(0.9435 -0.3315 0.3315 0.9435 -26.2313 114.8483)" width="22.6" height="5.3"/>
	<path d="M326,147.4c-0.3,0.6-0.4,1.3-0.3,2l1.6,7.7l-4.1,0.9l-2.2-10.4l-4.7,1l2.7,13c0.1,0.7,0.5,1.3,1.1,1.7
		c0.6,0.4,1.2,0.5,1.9,0.4l8.8-1.9c0.7-0.1,1.2-0.5,1.5-1.1c0.3-0.6,0.4-1.3,0.3-2L331,151l3.9-0.8l2.2,10.3l4.7-1l-2.7-12.9
		c-0.1-0.7-0.5-1.3-1.1-1.7c-0.6-0.4-1.2-0.6-1.8-0.4l-8.6,1.8C326.8,146.4,326.3,146.8,326,147.4z"/>
	<circle cx="32.2" cy="185.9" r="7.6"/>
	<circle cx="334.5" cy="185.9" r="7.6"/>
	<path d="M44,229.1l-2.1-8.3l-4.6,1.2l0.8,3.2l-2.8,0.7l-1.9-7.4l12.6-3.3l1.9,7.4l-2.8,0.7l1.3,5.1l5.1-1.3
		c0.7-0.2,1.2-0.6,1.5-1.2c0.3-0.6,0.4-1.3,0.2-2L50,211.5c-0.2-0.7-0.6-1.2-1.1-1.6c-0.6-0.4-1.2-0.5-1.9-0.3L29.8,214
		c-0.7,0.2-1.2,0.6-1.5,1.2c-0.3,0.6-0.4,1.3-0.2,2l3.2,12.4c0.2,0.7,0.6,1.2,1.1,1.6c0.6,0.4,1.2,0.5,1.9,0.3l5-1.3L44,229.1z"/>
	<path d="M51.4,256c0.6,0.3,1.3,0.3,1.9,0l9-4.3c0.6-0.3,1-0.8,1.2-1.4c0.2-0.7,0.1-1.3-0.2-2l-6.6-13.8l-20.3,9.8l2.3,4.8l7-3.4
		l1.7,3.5l-4.7,8l2.7,5.6l4.7-8C50.3,255.2,50.8,255.7,51.4,256z M50,243.4l4.7-2.3l3.2,6.7l-4.7,2.3L50,243.4z"/>
	<path d="M72.5,262.8l-22.4,7.7l3.3,4.4l5.3-1.8l5,6.7l-3.2,4.6l3.3,4.4l13.5-19.5L72.5,262.8z M66.6,275.5l-3.1-4.1l7.6-2.5
		L66.6,275.5z"/>
	<path d="M99.2,291.9c-0.1-0.7-0.4-1.3-0.9-1.8l-11.6-10.2l-15,16.9l4,3.6l5.1-5.8l7.5,6.7c0.5,0.5,1.2,0.7,1.8,0.7
		c0.7,0,1.3-0.3,1.7-0.8l6.6-7.5C99.1,293.2,99.3,292.6,99.2,291.9z M89.6,295.9l-5.5-4.9l3.5-3.9l5.5,4.9L89.6,295.9z"/>
	<polygon points="112.6,311.8 106.3,308.1 111.4,299.3 106.9,296.6 95.4,316.1 100,318.8 103.9,312.3 110.2,316 106.4,322.5 
		110.9,325.2 122.3,305.7 117.8,303.1 	"/>
	<rect x="118" y="318.2" transform="matrix(0.3698 -0.9291 0.9291 0.3698 -216.6253 322.341)" width="22.6" height="5.3"/>
	<path d="M158.4,317.7L147,315c-0.7-0.2-1.4-0.1-2,0.2c-0.6,0.3-1,0.9-1.1,1.5l-4.1,17.3c-0.2,0.7,0,1.3,0.3,1.8
		c0.4,0.6,0.9,0.9,1.7,1.1l11.4,2.7c0.7,0.2,1.4,0.1,2-0.2c0.6-0.3,1-0.8,1.1-1.5l1.2-5.1l-5.2-1.2l-0.7,2.8l-6.3-1.5l3-12.6
		l6.3,1.5l-0.6,2.8l5.2,1.2l1.2-5.1c0.2-0.7,0-1.3-0.4-1.9C159.7,318.3,159.1,317.9,158.4,317.7z"/>
	<path d="M200.2,320c-0.5-0.4-1.2-0.6-1.9-0.6l-15.2,0.9l1.3,22.5l15.2-0.9c0.7,0,1.3-0.3,1.8-0.8c0.5-0.5,0.7-1.1,0.7-1.7l-1-17.7
		C201,321,200.7,320.4,200.2,320z M189.4,337.8l-0.8-12.9l7.3-0.4l0.7,12.9L189.4,337.8z"/>
	<polygon points="219.1,333.8 218.1,329.8 224.4,328.2 223.2,323.6 216.9,325.2 215.9,321.2 227.3,318.3 226.1,313.6 209.7,317.8 
		215.2,339.7 231.6,335.5 230.5,330.9 	"/>
	<path d="M253.3,314c-0.3-0.6-0.8-1-1.4-1.2c-0.7-0.2-1.3-0.2-2,0.1l-7.2,3.3l-1.7-3.6l9.6-4.4l-2-4.4l-12,5.5
		c-0.7,0.3-1.1,0.8-1.4,1.4c-0.3,0.6-0.3,1.3,0,1.9l3.7,8c0.3,0.6,0.8,1,1.5,1.2c0.7,0.2,1.3,0.1,2-0.2l7.2-3.3l1.8,3.8l-9.6,4.4
		l2,4.4l12-5.6c0.7-0.3,1.1-0.8,1.4-1.4c0.3-0.6,0.3-1.3,0-1.9L253.3,314z"/>
	<rect x="262.3" y="295.7" transform="matrix(0.8378 -0.5459 0.5459 0.8378 -124.6522 194.4164)" width="5.3" height="22.6"/>
	<path d="M291.9,290.1l-3.2-3.6l-6.4,5.7l3.2,3.6l2.4-2.2l1.9,2.1l-5.7,5.1l-8.7-9.7l5.7-5.1l1.9,2.2l3.9-3.5l-3.5-3.9
		c-0.5-0.5-1-0.8-1.7-0.8c-0.7,0-1.3,0.2-1.9,0.7l-9.6,8.6c-0.5,0.5-0.8,1.1-0.9,1.8c-0.1,0.7,0.1,1.3,0.6,1.8l11.8,13.3
		c0.5,0.5,1,0.8,1.7,0.8c0.7,0,1.3-0.2,1.8-0.7l9.6-8.6c0.5-0.5,0.8-1.1,0.9-1.8c0.1-0.7-0.1-1.3-0.6-1.8L291.9,290.1z"/>
	<polygon points="296.1,261.4 304.8,267.9 291.9,267.1 287.3,273.2 305.4,286.7 308.5,282.5 296.3,273.3 314.6,274.4 317.4,270.7 
		299.3,257.1 	"/>
	<polygon points="321.9,252.6 318.3,250.8 321,245 316.8,243 314,248.8 310.2,247 315.3,236.4 310.9,234.3 303.6,249.6 324,259.3 
		331.3,244.1 327,242 	"/>
	<path d="M331.9,213c-0.3-0.6-0.8-1-1.5-1.2l-9.7-2.5c-0.6-0.2-1.2-0.1-1.8,0.3c-0.6,0.4-1,0.9-1.2,1.7l-3.8,14.9l21.9,5.6l1.3-5.2
		l-7.5-1.9l1-3.7l8.8-3.1l1.5-6l-8.8,3.1C332.3,214.3,332.2,213.6,331.9,213z M324.9,223.6l-5-1.3l1.8-7.1l5.1,1.3L324.9,223.6z"/>
	<g>
		<path d="M169.9,270.4c-1.8,0-3.7-0.1-5.8-0.2l-0.7,0c-2.4-0.1-4.8-0.4-7.1-0.7l-0.7-0.1c-2.3-0.3-4.6-0.7-6.8-1.2l-0.6-0.1
			c-2.2-0.5-4.4-1.1-6.5-1.7l-0.6-0.2c-2.1-0.7-4.1-1.4-6.1-2.2l-0.6-0.2c-1.9-0.8-3.9-1.7-5.8-2.7l-0.6-0.3c-1.8-1-3.7-2-5.5-3.2
			l-0.5-0.3c-1.4-0.9-2.6-1.7-3.7-2.5c-0.4-0.3-0.7-0.5-1.1-0.8l-1-0.8c-1.7-1.3-3.3-2.7-4.9-4.1l-0.5-0.4c-1.6-1.4-3.1-3-4.6-4.6
			l-0.4-0.5c-1.5-1.6-2.9-3.3-4.2-5.1l-0.4-0.5c-1.4-1.8-2.7-3.7-3.9-5.7c0,0-0.3-0.5-0.4-0.6c-1.3-2-2.4-4.2-3.5-6.3
			c-0.1-0.1-0.1-0.2-0.2-0.3c-0.1-0.1-0.1-0.2-0.2-0.3c-1.1-2.2-2.1-4.6-3.1-7c-0.1-0.2-0.2-0.5-0.3-0.7c-1-2.6-1.8-5.2-2.5-7.8
			l-0.1-0.3c0-0.1-0.1-0.5-0.1-0.5c-0.7-2.8-1.4-5.8-1.8-8.9c0,0-0.1-0.7-0.2-0.9c-0.5-3.3-0.8-6.8-0.9-10.3l0-0.4
			c0-0.2,0-0.4,0-0.7c-0.1-4.1,0-8.2,0.4-12.3c0-0.3,0.1-0.6,0.1-0.9l0.1-0.5c0.6-5.6,1.6-11.2,3-16.5c0.2-0.6,0.4-1.3,0.5-1.9
			l0.1-0.2c0.6-2,1.2-3.8,1.8-5.4c4.8-13.3,13.7-26.1,24.9-36.1c0.6-0.5,1.1-1,1.7-1.4c3.7-3.1,7.6-5.9,11.7-8.4
			c0.7-0.4,1.3-0.8,2-1.1c0.4-0.2,0.8-0.4,1.1-0.6c3.4-1.8,7-3.4,10.6-4.8l0.1,0c0.3-0.1,0.6-0.2,0.9-0.3c3-1.1,6.1-1.9,9.2-2.6
			c0.2,0,0.9-0.2,0.9-0.2c2.8-0.6,5.6-1,8.4-1.3c0,0,0.6-0.1,0.8-0.1c2.5-0.2,4.9-0.3,7.4-0.3l0.4,0c0.2,0,0.7,0,0.7,0
			c2.5,0,4.9,0.2,7.3,0.4l0.7,0.1c2.3,0.3,4.6,0.7,6.8,1.1l0.7,0.1c1.3,0.3,2.5,0.6,3.6,0.9c0.8,0.2,1.7,0.5,2.7,0.9l0.6,0.2
			c1.7,0.6,3.6,1.4,5.9,2.5l2.3,1.1c1.4,0.6,2.8,1.3,4.2,1.9l0.6,0.3c2.3,1,4.3,1.8,6.3,2.3c0.2,0.1,0.4,0.1,0.6,0.2
			c2.4,0.7,4.5,1.1,6.7,1.2c0.1,0,0.2,0,0.3,0h0.1c0.3,0,0.5,0,0.8,0l0.2,0c3.5,0,6.9-1,9.7-2.8c0.5-0.4,1.1-0.7,1.5-1.1
			c2.6-2.2,4.5-5.1,5.6-8.6c1.7,0,3.3-0.1,4.9-0.1c0.8,0,3.1-0.1,3.1-0.1c0.5,0,1.1,0,1.6,0c0,2.2,0,4.5,0,6.7v1.2c0,4,0,8-0.1,11.9
			l-0.1,14.3c0,4,0,7.9,0,11.9v1.2c0,3.9,0,7.9,0,11.8l0,1.9l-2,0c-2,0-4.1,0-6.4-0.1l-0.7,0c-0.9,0-1.7,0-2.6-0.1
			c-0.3-1.3-0.6-2.6-1-3.9c-0.1-0.2-0.1-0.4-0.2-0.6l-0.1-0.2c-0.8-2.6-1.8-5.1-2.9-7.5c-0.1-0.2-0.2-0.5-0.3-0.7
			c-1.1-2.2-2.3-4.4-3.6-6.5l-0.4-0.6c-1.3-1.9-2.7-3.8-4.1-5.6l-0.4-0.5c-1.4-1.7-3-3.4-4.6-4.9l-0.5-0.5c-1.6-1.5-3.2-2.9-5-4.3
			l-0.5-0.4c-1.7-1.3-3.6-2.6-5.4-3.7l-0.6-0.3c-1.9-1.1-3.8-2.2-5.8-3.1l-0.6-0.3c-2-0.9-4.1-1.7-6.2-2.4c-0.2-0.1-0.4-0.1-0.6-0.2
			c-2.2-0.7-4.4-1.3-6.7-1.7c-0.2,0-0.5-0.1-0.7-0.1c-2.4-0.4-4.8-0.7-7.2-0.9c-0.2,0-0.5,0-0.7,0c-0.9,0-1.7-0.1-2.6-0.1
			c-1.8,0-3.6,0.1-5.3,0.2c-0.2,0-0.5,0-0.7,0.1l-0.1,0c-3,0.3-6,0.9-8.8,1.7l-0.1,0c-0.2,0-0.4,0.1-0.6,0.2c-0.1,0-0.2,0.1-0.4,0.1
			c-3.7,1.1-7.3,2.6-10.6,4.4c-0.4,0.2-0.8,0.4-1.2,0.7c-16.1,9.3-27.5,26.9-32.1,49.8c-0.1,0.5-0.2,0.9-0.3,1.4l0,0.3
			c-0.9,4.8-1.4,9.7-1.7,14.6l0,0.6c0,0.1,0,0.7,0,0.7c-0.1,3.9-0.1,7.8,0.2,11.6c0,0.3,0.1,0.7,0.1,1.1c0.3,3.3,0.7,6.7,1.3,9.9
			c0,0.3,0.2,0.9,0.2,0.9c0.6,3,1.3,5.9,2.1,8.7c0.1,0.3,0.1,0.5,0.2,0.8c0.8,2.7,1.7,5.3,2.7,7.8l0.3,0.7c1,2.4,2.1,4.7,3.3,7
			l0.1,0.2c0.1,0.1,0.1,0.2,0.2,0.3l0,0.1c1.1,2.1,2.4,4.1,3.9,6.1c0,0,0.3,0.4,0.4,0.6c1.4,1.8,2.9,3.5,4.5,5.2
			c0.1,0.1,0.5,0.5,0.5,0.5c1.5,1.5,3.2,3,4.9,4.4l0.5,0.4c1.7,1.3,3.5,2.6,5.3,3.8l0.5,0.3c1.8,1.1,3.8,2.2,5.7,3.1l0.6,0.3
			c2,0.9,4.1,1.8,6.1,2.5l0.6,0.2c2.2,0.7,4.4,1.4,6.6,1.9l0.7,0.1c0.5,0.1,1,0.2,1.4,0.3c1.9,0.3,3.8,0.6,5.7,0.7c0,0,0.6,0,0.7,0
			c0.8,0,1.6,0.1,2.4,0.1c1.8,0,3.7-0.1,5.6-0.3c0.3,0,0.5-0.1,0.8-0.1l0.1,0c3.1-0.4,6.2-1.1,9.2-2.1c0.3-0.1,0.7-0.2,1-0.3
			c4-1.4,7.9-3.4,11.5-5.8c0.5-0.3,0.9-0.6,1.4-0.9c2.7-1.9,5.3-4,7.6-6.4c7.8-7.7,12.7-17.5,13.3-26.2c0-0.4,0-0.9,0.1-1.3
			c0-3.4-0.6-6.5-1.9-9.5c-0.1-0.2-0.2-0.5-0.3-0.7c-0.9-1.8-2-3.5-3.4-5c-0.3-0.3-0.6-0.6-0.9-0.9c-0.1-0.1-0.3-0.3-0.4-0.4
			l-0.1-0.1c-1.6-1.5-3.6-2.7-5.8-3.6l-0.2-0.1c-0.2-0.1-0.3-0.1-0.5-0.2c-2.1-0.8-4.4-1.3-6.9-1.5l-0.2,0c-0.2,0-0.4,0-0.6-0.1
			c-0.9-0.1-1.8-0.1-2.8-0.1c0-1.7-0.1-3.3-0.1-4.8l0-2.7l1.5,0c2.6,0,5.1-0.1,7.7-0.1l0.8,0c2.6,0,5.1,0,7.7-0.1l0.8,0
			c1.9,0,3.7,0,5.6,0h2.8c2.5,0,5.1,0,7.6,0h0.8c2.5,0,5.1,0,7.6,0.1l9.1,0.1l16.7,0.2c2.5,0,5.1,0,7.6,0.1l2.5,0
			c0,2.1-0.1,4.4-0.1,6.7l0,0.2c-3.3,0.2-6.3,0.8-8.9,1.8c-0.4,0.1-0.7,0.3-1.1,0.5c-7.8,3.6-12.8,11.3-15,23.1
			c-0.1,0.5-0.2,1.1-0.3,1.6c-0.6,4-1,8.5-1,13.6c0,0.4,0,0.8,0,1.2c0,3.5,0.1,7.2,0.4,11.4l0.1,1.1c0.2,3.7,0.5,7.2,0.8,10.6
			l0.1,1.6c0.3,3.1,0.5,6,0.7,8.6h-10.1c-0.4-1.3-0.7-2.3-1.1-3.3c-0.1-0.3-0.2-0.5-0.3-0.7c-1.1-2.6-2.5-4.6-4.2-6.1
			c-0.2-0.2-0.3-0.3-0.5-0.5c-0.2-0.2-0.4-0.3-0.6-0.5c-1.7-1.2-3.6-2.1-5.6-2.5l-0.2,0c-0.2,0-0.4-0.1-0.5-0.1
			c-1.1-0.2-2.3-0.3-3.5-0.3c-1.5,0-3,0.2-4.7,0.5c-0.3,0.1-0.5,0.1-0.8,0.2l-0.1,0c-1.8,0.4-3.7,1-5.6,1.8c-1.5,0.6-3,1.3-4.8,2.1
			c-0.4,0.2-0.7,0.4-1.1,0.6c-1.2,0.6-2.3,1.2-3.5,1.8c-0.8,0.4-1.6,0.8-2.4,1.2c-1.5,0.8-3.2,1.5-5.1,2.3l-0.2,0.1
			c-0.2,0.1-0.5,0.2-0.7,0.3c-2.1,0.8-4.3,1.5-6.5,2.1l-0.1,0c-1,0.3-2,0.6-3,0.9c-0.2,0-0.3,0.1-0.5,0.1l-0.4,0.1
			c-2.9,0.8-5.8,1.4-8.7,1.8l-0.8,0.1c-2.7,0.4-5.3,0.6-8,0.7l-1.2,0C170.7,270.4,170.3,270.4,169.9,270.4L169.9,270.4z"/>
		<path d="M289.8,178.9c0-1.4-1.2-2.5-2.6-2.5c-1.1,0-2.3,0-3.5,0c-0.3,0-0.5,0-0.8,0c-2.5,0-5.1,0-7.6,0c-0.3,0-0.5,0-0.8,0
			c-2.5,0-5.1,0-7.6-0.1c-0.3,0-0.5,0-0.8,0c-2.5,0-5.1,0-7.6-0.1c-0.3,0-0.5,0-0.8,0c-2.5,0-5.1-0.1-7.6-0.1c-0.3,0-0.5,0-0.8,0
			c-2.5,0-5.1,0-7.6-0.1c-0.2,0-0.5,0-0.8,0c-2.5,0-5.1,0-7.6,0c-0.2,0-0.5,0-0.8,0c-2.5,0-5.1,0-7.6,0c-0.3,0-0.5,0-0.8,0
			c-2.6,0-5.1,0-7.7,0c-0.3,0-0.5,0-0.8,0c-2.6,0-5.1,0-7.7,0.1c-0.3,0-0.5,0-0.8,0c-2.6,0-5.1,0.1-7.7,0.1c-0.3,0-0.5,0-0.8,0
			c-1.7,0-3.3,0.1-5,0.1c-1.3,0-2.7,1.1-2.6,2.6c0.2,2.9,0.2,5.8,0.3,8.6c0,0.4,0,0.8,0,1.1c0.1,3.8,0.1,7.5,0.4,11.3
			c0,0.3,0,0.6,0.1,0.9c0,0,0,0.1,0,0.1c0.2,1.7,1.6,2.6,3.2,2.3c1-0.2,2.1-0.3,3.1-0.4c0.3,0,0.5,0,0.8-0.1c2.4-0.2,5-0.1,7.3,0.5
			c0.2,0.1,0.4,0.1,0.6,0.2c2.1,0.6,4,1.7,5.5,3.4c0.1,0.2,0.3,0.3,0.4,0.5c0.1,0.1,0.1,0.2,0.2,0.3c1.7,2.3,2.2,5.2,2.1,8
			c0,0.4,0,0.9-0.1,1.3c-0.2,1.8-0.6,3.5-1,5.1c-2.1,7-7.6,12.7-13.1,17.4c-0.2,0.2-0.5,0.4-0.7,0.6c-0.5,0.4-1,0.8-1.5,1.2
			c-3.5,2.6-7.4,4.6-11.4,5.9c-0.3,0.1-0.6,0.2-0.9,0.3c-2.8,0.8-5.7,1.4-8.6,1.6c-0.1,0-0.1,0-0.1,0c-0.3,0-0.5,0-0.8,0.1
			c-2.5,0.1-5,0-7.5-0.3c-0.2,0-0.5-0.1-0.7-0.1c-2.2-0.3-4.5-0.8-6.7-1.5c-0.2-0.1-0.4-0.1-0.6-0.2c-2.1-0.6-4.1-1.4-6.1-2.3
			c-0.2-0.1-0.4-0.2-0.6-0.3c-1.9-0.9-3.8-1.9-5.7-3.1c-0.2-0.1-0.4-0.2-0.5-0.3c-1.8-1.1-3.6-2.4-5.2-3.8c-0.2-0.1-0.3-0.3-0.5-0.4
			c-1.7-1.4-3.3-2.9-4.7-4.5c-0.1-0.2-0.3-0.3-0.4-0.5c-1.5-1.7-2.8-3.4-4-5.2c0-0.1-0.1-0.1-0.1-0.2c-0.1-0.2-0.2-0.4-0.4-0.6
			c-1.3-2.1-2.5-4.2-3.5-6.4c-0.1-0.2-0.2-0.4-0.3-0.7c-1.1-2.4-2.1-4.9-2.9-7.4c-0.1-0.3-0.2-0.5-0.3-0.8c-0.9-2.8-1.6-5.6-2.2-8.5
			c-0.1-0.3-0.1-0.6-0.2-0.9c-0.6-3.2-1-6.5-1.3-9.8c0-0.3-0.1-0.7-0.1-1c-0.3-3.9-0.3-7.7-0.2-11.6c0-0.4,0-0.8,0.1-1.2
			c0.1-1.7,0.2-3.4,0.4-5.1c0.3-3.2,0.7-6.3,1.4-9.4c0.1-0.6,0.2-1.2,0.4-1.8c3.7-16.3,12.2-31.4,25.8-40.1c0.4-0.3,0.8-0.5,1.3-0.8
			c3.3-1.9,6.8-3.5,10.7-4.7c0.3-0.1,0.6-0.2,0.9-0.3c1.7-0.5,3.5-0.9,5.4-1.2c1.1-0.2,2.2-0.3,3.3-0.4c0.3,0,0.5,0,0.8-0.1
			c2.5-0.2,5.1-0.1,7.6,0.1c0.2,0,0.5,0.1,0.7,0.1c2.3,0.3,4.6,0.7,6.8,1.3c0.2,0.1,0.4,0.1,0.6,0.2c2.1,0.6,4.2,1.4,6.2,2.2
			c0.2,0.1,0.4,0.2,0.6,0.3c1.9,0.9,3.9,1.9,5.7,3c0.2,0.1,0.4,0.2,0.5,0.3c1.8,1.1,3.6,2.4,5.2,3.7c0.2,0.1,0.3,0.3,0.5,0.4
			c1.7,1.4,3.3,2.9,4.8,4.4c0.2,0.2,0.3,0.3,0.4,0.5c1.5,1.6,3,3.3,4.3,5.1c0.1,0.2,0.3,0.4,0.4,0.6c1.4,1.9,2.7,3.9,3.8,6
			c0.1,0.2,0.2,0.4,0.3,0.6c1.2,2.3,2.3,4.6,3.1,7c0.1,0.3,0.2,0.5,0.3,0.8c1,2.8,1.7,5.7,2.1,8.6c0,0.3,0.1,0.7,0.1,1
			c0,0.1,0,0.2,0,0.3c0.2,1.4,1.1,2.6,2.6,2.6c1,0,2.1,0,3.1,0c0.3,0,0.5,0,0.7,0c2.5,0,5,0.1,7.5,0.2c0.2,0,0.5,0,0.8,0
			c2.5,0,5.1,0.1,7.6,0c0.3,0,0.5,0,0.8,0c1.4,0,2.9-0.1,4.3-0.2c1.4-0.1,2.6-1.1,2.6-2.6c0-2.6-0.1-5.2-0.1-7.8c0-0.4,0-0.8,0-1.2
			c0-3.9,0-7.9,0-11.8c0-0.4,0-0.8,0-1.2c0-4,0-7.9,0-11.9c0-0.4,0-0.8,0-1.2c0-4,0-8,0.1-12c0-0.4,0-0.8,0-1.2c0-4,0-8,0-11.9
			c0-0.4,0-0.8,0-1.2c0-4,0-7.9,0-11.9c0-0.4,0-0.8,0-1.2c0-0.1,0-0.2,0-0.2c0-1.5-1.2-2.5-2.6-2.6c-1.1-0.1-2.1-0.1-3.2-0.1
			c-0.3,0-0.5,0-0.8,0c-2.6,0-5.1,0-7.7,0.1c-0.3,0-0.5,0-0.8,0c-2.6,0.1-5.1,0.1-7.7,0.1c-0.2,0-0.5,0-0.7,0c-0.6,0-1.3,0-1.9-0.1
			c-1.1-0.1-1.9,0.5-2.2,1.3c-0.2,0.3-0.3,0.8-0.3,1.3c-0.1,8.8-4.8,10.6-10.9,9.6c-0.2,0-0.5-0.1-0.7-0.1c-2.1-0.4-4.2-1.1-6.4-1.9
			c-0.2-0.1-0.4-0.2-0.6-0.2c-2-0.8-4.1-1.7-6-2.6c-0.2-0.1-0.4-0.2-0.6-0.3c-2.2-1-4.2-2-5.9-2.7c-0.2-0.1-0.4-0.2-0.6-0.3
			c-0.7-0.3-1.4-0.6-2-0.8c-1.4-0.5-2.9-0.9-4.3-1.3c-0.2-0.1-0.4-0.1-0.6-0.2c-2.2-0.6-4.4-1.1-6.7-1.5c-0.2,0-0.5-0.1-0.7-0.1
			c-2.4-0.4-4.7-0.7-7.1-0.8c-0.2,0-0.5,0-0.7,0c-2.5-0.2-5-0.2-7.6-0.1c-0.3,0-0.5,0-0.8,0c-2.7,0.1-5.4,0.3-8,0.6
			c-0.3,0-0.6,0.1-0.8,0.1c-2.9,0.4-5.8,0.9-8.6,1.6c-0.3,0.1-0.6,0.1-0.9,0.2c-1.9,0.5-3.8,1-5.6,1.5c-1.3,0.4-2.5,0.8-3.8,1.3
			c-0.3,0.1-0.7,0.2-1,0.4c-3.7,1.4-7.3,3-10.7,4.8c-0.4,0.2-0.8,0.4-1.2,0.6c-4.7,2.6-9.1,5.5-13.3,8.8c-0.5,0.4-1.1,0.9-1.6,1.3
			c-4.7,3.9-9,8.2-13,12.8c-9.8,11.5-16.3,24.5-20.1,38.7c-0.2,0.7-0.4,1.3-0.5,2c-1.2,4.7-2,9.5-2.6,14.4c-0.1,0.6-0.1,1.2-0.2,1.8
			c-0.1,0.5-0.1,0.9-0.1,1.4c-0.4,4.1-0.5,8.3-0.4,12.5c0,0.4,0,0.7,0,1.1c0.1,3.5,0.4,7,0.9,10.5c0,0.3,0.1,0.6,0.1,1
			c0.4,3.1,1,6.1,1.7,9.2c0.1,0.3,0.1,0.6,0.2,0.9c0.7,2.8,1.5,5.5,2.4,8.2c0.1,0.3,0.2,0.5,0.3,0.8c0.9,2.5,1.8,5,2.9,7.4
			c0.1,0.2,0.2,0.5,0.3,0.7c0.2,0.4,0.4,0.9,0.6,1.3c0.9,1.8,1.8,3.6,2.8,5.4c0.1,0.2,0.2,0.4,0.4,0.6c1.2,2,2.4,4,3.8,6
			c0.1,0.2,0.3,0.4,0.4,0.6c1.3,1.9,2.7,3.7,4.1,5.4c0.1,0.2,0.3,0.3,0.4,0.5c1.4,1.7,2.9,3.4,4.4,5c0.2,0.2,0.3,0.3,0.4,0.5
			c1.5,1.6,3.1,3.1,4.7,4.5c0.2,0.1,0.3,0.3,0.5,0.4c1.6,1.4,3.3,2.8,5,4.1c0.2,0.1,0.3,0.3,0.5,0.4c1.7,1.3,3.5,2.5,5.2,3.7
			c0.2,0.1,0.4,0.2,0.5,0.4c0.4,0.2,0.8,0.5,1.1,0.7c1.4,0.9,2.9,1.7,4.4,2.6c0.2,0.1,0.4,0.2,0.6,0.3c1.9,1,3.8,2,5.8,2.8
			c0.2,0.1,0.4,0.2,0.6,0.3c2,0.9,4.1,1.6,6.1,2.3c0.2,0.1,0.4,0.1,0.6,0.2c2.1,0.7,4.3,1.3,6.4,1.9c0.2,0.1,0.4,0.1,0.7,0.2
			c2.2,0.5,4.5,1,6.7,1.4c0.2,0,0.4,0.1,0.7,0.1c2.3,0.4,4.7,0.7,7,0.9c0.2,0,0.5,0.1,0.7,0.1c2.4,0.2,4.9,0.4,7.3,0.4
			c0.2,0,0.5,0,0.7,0c2,0,3.9,0.1,5.9,0c0.6,0,1.2,0,1.8-0.1c0.3,0,0.5,0,0.8,0c2.8-0.2,5.5-0.5,8.2-0.9c0.3,0,0.6-0.1,0.8-0.1
			c3-0.5,6-1.2,9-2c0.3-0.1,0.6-0.2,0.9-0.3c0.6-0.2,1.1-0.3,1.7-0.5c2.8-0.9,5.5-1.8,8.2-2.9c0.3-0.1,0.7-0.3,1-0.4
			c3.7-1.5,7.2-3.2,10.9-5c0.4-0.2,0.7-0.4,1.1-0.5c0.4-0.2,0.9-0.4,1.3-0.6c2.7-1.3,5.7-2.7,8.8-3.1c0.3,0,0.5-0.1,0.8-0.1
			c1.4-0.1,2.7,0,4.1,0.4c0.9,0.3,1.7,0.8,2.3,1.6c0.1,0.2,0.3,0.3,0.4,0.5c1.5,2.1,2.2,5.2,2.7,7.7c0.1,0.3,0.1,0.6,0.2,0.9
			c0.1,0.4,0.2,0.8,0.3,1.2c0.3,1.1,1.3,1.9,2.5,1.9c1,0,1.9,0,2.9,0c0.3,0,0.5,0,0.8,0c2.5,0,5.1,0,7.6,0c0.3,0,0.5,0,0.8,0
			c2.5,0,5.1,0,7.6,0c0.3,0,0.5,0,0.8,0c0.8,0,1.5,0,2.3,0c1.4,0,2.6-1.2,2.6-2.6c0-1.6,0-3.3-0.1-4.9c0-0.4,0-0.7-0.1-1.1
			c-0.1-3.6-0.4-7.2-0.7-10.8c0-0.4-0.1-0.7-0.1-1c-0.3-3.5-0.6-7.1-0.8-10.6c0-0.4,0-0.7-0.1-1.1c-0.2-3.7-0.4-7.5-0.4-11.2
			c0-0.4,0-0.8,0-1.2c0-1.6,0-3.1,0.1-4.7c0.1-2.9,0.4-6,1-8.9c0.1-0.6,0.2-1.2,0.4-1.8c0.7-3.1,1.9-6,3.6-8.7c1.3-2,3-3.5,4.9-4.5
			c0.4-0.2,0.7-0.4,1.1-0.5c2.6-1.1,5.5-1.5,8.5-1.3c0.2,0,0.5,0,0.7,0c0.7,0.1,1.4,0.1,2.1,0.2c1.7,0.3,3.1-0.7,3.3-2.5
			c0.2-2.2,0.3-4.4,0.4-6.6c0-0.4,0-0.8,0-1.2c0.1-4.1,0.1-8.2,0.3-12.3C289.8,179.7,289.8,179.3,289.8,178.9
			C289.8,178.9,289.8,178.9,289.8,178.9z M283.3,195c0,0.7-0.5,1.2-1.2,1.2c-1,0-1.9,0-2.8,0.1c-0.3,0-0.5,0.1-0.8,0.1
			c-3.7,0.5-7.1,1.7-10,3.8c-0.5,0.4-1,0.8-1.5,1.2c-1.4,1.3-2.7,2.8-3.8,4.5c-1,1.7-1.9,3.6-2.6,5.5c-0.3,0.8-0.6,1.6-0.8,2.5
			c-1,3.5-1.6,7.2-1.9,10.8c-0.1,1.5-0.2,3-0.3,4.4c0,0.4,0,0.8-0.1,1.3c-0.1,3.9,0,7.8,0.1,11.7c0,0.4,0,0.7,0.1,1.1
			c0.2,3.6,0.4,7.2,0.7,10.8c0,0.4,0.1,0.7,0.1,1.1c0.3,3.5,0.6,7.1,0.8,10.6c0,0.4,0,0.7,0.1,1.1c0.1,1.1,0.1,2.2,0.2,3.4
			c0,0.7-0.6,1.2-1.2,1.2c-0.6,0-1.3,0-1.9,0c-0.3,0-0.5,0-0.8,0c-2.5,0-5.1,0-7.6,0c-0.2,0-0.5,0-0.8,0c-1,0-2.1,0-3.1,0
			c-0.5,0-1-0.4-1.2-0.9c-0.3-1-0.5-1.9-0.9-2.9c-0.1-0.3-0.2-0.5-0.3-0.8c-0.9-2.3-2-4.5-3.6-6.2c-0.2-0.2-0.3-0.3-0.5-0.5
			c-1.3-1.2-2.9-2.1-4.8-2.5c-0.4-0.1-0.7-0.1-1.1-0.2c-0.2,0-0.5-0.1-0.7-0.1c-2.8-0.3-5.5,0-8.2,0.8c-0.3,0.1-0.6,0.2-0.9,0.3
			c-3.8,1.2-7.4,3.2-10.8,5c-0.4,0.2-0.8,0.4-1.1,0.6c-0.2,0.1-0.5,0.3-0.7,0.4c-3.2,1.6-6.5,3.1-9.9,4.3c-0.3,0.1-0.7,0.2-1,0.3
			c-3.1,1.1-6.2,2-9.4,2.7c-0.3,0.1-0.6,0.1-0.9,0.2c-2.8,0.6-5.7,1.1-8.6,1.4c-0.3,0-0.5,0.1-0.8,0.1c-2.7,0.3-5.3,0.5-8,0.5
			c-0.3,0-0.5,0-0.8,0c0,0,0,0-0.1,0c-2.5,0-5-0.1-7.4-0.3c-0.2,0-0.5,0-0.7,0c-2.4-0.2-4.8-0.4-7.1-0.8c-0.2,0-0.5-0.1-0.7-0.1
			c-2.3-0.4-4.6-0.8-6.8-1.3c-0.2,0-0.4-0.1-0.7-0.1c-2.2-0.5-4.4-1.1-6.5-1.8c-0.2-0.1-0.4-0.1-0.6-0.2c-2.1-0.7-4.2-1.4-6.2-2.2
			c-0.2-0.1-0.4-0.2-0.6-0.2c-2-0.8-4-1.7-5.9-2.7c-0.2-0.1-0.4-0.2-0.6-0.3c-1.9-1-3.8-2.1-5.6-3.2c-0.2-0.1-0.4-0.2-0.5-0.3
			c-1.8-1.2-3.5-2.4-5.3-3.7c-0.2-0.1-0.3-0.3-0.5-0.4c-1.1-0.8-2.1-1.7-3.1-2.6c-0.6-0.5-1.2-1.1-1.8-1.6c-0.2-0.1-0.3-0.3-0.5-0.4
			c-1.6-1.5-3.2-3.1-4.6-4.6c-0.1-0.2-0.3-0.3-0.5-0.5c-1.5-1.7-3-3.4-4.3-5.1c-0.1-0.2-0.3-0.4-0.4-0.5c-1.4-1.8-2.7-3.7-4-5.7
			c-0.1-0.2-0.3-0.4-0.4-0.6c-1.3-2-2.5-4.1-3.6-6.2c-0.1-0.2-0.2-0.4-0.3-0.6c-1.2-2.3-2.2-4.6-3.2-6.9c-0.1-0.2-0.2-0.5-0.3-0.7
			c-1-2.5-1.9-5.1-2.7-7.7c-0.1-0.3-0.2-0.5-0.2-0.8c-0.8-2.9-1.5-5.8-2-8.7c-0.1-0.3-0.1-0.6-0.2-0.9c-0.2-1.1-0.4-2.3-0.5-3.4
			c-0.3-2.2-0.5-4.4-0.7-6.6c0-0.4,0-0.7-0.1-1.1c-0.2-3.9-0.3-7.8-0.1-11.7c0-0.4,0-0.8,0.1-1.3c0.3-4.9,0.9-9.8,1.8-14.7
			c0.1-0.6,0.2-1.2,0.4-1.7c1.4-6.7,3.6-13.3,6.5-19.4c6.6-14,16.7-26.8,29.2-36.1c0.5-0.3,0.9-0.7,1.4-1c2.4-1.7,4.9-3.3,7.4-4.8
			c1.6-0.9,3.2-1.8,4.9-2.6c0.4-0.2,0.7-0.3,1.1-0.5c3.3-1.6,6.8-2.9,10.3-4.1c0.3-0.1,0.6-0.2,1-0.3c3-0.9,6.1-1.7,9.1-2.4
			c0.3-0.1,0.6-0.1,0.9-0.2c2.8-0.5,5.6-0.9,8.4-1.1c0.3,0,0.5-0.1,0.8-0.1c2.6-0.2,5.2-0.2,7.8-0.2c0.2,0,0.5,0,0.7,0
			c2.4,0.1,4.8,0.3,7.2,0.6c0.2,0,0.5,0.1,0.7,0.1c0.3,0,0.6,0.1,0.9,0.1c2,0.3,4,0.7,6,1.1c0.2,0,0.4,0.1,0.7,0.2
			c2.2,0.5,4.3,1.1,6.4,1.9c0.2,0.1,0.4,0.1,0.6,0.2c0.5,0.2,1,0.4,1.5,0.6c1.5,0.6,3,1.3,4.5,2c0.2,0.1,0.4,0.2,0.6,0.3
			c1.9,1,3.9,2,5.8,2.8c0.2,0.1,0.4,0.2,0.6,0.3c0.7,0.3,1.3,0.6,2,0.8c1.4,0.5,2.8,1,4.3,1.3c0.2,0.1,0.4,0.1,0.7,0.2
			c2.4,0.5,4.9,0.8,7.2,0.6c0.3,0,0.5,0,0.8-0.1c5.8-0.6,10.7-3.8,12.3-11.2c0.1-0.5,0.7-0.9,1.2-0.9c0.7,0,1.3,0,2,0
			c0.3,0,0.5,0,0.8,0c2.6-0.1,5.2-0.2,7.8-0.3c0.2,0,0.5,0,0.8,0c0.8,0,1.5,0,2.3,0c0.7,0,1.2,0.6,1.2,1.2c0,1.7,0,3.4,0,5.1
			c0,0.4,0,0.8,0,1.2c0,4,0,7.9,0,11.9c0,0.4,0,0.8,0,1.2c0,4,0,8-0.1,12c0,0.4,0,0.8,0,1.2c0,4,0,8,0,11.9c0,0.4,0,0.8,0,1.2
			c0,3.9,0,7.9,0,11.9c0,0.4,0,0.8,0,1.2c0,2.3,0,4.5,0,6.8c0,0.7-0.6,1.2-1.2,1.2c-1.3,0-2.7,0-4,0c-0.2,0-0.5,0-0.8,0
			c-2.5,0-5-0.1-7.6-0.1c-0.2,0-0.5,0-0.7,0c-1,0-1.9,0-2.9-0.1c-0.5,0-1.1-0.4-1.2-0.9c-0.2-1.1-0.5-2.3-0.8-3.4
			c-0.1-0.3-0.1-0.6-0.2-0.8c-0.7-2.6-1.6-5.1-2.7-7.6c-0.1-0.2-0.2-0.5-0.3-0.7c-1-2.2-2.2-4.4-3.4-6.5c-0.1-0.2-0.2-0.4-0.4-0.6
			c-1.2-2-2.6-3.9-4-5.7c-0.1-0.2-0.3-0.3-0.4-0.5c-1.4-1.7-2.9-3.4-4.4-5c-0.2-0.2-0.3-0.3-0.5-0.5c-1.6-1.5-3.2-3-4.9-4.3
			c-0.2-0.1-0.3-0.3-0.5-0.4c-1.7-1.3-3.4-2.6-5.3-3.7c-0.2-0.1-0.4-0.2-0.5-0.3c-1.8-1.1-3.7-2.2-5.7-3.1c-0.2-0.1-0.4-0.2-0.6-0.3
			c-2-0.9-4-1.7-6.1-2.4c-0.2-0.1-0.4-0.1-0.6-0.2c-2.2-0.7-4.4-1.2-6.6-1.6c-0.2,0-0.5-0.1-0.7-0.1c-2.4-0.4-4.8-0.6-7.2-0.7
			c-0.2,0-0.5,0-0.7,0c-2.7,0-5.3,0.2-8,0.6c-0.3,0-0.6,0.1-0.8,0.1c-0.5,0.1-0.9,0.2-1.4,0.3c-2.7,0.6-5.4,1.3-7.9,2.2
			c-0.3,0.1-0.7,0.3-1,0.4c-4.2,1.6-8,3.7-11.6,6.1c-0.5,0.3-0.9,0.7-1.4,1c-12,8.9-20,22.5-24.1,37.5c-0.2,0.7-0.4,1.3-0.5,2
			c-0.8,3.3-1.4,6.6-1.9,9.9c-0.3,2-0.5,3.9-0.6,5.9c0,0.4-0.1,0.9-0.1,1.3c-0.3,4-0.4,8.1-0.2,12.2c0,0.4,0,0.7,0.1,1.1
			c0.2,3.4,0.5,6.9,1,10.3c0,0.3,0.1,0.6,0.1,0.9c0.5,3,1.1,6,1.9,8.9c0.1,0.3,0.1,0.6,0.2,0.8c0.7,2.7,1.6,5.3,2.6,7.9
			c0.1,0.2,0.2,0.5,0.3,0.7c0.1,0.4,0.3,0.7,0.4,1.1c0.8,2,1.7,4,2.7,5.9c0.1,0.2,0.2,0.4,0.3,0.6c1.1,2.1,2.3,4.2,3.7,6.1
			c0.1,0.2,0.3,0.4,0.4,0.6c1.3,1.8,2.7,3.6,4.3,5.2c0.1,0.2,0.3,0.3,0.5,0.5c1,1.1,2.1,2.1,3.3,3c0.5,0.4,1.1,0.9,1.6,1.3
			c0.2,0.1,0.3,0.3,0.5,0.4c1.7,1.3,3.4,2.5,5.3,3.7c0.2,0.1,0.4,0.2,0.5,0.3c1.8,1.1,3.7,2.2,5.6,3.2c0.2,0.1,0.4,0.2,0.6,0.3
			c2,1,4,1.8,6,2.5c0.2,0.1,0.4,0.1,0.6,0.2c2.1,0.7,4.3,1.3,6.5,1.7c0.1,0,0.2,0,0.3,0c0.1,0,0.3,0,0.4,0.1
			c2.4,0.4,4.8,0.7,7.2,0.7c0.2,0,0.5,0,0.7,0c2.7,0,5.4-0.2,8-0.6c0.3,0,0.6-0.1,0.9-0.1c3.2-0.6,6.4-1.5,9.4-2.7
			c0.3-0.1,0.7-0.3,1-0.4c4.5-2,8.8-4.6,12.7-7.8c0.6-0.5,1.2-1,1.7-1.5c2.7-2.5,5.2-5.3,7.5-8.3c2.5-3.4,4.6-7.7,5.7-12.1
			c0.1-0.6,0.3-1.2,0.4-1.8c0.7-3.7,0.6-7.5-0.6-11c-0.1-0.3-0.2-0.5-0.3-0.8c-0.3-0.7-0.6-1.5-1-2.2c-0.8-1.4-1.8-2.7-2.8-3.7
			c-0.2-0.2-0.3-0.3-0.5-0.4c-1.6-1.5-3.5-2.6-5.5-3.4c-0.2-0.1-0.4-0.1-0.6-0.2c-2.1-0.8-4.4-1.2-6.8-1.3c-0.2,0-0.5,0-0.7,0
			c-1.1,0-2.2,0-3.3,0c-0.7,0-1.2-0.6-1.2-1.2c0-1.1-0.1-2.2-0.1-3.4c0-0.4,0-0.8,0-1.1c0-2.5-0.1-5-0.1-7.6c0-0.7,0.6-1.2,1.2-1.2
			c1.5,0,3-0.1,4.6-0.1c0.3,0,0.5,0,0.8,0c2.6,0,5.1-0.1,7.7-0.1c0.3,0,0.5,0,0.8,0c2.6,0,5.1-0.1,7.7-0.1c0.3,0,0.5,0,0.8,0
			c2.5,0,5.1,0,7.6,0c0.3,0,0.5,0,0.8,0c2.5,0,5.1,0,7.6,0c0.2,0,0.5,0,0.8,0c2.5,0,5.1,0,7.6,0.1c0.2,0,0.5,0,0.7,0
			c2.5,0,5.1,0,7.6,0.1c0.2,0,0.5,0,0.7,0c2.5,0,5.1,0,7.6,0.1c0.3,0,0.5,0,0.8,0c2.5,0,5.1,0,7.6,0.1c0.2,0,0.5,0,0.7,0
			c2.5,0,5.1,0,7.6,0c0.2,0,0.5,0,0.8,0c0.8,0,1.6,0,2.4,0c0.7,0,1.2,0.6,1.2,1.2c0,1.7,0,3.3-0.1,5c0,0.4,0,0.8,0,1.2
			C283.5,191.6,283.4,193.3,283.3,195z"/>
	</g>
	<g>
		<path d="M183.4,0C82.3,0,0,82.3,0,183.4s82.3,183.4,183.4,183.4c101.1,0,183.4-82.3,183.4-183.4C366.7,82.3,284.5,0,183.4,0z
			 M183.4,356.4c-95.4,0-173-77.6-173-173c0-95.4,77.6-173,173-173c95.4,0,173,77.6,173,173C356.4,278.8,278.8,356.4,183.4,356.4z"
			/>
	</g>
</g>
</svg>
