<?xml version="1.0" encoding="utf-8"?>
<!-- Generator: Adobe Illustrator 19.2.1, SVG Export Plug-In . SVG Version: 6.00 Build 0)  -->
<svg version="1.1" id="Layer_1" xmlns="http://www.w3.org/2000/svg" xmlns:xlink="http://www.w3.org/1999/xlink" x="0px" y="0px"
	 viewBox="0 0 402 398" enable-background="new 0 0 402 398" xml:space="preserve">
<g>
	<path d="M100.128,114.809c-5.749,8.94-11.494,17.869-17.245,26.806c-0.656,1.364-1.287,2.741-1.896,4.133
		c7.371-11.477,14.751-22.935,22.122-34.406C102.099,112.482,101.1,113.633,100.128,114.809z"/>
	<path d="M72.591,171.837c12.335-19.169,24.665-38.346,36.997-57.52c4.629-7.198,9.255-14.389,13.887-21.587
		c-0.487,0.358-0.976,0.724-1.46,1.092c-11.188,17.397-22.38,34.794-33.57,52.19c-5.155,8.02-10.308,16.034-15.466,24.052
		C72.846,170.653,72.716,171.246,72.591,171.837z"/>
	<path d="M70.196,188.601c15.106-23.488,30.219-46.977,45.326-70.468c7.425-11.539,14.848-23.085,22.272-34.627
		c-0.395,0.216-0.787,0.434-1.179,0.658c-14.076,21.89-28.158,43.78-42.237,65.669c-8.017,12.468-16.038,24.939-24.061,37.408
		C70.281,187.698,70.234,188.148,70.196,188.601z"/>
	<path d="M69.846,202.201c17.199-26.75,34.403-53.5,51.611-80.247c9.537-14.823,19.067-29.642,28.601-44.466
		c-0.356,0.151-0.704,0.313-1.051,0.459c-16.235,25.237-32.463,50.474-48.697,75.706c-10.151,15.794-20.315,31.599-30.482,47.396
		C69.835,201.43,69.835,201.819,69.846,202.201z"/>
	<path d="M70.557,212.967c0.031,0.331,0.076,0.658,0.108,0.995c8.66-13.449,17.308-26.908,25.958-40.357
		c0.169-0.659,0.341-1.315,0.521-1.971C88.272,185.411,79.417,199.184,70.557,212.967z"/>
	<path d="M161.111,73.349c-0.322,0.102-0.637,0.205-0.956,0.312c-9.975,15.502-19.938,30.998-29.91,46.499
		c0.527-0.436,1.05-0.876,1.589-1.305C141.588,103.691,151.352,88.522,161.111,73.349z"/>
	<path d="M72.131,223.562c0.06,0.3,0.111,0.605,0.171,0.903c7.129-11.088,14.264-22.172,21.393-33.263
		c0.046-0.466,0.09-0.929,0.147-1.391C86.598,201.058,79.363,212.313,72.131,223.562z"/>
	<path d="M171.346,70.48c-0.303,0.069-0.597,0.146-0.9,0.219c-8.441,13.117-16.867,26.239-25.312,39.358
		c0.385-0.213,0.767-0.429,1.159-0.637C154.645,96.442,162.993,83.46,171.346,70.48z"/>
	<path d="M74.338,233.177c0.071,0.273,0.144,0.556,0.222,0.825c6.255-9.729,12.518-19.465,18.774-29.192
		c-0.011-0.38-0.02-0.752-0.032-1.122C86.978,213.514,80.658,223.348,74.338,233.177z"/>
	<path d="M180.953,68.581c-0.281,0.047-0.571,0.098-0.851,0.142c-7.696,11.968-15.4,23.95-23.102,35.921
		c0.338-0.121,0.668-0.252,0.991-0.37C165.645,92.378,173.301,80.479,180.953,68.581z"/>
	<path d="M190.059,67.465c-0.271,0.024-0.528,0.043-0.792,0.069c-7.283,11.317-14.561,22.632-21.84,33.948
		c0.302-0.069,0.595-0.144,0.893-0.216C175.568,89.996,182.812,78.732,190.059,67.465z"/>
	<path d="M77.048,242.003c0.09,0.255,0.178,0.504,0.269,0.758c5.678-8.834,11.355-17.661,17.037-26.491
		c-0.051-0.324-0.088-0.65-0.133-0.971C88.496,224.196,82.771,233.1,77.048,242.003z"/>
	<path d="M80.184,250.172c0.102,0.233,0.207,0.466,0.305,0.697c5.278-8.193,10.542-16.391,15.813-24.584
		c-0.074-0.285-0.138-0.568-0.203-0.853C90.784,233.678,85.489,241.922,80.184,250.172z"/>
	<path d="M198.764,66.978c-0.256,0.005-0.513,0.011-0.76,0.018c-7.02,10.901-14.036,21.808-21.044,32.715
		c0.271-0.044,0.549-0.083,0.825-0.116C184.773,88.724,191.771,77.85,198.764,66.978z"/>
	<path d="M207.102,67.058c-0.247-0.005-0.488-0.02-0.736-0.026c-6.842,10.645-13.694,21.288-20.535,31.929
		c0.256-0.011,0.511-0.015,0.762-0.016C193.434,88.315,200.267,77.684,207.102,67.058z"/>
	<path d="M83.692,257.761c0.115,0.216,0.218,0.438,0.333,0.658c4.97-7.731,9.945-15.464,14.916-23.192
		c-0.091-0.25-0.187-0.499-0.271-0.753C93.676,242.233,88.685,249.993,83.692,257.761z"/>
	<path d="M87.519,264.851c0.114,0.205,0.24,0.413,0.36,0.61c0.271-0.417,0.537-0.835,0.806-1.247
		c4.483-6.98,8.976-13.954,13.457-20.928c-0.097-0.228-0.203-0.46-0.308-0.694C97.062,250.018,92.288,257.43,87.519,264.851z"/>
	<path d="M215.136,67.616c-0.236-0.025-0.479-0.036-0.717-0.061c-6.753,10.508-13.512,21.009-20.271,31.516
		c0.247,0.018,0.486,0.026,0.723,0.044C201.627,88.616,208.382,78.112,215.136,67.616z"/>
	<path d="M170.601,136.851c-0.424,0.252-0.837,0.519-1.26,0.781c-8.583,13.353-17.176,26.71-25.764,40.062
		c-0.135,0.588-0.262,1.171-0.384,1.762c6.609-10.265,13.204-20.523,19.808-30.786C165.534,144.73,168.067,140.788,170.601,136.851z
		"/>
	<path d="M91.64,271.488c0.13,0.193,0.251,0.39,0.384,0.58c0.864-1.348,1.729-2.692,2.595-4.038
		c3.744-5.817,7.48-11.63,11.222-17.441c-0.117-0.211-0.237-0.424-0.356-0.627C100.874,257.134,96.258,264.307,91.64,271.488z"/>
	<path d="M222.867,68.643c-0.228-0.039-0.457-0.077-0.681-0.12c-0.026,0.043-0.056,0.081-0.077,0.12
		c-6.712,10.437-13.427,20.869-20.137,31.304c0.229,0.033,0.453,0.079,0.687,0.122C209.394,89.588,216.126,79.114,222.867,68.643z"
		/>
	<path d="M182.194,131.874c-0.317,0.085-0.627,0.191-0.934,0.287c-11.164,17.343-22.308,34.683-33.468,52.023
		c-2.102,3.271-4.207,6.543-6.31,9.814c-0.02,0.412-0.031,0.831-0.052,1.247c9.171-14.252,18.334-28.507,27.506-42.757
		C173.352,145.613,177.772,138.742,182.194,131.874z"/>
	<path d="M191.674,130.176c-0.263,0.018-0.531,0.041-0.794,0.067c-12.384,19.254-24.766,38.506-37.152,57.762
		c-4.025,6.262-8.058,12.524-12.088,18.792c0.028,0.353,0.051,0.699,0.08,1.047c11.048-17.18,22.101-34.362,33.149-51.539
		C180.471,147.598,186.073,138.888,191.674,130.176z"/>
	<path d="M96.018,277.728c0.141,0.179,0.277,0.354,0.412,0.535c1.375-2.138,2.752-4.278,4.126-6.418
		c3.15-4.9,6.308-9.805,9.46-14.704c-0.133-0.185-0.264-0.371-0.396-0.56C105.084,263.629,100.556,270.673,96.018,277.728z"/>
	<path d="M230.332,70.074c-0.225-0.051-0.44-0.1-0.661-0.151c-0.547,0.85-1.087,1.698-1.629,2.537
		c-6.232,9.687-12.459,19.377-18.691,29.063c0.218,0.054,0.429,0.103,0.646,0.172C216.778,91.148,223.552,80.614,230.332,70.074z"/>
	<path d="M100.655,283.565c0.142,0.17,0.286,0.339,0.429,0.504c1.803-2.8,3.607-5.602,5.406-8.404
		c2.691-4.189,5.389-8.372,8.074-12.562c-0.138-0.17-0.278-0.342-0.415-0.511C109.647,269.579,105.15,276.572,100.655,283.565z"/>
	<path d="M199.931,130.382c-0.228-0.031-0.465-0.064-0.7-0.084c-13.188,20.508-26.384,41.013-39.562,61.527
		c-5.548,8.612-11.096,17.229-16.638,25.846c0.067,0.302,0.121,0.603,0.18,0.902c12.533-19.485,25.06-38.97,37.593-58.448
		C187.179,150.204,193.56,140.293,199.931,130.382z"/>
	<path d="M237.552,71.888c-0.21-0.061-0.428-0.117-0.638-0.179c-0.983,1.528-1.963,3.044-2.939,4.568
		c-5.896,9.161-11.789,18.331-17.684,27.497c0.187,0.082,0.393,0.165,0.591,0.254C223.776,93.312,230.666,82.597,237.552,71.888z"/>
	<path d="M244.538,74.074c-0.204-0.069-0.407-0.142-0.619-0.216c-1.331,2.081-2.669,4.159-4.008,6.238
		c-5.713,8.878-11.426,17.761-17.134,26.637c0.196,0.088,0.385,0.175,0.588,0.265C230.424,96.023,237.479,85.051,244.538,74.074z"/>
	<path d="M119.01,268.069c-4.491,6.992-8.989,13.98-13.492,20.972c0.15,0.164,0.301,0.326,0.447,0.483
		c2.154-3.347,4.305-6.697,6.466-10.047c2.337-3.639,4.688-7.288,7.029-10.933C119.31,268.389,119.165,268.227,119.01,268.069z"/>
	<path d="M207.356,131.887c-0.218-0.062-0.426-0.126-0.644-0.184c-13.7,21.312-27.405,42.623-41.119,63.934
		c-6.736,10.48-13.477,20.962-20.217,31.436c0.086,0.26,0.17,0.519,0.255,0.779c13.698-21.306,27.398-42.606,41.108-63.912
		C193.612,153.251,200.486,142.567,207.356,131.887z"/>
	<path d="M214.139,134.394c-0.195-0.09-0.396-0.174-0.591-0.26c-14.009,21.774-28.01,43.546-42.018,65.325
		c-7.668,11.926-15.351,23.855-23.019,35.784c0.102,0.227,0.21,0.455,0.316,0.676c14.613-22.719,29.23-45.438,43.844-68.161
		C199.828,156.639,206.977,145.52,214.139,134.394z"/>
	<path d="M110.6,294.19c0.161,0.142,0.312,0.293,0.471,0.442c2.428-3.779,4.856-7.559,7.293-11.334
		c2.102-3.271,4.209-6.54,6.307-9.814c-0.16-0.136-0.324-0.278-0.482-0.417C119.654,280.103,115.129,287.148,110.6,294.19z"/>
	<path d="M251.297,76.613c-0.202-0.082-0.399-0.167-0.594-0.244c-1.624,2.508-3.237,5.028-4.86,7.541
		c-5.495,8.549-10.995,17.1-16.486,25.643c0.203,0.082,0.397,0.157,0.601,0.236C237.073,98.733,244.183,87.668,251.297,76.613z"/>
	<path d="M257.837,79.485c-0.189-0.095-0.388-0.182-0.578-0.271c-1.825,2.837-3.649,5.677-5.48,8.517
		c-5.135,7.984-10.266,15.968-15.399,23.947c0.227,0.046,0.452,0.088,0.678,0.125C243.978,101.025,250.911,90.254,257.837,79.485z"
		/>
	<path d="M220.365,137.744c-0.182-0.106-0.36-0.219-0.535-0.328c-14.119,21.946-28.248,43.9-42.359,65.854
		c-8.377,13.023-16.75,26.042-25.131,39.06c0.127,0.203,0.253,0.401,0.374,0.595c15.301-23.783,30.598-47.571,45.893-71.35
		C205.861,160.297,213.115,149.023,220.365,137.744z"/>
	<path d="M115.902,298.985c0.167,0.141,0.33,0.275,0.491,0.414c2.636-4.095,5.266-8.19,7.898-12.283
		c1.963-3.048,3.918-6.095,5.875-9.132c-0.172-0.133-0.334-0.256-0.506-0.387C125.073,284.73,120.49,291.859,115.902,298.985z"/>
	<path d="M226.1,141.873c-0.165-0.133-0.331-0.27-0.494-0.399c-14.067,21.872-28.134,43.741-42.201,65.611
		c-8.85,13.759-17.699,27.514-26.54,41.269c0.145,0.159,0.293,0.324,0.442,0.482c15.743-24.479,31.488-48.964,47.233-73.443
		C211.727,164.219,218.911,153.047,226.1,141.873z"/>
	<path d="M264.169,82.678c-0.182-0.101-0.37-0.196-0.563-0.294c-1.962,3.052-3.932,6.107-5.895,9.164
		c-1.745,2.723-3.497,5.439-5.243,8.162c0.241,0.004,0.491,0.02,0.732,0.024C256.859,94.047,260.514,88.367,264.169,82.678z"/>
	<path d="M121.415,303.462c0.164,0.134,0.336,0.261,0.508,0.388c2.769-4.305,5.534-8.609,8.303-12.92
		c1.909-2.961,3.811-5.923,5.721-8.88c-0.18-0.121-0.359-0.236-0.535-0.351C130.745,288.953,126.083,296.207,121.415,303.462z"/>
	<path d="M127.128,307.624c0.172,0.124,0.347,0.239,0.525,0.362c2.836-4.413,5.677-8.821,8.511-13.237
		c1.954-3.035,3.9-6.069,5.857-9.101c-0.189-0.102-0.373-0.199-0.564-0.301C136.679,292.773,131.905,300.198,127.128,307.624z"/>
	<path d="M270.303,86.2c-0.182-0.116-0.362-0.224-0.547-0.332c-2.032,3.168-4.067,6.331-6.104,9.5
		c-0.919,1.426-1.837,2.854-2.756,4.282c0.256-0.01,0.515-0.013,0.769-0.023C264.544,95.155,267.421,90.672,270.303,86.2z"/>
	<path d="M231.348,146.759c-0.149-0.159-0.292-0.314-0.45-0.472c-13.851,21.54-27.708,43.077-41.561,64.62
		c-9.105,14.146-18.203,28.302-27.307,42.45c0.164,0.135,0.329,0.277,0.493,0.411c15.984-24.852,31.968-49.706,47.954-74.562
		C217.435,168.389,224.394,157.574,231.348,146.759z"/>
	<path d="M133.042,311.477c0.177,0.108,0.362,0.217,0.544,0.326c2.836-4.409,5.67-8.82,8.514-13.236
		c2.107-3.276,4.222-6.561,6.329-9.841c-0.198-0.085-0.393-0.169-0.59-0.257C142.909,296.138,137.979,303.806,133.042,311.477z"/>
	<path d="M236.084,152.444c-0.134-0.184-0.27-0.369-0.4-0.551c-13.477,20.946-26.942,41.887-40.411,62.83
		c-9.178,14.271-18.358,28.541-27.537,42.808c0.178,0.121,0.359,0.229,0.535,0.336c16.051-24.944,32.095-49.89,48.139-74.844
		C222.966,172.828,229.523,162.639,236.084,152.444z"/>
	<path d="M276.219,90.04c-0.172-0.121-0.351-0.244-0.52-0.362c-2.042,3.165-4.079,6.335-6.11,9.502
		c-0.082,0.117-0.151,0.225-0.22,0.342c0.251,0,0.499,0,0.752,0.002C272.152,96.364,274.189,93.2,276.219,90.04z"/>
	<path d="M281.935,94.199c-0.164-0.134-0.334-0.264-0.506-0.388c-1.849,2.88-3.707,5.762-5.567,8.647c0,0.395,0,0.781,0,1.174
		C277.889,100.485,279.912,97.338,281.935,94.199z"/>
	<path d="M210.645,203.869c-3.143,4.89-6.293,9.777-9.438,14.666c-9.091,14.135-18.178,28.269-27.269,42.402
		c0.189,0.088,0.39,0.175,0.584,0.267c12.047-18.733,24.102-37.465,36.136-56.195C210.652,204.629,210.652,204.253,210.645,203.869z
		"/>
	<path d="M139.166,315.002c0.185,0.101,0.375,0.195,0.557,0.3c2.772-4.31,5.541-8.619,8.312-12.919
		c2.378-3.697,4.759-7.397,7.144-11.1c-0.211-0.069-0.423-0.14-0.626-0.212C149.428,299.049,144.293,307.029,139.166,315.002z"/>
	<path d="M218.702,192.511c1.211-1.891,2.432-3.777,3.642-5.672c5.961-9.259,11.922-18.528,17.882-27.79
		c-0.116-0.212-0.229-0.427-0.349-0.637c-7.312,11.375-14.624,22.747-21.946,34.118
		C218.191,192.525,218.441,192.515,218.702,192.511z"/>
	<path d="M211.071,217.254c-0.02-0.313-0.037-0.618-0.052-0.926c-1.294,2.011-2.586,4.017-3.881,6.032
		c-8.827,13.718-17.652,27.442-26.479,41.167c0.21,0.067,0.42,0.136,0.631,0.195c9.929-15.447,19.863-30.893,29.802-46.335
		C211.086,217.34,211.071,217.298,211.071,217.254z"/>
	<path d="M227.193,192.357c0.36-0.568,0.722-1.132,1.091-1.7c5.108-7.939,10.216-15.881,15.319-23.82
		c-0.08-0.257-0.176-0.503-0.268-0.762c-5.634,8.765-11.271,17.531-16.909,26.292C226.683,192.363,226.936,192.36,227.193,192.357z"
		/>
	<path d="M287.447,98.668c-0.155-0.143-0.319-0.275-0.483-0.415c-1.843,2.851-3.676,5.71-5.518,8.564
		c-1.849,2.89-3.707,5.778-5.572,8.675c0,0.385,0,0.778,0,1.169C279.73,110.666,283.595,104.667,287.447,98.668z"/>
	<path d="M145.494,318.201c0.189,0.096,0.387,0.183,0.578,0.271c2.64-4.089,5.265-8.182,7.897-12.269
		c2.764-4.294,5.526-8.587,8.283-12.88c-0.216-0.056-0.436-0.113-0.651-0.167C156.232,301.499,150.865,309.854,145.494,318.201z"/>
	<path d="M292.759,103.455c-0.157-0.146-0.314-0.293-0.471-0.436c-1.64,2.54-3.266,5.073-4.897,7.612
		c-3.854,5.988-7.706,11.976-11.554,17.964c-0.008,0.396-0.008,0.789-0.008,1.179C281.475,121.003,287.113,112.228,292.759,103.455z
		"/>
	<path d="M235.634,192.269c3.395-5.277,6.79-10.555,10.184-15.835c-0.04-0.319-0.079-0.646-0.123-0.973
		c-3.605,5.608-7.216,11.208-10.82,16.815C235.132,192.276,235.38,192.269,235.634,192.269z"/>
	<path d="M217.469,219.338c-1.464,2.277-2.931,4.559-4.396,6.834c-8.36,13.001-16.723,26.004-25.09,39.01
		c0.234,0.027,0.467,0.063,0.699,0.092c9.857-15.333,19.728-30.662,29.585-45.998C217.998,219.295,217.726,219.316,217.469,219.338z
		"/>
	<path d="M152.032,321.08c0.198,0.084,0.395,0.164,0.597,0.244c2.423-3.767,4.852-7.539,7.273-11.31
		c3.252-5.055,6.504-10.117,9.764-15.179c-0.224-0.037-0.455-0.078-0.674-0.118C163.344,303.506,157.683,312.292,152.032,321.08z"/>
	<path d="M297.849,108.595c-0.156-0.163-0.299-0.322-0.447-0.481c-1.36,2.111-2.718,4.225-4.079,6.338
		c-5.847,9.096-11.705,18.187-17.544,27.284c-0.007,0.395-0.007,0.791-0.007,1.179C283.123,131.473,290.488,120.039,297.849,108.595
		z"/>
	<path d="M158.787,323.628c0.202,0.067,0.409,0.143,0.617,0.218c2.145-3.34,4.288-6.678,6.433-10.01
		c3.859-6.004,7.719-12.005,11.588-18.008c-0.245-0.021-0.479-0.047-0.719-0.073C170.734,305.05,164.758,314.336,158.787,323.628z"
		/>
	<path d="M243.289,192.246c0.25,0,0.498,0,0.758,0c2.746-4.287,5.507-8.572,8.263-12.855c-0.248,0-0.496-0.005-0.749-0.012
		C248.806,183.671,246.048,187.959,243.289,192.246z"/>
	<path d="M225.58,219.778c-2.193,3.409-4.378,6.811-6.57,10.209c-7.622,11.854-15.244,23.706-22.871,35.556
		c0.271-0.018,0.534-0.032,0.786-0.051c9.769-15.177,19.53-30.361,29.289-45.534C226.005,219.893,225.788,219.832,225.58,219.778z"
		/>
	<path d="M302.71,114.069c-0.143-0.169-0.28-0.341-0.425-0.508c-1.007,1.569-2.016,3.136-3.029,4.706
		c-7.834,12.188-15.681,24.377-23.518,36.564c0,0.39,0,0.783,0,1.176C284.731,142.029,293.724,128.049,302.71,114.069z"/>
	<path d="M165.766,325.822c0.211,0.059,0.427,0.117,0.638,0.172c1.79-2.775,3.576-5.562,5.368-8.343
		c4.581-7.124,9.166-14.245,13.745-21.371c-0.248-0.007-0.497-0.007-0.745-0.01C178.436,306.119,172.097,315.973,165.766,325.822z"
		/>
	<path d="M231.678,223.336c-2.244,3.493-4.484,6.982-6.727,10.473c-6.439,10.008-12.88,20.018-19.314,30.025
		c0.316-0.1,0.631-0.195,0.945-0.302c8.503-13.225,17.009-26.45,25.517-39.672C231.967,223.681,231.822,223.502,231.678,223.336z"/>
	<path d="M251.666,192.259c0.255,0,0.506,0.003,0.756,0.003c2.724-4.234,5.439-8.47,8.174-12.701
		c-0.254-0.005-0.502-0.01-0.75-0.013C257.121,183.782,254.392,188.023,251.666,192.259z"/>
	<path d="M260.023,192.308c0.25,0.005,0.506,0.005,0.754,0.007c2.736-4.259,5.475-8.515,8.21-12.776
		c-0.247,0.01-0.504,0.018-0.76,0.022C265.492,183.805,262.754,188.064,260.023,192.308z"/>
	<path d="M230.883,237.621c-4.285,6.669-8.579,13.336-12.865,20c0.513-0.376,1.01-0.768,1.511-1.165
		c4.934-7.68,9.874-15.357,14.808-23.032c0.046-0.438,0.08-0.881,0.095-1.312C233.238,233.945,232.058,235.789,230.883,237.621z"/>
	<path d="M172.981,327.643c0.219,0.049,0.438,0.092,0.663,0.143c1.348-2.104,2.708-4.211,4.061-6.32
		c5.421-8.424,10.843-16.854,16.268-25.286c-0.256,0.021-0.518,0.024-0.779,0.038C186.455,306.69,179.721,317.165,172.981,327.643z"
		/>
	<path d="M307.353,119.896c-0.135-0.177-0.27-0.354-0.406-0.532c-0.585,0.902-1.171,1.811-1.754,2.718
		c-9.808,15.249-19.615,30.495-29.415,45.742c0,0.383,0.005,0.771,0.013,1.154C286.31,152.619,296.828,136.255,307.353,119.896z"/>
	<path d="M180.449,329.08c0.223,0.036,0.452,0.08,0.677,0.111c0.841-1.3,1.675-2.606,2.513-3.901
		c6.471-10.062,12.938-20.119,19.405-30.169c-0.273,0.044-0.557,0.085-0.842,0.126C194.951,306.527,187.696,317.802,180.449,329.08z
		"/>
	<path d="M311.736,126.124c-0.126-0.193-0.247-0.393-0.381-0.58c-0.076,0.115-0.149,0.239-0.228,0.359
		c-14.253,22.159-28.51,44.314-42.762,66.476c0.251,0.005,0.5,0.005,0.755,0.012C283.326,170.303,297.532,148.213,311.736,126.124z"
		/>
	<path d="M188.168,330.113c0.237,0.028,0.473,0.045,0.717,0.065c0.231-0.356,0.457-0.715,0.691-1.077
		c7.782-12.099,15.562-24.199,23.346-36.299c-0.308,0.09-0.617,0.177-0.925,0.269C204.056,305.42,196.111,317.766,188.168,330.113z"
		/>
	<path d="M315.866,132.754c-0.12-0.208-0.244-0.406-0.362-0.614c-12.936,20.108-25.862,40.216-38.803,60.326
		c0.251,0,0.503,0.003,0.758,0.007C290.257,172.567,303.06,152.662,315.866,132.754z"/>
	<path d="M319.699,139.838c-0.111-0.218-0.218-0.44-0.329-0.663c-11.442,17.797-22.888,35.582-34.329,53.375
		c0.247,0,0.502,0.002,0.753,0.007C297.099,174.982,308.397,157.41,319.699,139.838z"/>
	<path d="M196.197,330.685c0.243,0.007,0.486,0.016,0.734,0.028c8.953-13.916,17.901-27.836,26.848-41.753
		c-0.332,0.143-0.676,0.284-1.023,0.429C213.899,303.15,205.053,316.916,196.197,330.685z"/>
	<path d="M204.528,330.773c0.258-0.008,0.511-0.008,0.762-0.01c10.148-15.783,20.302-31.561,30.444-47.345
		c-0.362,0.18-0.737,0.365-1.094,0.543C224.604,299.565,214.567,315.168,204.528,330.773z"/>
	<path d="M323.218,147.411c-0.099-0.231-0.21-0.461-0.308-0.694c-9.841,15.298-19.682,30.6-29.519,45.896
		c0.249,0.003,0.496,0.009,0.753,0.009C303.836,177.554,313.521,162.484,323.218,147.411z"/>
	<path d="M213.22,330.302c0.267-0.022,0.529-0.048,0.801-0.067c10.862-16.893,21.72-33.777,32.584-50.67
		c-0.269,0.017-0.539,0.052-0.806,0.083C234.943,296.534,224.086,313.419,213.22,330.302z"/>
	<path d="M326.355,155.57c-0.086-0.253-0.177-0.507-0.263-0.757c-8.114,12.616-16.227,25.229-24.341,37.842
		c0.249,0.003,0.499,0.003,0.751,0.003C310.456,180.298,318.407,167.931,326.355,155.57z"/>
	<path d="M222.319,329.196c0.286-0.042,0.562-0.095,0.843-0.138c10.076-15.664,20.154-31.336,30.237-47.007
		c-0.141-0.181-0.276-0.362-0.421-0.521C242.757,297.417,232.536,313.31,222.319,329.196z"/>
	<path d="M283.721,233.735c-0.146,0.591-0.276,1.188-0.395,1.785c1.435-2.235,2.869-4.459,4.3-6.688
		c1.878-2.923,3.753-5.839,5.633-8.759c-0.37,0.157-0.73,0.326-1.084,0.512C289.361,224.971,286.535,229.355,283.721,233.735z"/>
	<path d="M308.481,196.404c6.872-10.667,13.732-21.35,20.607-32.028c-0.08-0.269-0.154-0.551-0.23-0.824
		c-6.774,10.544-13.558,21.082-20.33,31.616c-0.008,0.026,0,0.05,0,0.074C308.513,195.627,308.503,196.019,308.481,196.404z"/>
	<path d="M282.218,249.117c-0.007,0.396-0.013,0.796-0.013,1.19c3.787-5.884,7.569-11.771,11.361-17.659
		c2.969-4.614,5.938-9.233,8.909-13.854c-0.242-0.013-0.486-0.026-0.73-0.041C295.235,228.871,288.722,238.998,282.218,249.117z"/>
	<path d="M231.912,327.316c0.302-0.066,0.602-0.143,0.902-0.211c7.828-12.181,15.662-24.362,23.491-36.533
		c-0.062-0.28-0.131-0.564-0.196-0.866C248.042,302.242,239.981,314.784,231.912,327.316z"/>
	<path d="M331.3,173.976c-0.059-0.298-0.112-0.603-0.172-0.903c-7.64,11.881-15.281,23.757-22.917,35.626
		c-0.015,0.419-0.024,0.828-0.039,1.241C315.879,197.947,323.591,185.961,331.3,173.976z"/>
	<path d="M299.504,236.465c11.122-17.302,22.257-34.606,33.383-51.913c-0.031-0.331-0.079-0.662-0.111-0.992
		c-16.721,25.998-33.445,51.991-50.165,77.985c0.026,0.357,0.046,0.714,0.074,1.067
		C288.287,253.899,293.895,245.181,299.504,236.465z"/>
	<path d="M242.141,324.468c0.314-0.102,0.638-0.203,0.952-0.311c6.533-10.156,13.076-20.322,19.607-30.483c-0.249,0-0.498,0-0.753,0
		C255.349,303.935,248.746,314.208,242.141,324.468z"/>
	<path d="M253.169,320.363c0.346-0.145,0.704-0.305,1.051-0.457c5.626-8.742,11.251-17.489,16.872-26.233c-0.249,0-0.503,0-0.758,0
		C264.617,302.576,258.889,311.471,253.169,320.363z"/>
	<path d="M305.435,240.281c9.4-14.615,18.798-29.231,28.201-43.849c-0.005-0.382-0.005-0.765-0.02-1.144
		c-16.444,25.568-32.881,51.123-49.325,76.688c-0.269,0.424-0.54,0.842-0.809,1.263c0.028,0.347,0.053,0.694,0.08,1.049
		C290.85,262.953,298.143,251.615,305.435,240.281z"/>
	<path d="M311.37,244.095c7.268-11.299,14.54-22.601,21.805-33.9c0.043-0.455,0.085-0.903,0.111-1.354
		c-14.347,22.315-28.707,44.635-43.059,66.952c-1.999,3.104-3.986,6.204-5.992,9.306c0.022,0.366,0.029,0.746,0.052,1.115
		C293.31,272.175,302.338,258.138,311.37,244.095z"/>
	<path d="M265.4,314.393c0.393-0.216,0.792-0.434,1.181-0.654c4.3-6.692,8.6-13.381,12.904-20.065c-0.258,0-0.507,0-0.762,0
		C274.286,300.585,269.844,307.488,265.4,314.393z"/>
	<path d="M330.961,225.499c-11.594,18.034-23.195,36.073-34.801,54.117c-5.502,8.546-10.995,17.097-16.497,25.644
		c0.486-0.353,0.965-0.712,1.442-1.076c12.068-18.749,24.139-37.509,36.196-56.267c4.426-6.882,8.85-13.766,13.276-20.643
		C330.707,226.684,330.848,226.092,330.961,225.499z"/>
	<path d="M299.723,287.116c0.986-1.086,1.947-2.201,2.889-3.319c6.15-9.558,12.297-19.118,18.448-28.674
		c0.622-1.313,1.22-2.632,1.797-3.966c-6.918,10.754-13.843,21.514-20.764,32.276C301.308,284.656,300.513,285.89,299.723,287.116z"
		/>
	<path d="M47.011,177.218l17.42,3.525c0.669,0.133,1.287-0.005,1.845-0.419c0.56-0.413,0.908-0.972,1.05-1.677l2.555-12.611
		c0.137-0.709,0.038-1.362-0.316-1.965c-0.354-0.595-0.864-0.961-1.542-1.098l-5.113-1.033l-4.711-0.952l-1.693,8.351l4.714,0.953
		l0.645-3.189l2.783,0.564l-1.503,7.44l-12.754-2.579l1.501-7.44l2.831,0.573l1.044-5.168l-5.163-1.041
		c-0.677-0.136-1.293,0.003-1.85,0.414c-0.558,0.416-0.904,0.978-1.051,1.685l-2.544,12.606c-0.148,0.713-0.043,1.362,0.314,1.959
		C45.821,176.717,46.341,177.087,47.011,177.218z"/>
	<rect x="60.862" y="137.667" transform="matrix(0.3412 -0.94 0.94 0.3412 -98.1658 157.8439)" width="5.322" height="22.573"/>
	<polygon points="81.295,136.396 67.977,128.879 86.271,127.582 88.549,123.534 68.896,112.439 66.281,117.068 75.729,122.401 
		62.777,123.276 59.048,129.886 78.7,140.982 	"/>
	<polygon points="104.219,104.249 100.602,101.173 93.007,110.108 89.902,107.467 94.076,102.545 90.452,99.468 86.277,104.392 
		83.128,101.72 90.716,92.779 87.019,89.632 76.05,102.55 93.256,117.16 	"/>
	<polygon points="121.464,89.257 118.391,85.555 110.761,91.884 99.42,78.21 95.285,81.645 109.693,99.018 	"/>
	<polygon points="140.947,77.288 138.535,73.136 129.955,78.099 121.061,62.72 116.413,65.411 127.714,84.946 	"/>
	<polygon points="164.079,68.12 162.456,63.655 151.435,67.664 150.043,63.831 156.109,61.618 154.48,57.155 148.415,59.362 
		147.006,55.483 158.02,51.473 156.366,46.908 140.443,52.699 148.158,73.91 	"/>
	<path d="M200.003,62.747c0.731-0.048,1.333-0.315,1.812-0.791c0.491-0.48,0.709-1.069,0.663-1.752l-1.186-17.729
		c-0.046-0.691-0.341-1.243-0.887-1.672c-0.552-0.432-1.188-0.622-1.905-0.571l-15.2,1.02l1.51,22.512L200.003,62.747z
		 M196.146,45.251l0.865,12.934l-7.267,0.49l-0.86-12.934L196.146,45.251z"/>
	<polygon points="228.168,60.154 216.52,58.766 216.997,54.715 223.413,55.48 223.975,50.757 217.56,50 218.049,45.895 
		229.695,47.275 230.267,42.458 213.441,40.455 210.777,62.871 227.602,64.872 	"/>
	<path d="M242.13,63.108l7.971,2.553l0.051,5.602l5.205,1.673l-0.157-23.701l-7.721-2.476l-13.909,19.189l5.21,1.676L242.13,63.108z
		 M249.912,52.531l0.094,8.002l-4.865-1.561L249.912,52.531z"/>
	<polygon points="272.904,64.767 274.257,83.053 278.31,85.328 289.347,65.635 284.707,63.035 279.401,72.499 278.487,59.552 
		271.858,55.843 260.823,75.529 265.425,78.102 	"/>
	<polygon points="288.093,92.904 292.175,96.305 303.577,82.608 307.587,85.947 310.626,82.289 298.521,72.212 295.483,75.869 
		299.487,79.209 	"/>
	<path d="M302.602,105.045c-0.008,0.683,0.215,1.3,0.678,1.857l8.314,9.885c0.459,0.555,1.028,0.881,1.705,0.992
		c0.68,0.106,1.273-0.062,1.799-0.501l13.646-11.465c0.504-0.418,0.768-0.976,0.789-1.672c0.017-0.694-0.196-1.323-0.663-1.875
		l-8.305-9.883c-0.465-0.555-1.047-0.881-1.725-0.975c-0.697-0.1-1.29,0.066-1.789,0.483l-13.646,11.465
		C302.882,103.796,302.611,104.364,302.602,105.045z M318.615,97.526l4.845,5.776l-9.917,8.336l-4.858-5.771L318.615,97.526z"/>
	<polygon points="320.631,130.439 334.074,123.153 325.456,139.338 327.67,143.422 347.512,132.669 344.978,127.991 
		335.442,133.161 341.586,121.722 337.971,115.049 318.126,125.802 	"/>
	<rect x="330.969" y="147.971" transform="matrix(0.9435 -0.3315 0.3315 0.9435 -30.5813 121.9751)" width="22.575" height="5.32"/>
	<path d="M344.669,163.711c-0.345,0.62-0.443,1.282-0.294,1.991l1.634,7.731l-4.143,0.874l-2.183-10.357l-4.701,0.989l2.741,12.99
		c0.147,0.706,0.501,1.27,1.064,1.674c0.564,0.411,1.182,0.547,1.852,0.402l8.849-1.874c0.67-0.14,1.182-0.512,1.531-1.109
		c0.349-0.601,0.446-1.261,0.294-1.965l-1.631-7.73l3.889-0.827l2.178,10.31l4.701-0.994l-2.729-12.935
		c-0.15-0.704-0.513-1.276-1.077-1.696c-0.564-0.431-1.163-0.577-1.803-0.438l-8.639,1.819
		C345.525,162.717,345.013,163.094,344.669,163.711z"/>
	<circle cx="50.889" cy="202.261" r="7.62"/>
	<circle cx="353.262" cy="202.258" r="7.62"/>
	<path d="M62.717,245.389l-2.139-8.251l-4.649,1.202l0.815,3.155l-2.75,0.714l-1.903-7.352l12.603-3.267l1.902,7.354l-2.803,0.725
		l1.321,5.094l5.1-1.321c0.67-0.173,1.163-0.564,1.485-1.179c0.319-0.617,0.386-1.278,0.204-1.977l-3.225-12.444
		c-0.182-0.707-0.557-1.244-1.142-1.628c-0.578-0.388-1.202-0.496-1.864-0.32l-17.204,4.462c-0.669,0.175-1.157,0.567-1.479,1.184
		c-0.322,0.615-0.385,1.272-0.209,1.973l3.231,12.449c0.175,0.704,0.563,1.243,1.142,1.626c0.578,0.38,1.203,0.489,1.872,0.319
		l5.039-1.312L62.717,245.389z"/>
	<path d="M70.15,272.284c0.641,0.272,1.272,0.252,1.896-0.047l9.023-4.34c0.592-0.283,0.979-0.761,1.185-1.429
		c0.196-0.667,0.123-1.343-0.206-2.025l-6.649-13.822l-20.344,9.779l2.314,4.796l6.984-3.359l1.654,3.451l-4.748,8.006l2.685,5.59
		l4.749-8.01C69.019,271.548,69.506,272.022,70.15,272.284z M68.678,259.757l4.7-2.262l3.202,6.656l-4.705,2.265L68.678,259.757z"/>
	<path d="M91.22,279.1l-22.423,7.671l3.295,4.37l5.337-1.761l5.033,6.681l-3.189,4.608l3.302,4.367l13.531-19.457L91.22,279.1z
		 M85.347,291.814l-3.081-4.082l7.622-2.51L85.347,291.814z"/>
	<path d="M117.924,308.231c-0.08-0.689-0.388-1.275-0.93-1.757l-11.566-10.229l-14.955,16.911l4.023,3.556l5.139-5.805l7.545,6.678
		c0.537,0.474,1.159,0.716,1.849,0.707c0.695-0.011,1.273-0.27,1.732-0.786l6.64-7.509
		C117.832,309.516,118.009,308.926,117.924,308.231z M108.347,312.202l-5.534-4.89l3.46-3.906l5.532,4.889L108.347,312.202z"/>
	<polygon points="131.348,328.144 125.022,324.432 130.167,315.653 125.585,312.962 114.163,332.431 118.746,335.126 
		122.592,328.576 128.911,332.286 125.073,338.838 129.569,341.476 140.99,322.004 136.494,319.369 	"/>
	
		<rect x="136.739" y="334.523" transform="matrix(0.3698 -0.9291 0.9291 0.3698 -219.9932 350.017)" width="22.573" height="5.315"/>
	<path d="M177.102,334.035l-11.419-2.672c-0.732-0.172-1.394-0.092-1.986,0.243c-0.593,0.336-0.971,0.851-1.128,1.514l-4.058,17.3
		c-0.159,0.674-0.048,1.279,0.344,1.824c0.377,0.554,0.934,0.919,1.679,1.091l11.414,2.681c0.735,0.168,1.403,0.1,2.014-0.222
		c0.6-0.315,0.982-0.811,1.137-1.479l1.193-5.079l-5.171-1.217l-0.655,2.769l-6.29-1.479l2.967-12.621l6.29,1.478l-0.649,2.767
		l5.169,1.217l1.212-5.13c0.158-0.675,0.036-1.294-0.362-1.862C178.409,334.587,177.846,334.212,177.102,334.035z"/>
	<path d="M218.884,336.306c-0.54-0.436-1.174-0.63-1.896-0.591l-15.209,0.888l1.308,22.528l15.21-0.882
		c0.726-0.043,1.329-0.302,1.815-0.776c0.491-0.477,0.714-1.06,0.677-1.747l-1.023-17.743
		C219.719,337.304,219.431,336.738,218.884,336.306z M208.072,354.082l-0.754-12.939l7.272-0.424l0.749,12.943L208.072,354.082z"/>
	<polygon points="237.821,350.102 236.816,346.141 243.071,344.557 241.903,339.947 235.65,341.534 234.634,337.537 
		245.987,334.646 244.792,329.941 228.374,334.113 233.935,355.992 250.355,351.817 249.184,347.21 	"/>
	<path d="M271.984,330.33c-0.29-0.626-0.77-1.043-1.433-1.245c-0.662-0.206-1.325-0.158-1.977,0.146l-7.175,3.322l-1.674-3.611
		l9.57-4.424l-2.022-4.358l-11.999,5.549c-0.657,0.308-1.128,0.781-1.417,1.428c-0.294,0.647-0.294,1.264-0.025,1.858l3.712,8.019
		c0.291,0.625,0.771,1.031,1.452,1.231c0.676,0.199,1.344,0.144,2.004-0.159l7.174-3.319l1.781,3.845l-9.615,4.444l2.02,4.365
		l12.05-5.58c0.659-0.307,1.116-0.774,1.395-1.408c0.271-0.645,0.259-1.275-0.027-1.898L271.984,330.33z"/>
	<rect x="280.995" y="312.073" transform="matrix(0.8378 -0.5459 0.5459 0.8378 -130.528 207.2824)" width="5.32" height="22.572"/>
	<path d="M310.587,306.409l-3.196-3.581l-6.353,5.674l3.196,3.582l2.428-2.166l1.888,2.119l-5.662,5.055l-8.671-9.7l5.663-5.066
		l1.924,2.161l3.934-3.509l-3.511-3.93c-0.46-0.514-1.03-0.775-1.729-0.775c-0.693-0.003-1.31,0.236-1.85,0.719l-9.592,8.565
		c-0.542,0.486-0.844,1.069-0.926,1.759c-0.068,0.695,0.12,1.297,0.572,1.806l11.841,13.253c0.461,0.513,1.037,0.774,1.736,0.774
		c0.692,0.004,1.31-0.238,1.842-0.715l9.6-8.57c0.537-0.479,0.844-1.074,0.917-1.764c0.077-0.685-0.111-1.294-0.569-1.805
		L310.587,306.409z"/>
	<polygon points="314.843,277.726 323.527,284.226 310.569,283.427 306.014,289.5 324.076,303.038 327.234,298.821 315.008,289.655 
		333.308,290.722 336.096,287 318.039,273.463 	"/>
	<polygon points="340.661,268.904 336.977,267.151 339.761,261.327 335.474,259.278 332.691,265.103 328.962,263.319 
		334.015,252.744 329.632,250.648 322.33,265.935 342.693,275.667 349.999,260.377 345.716,258.33 	"/>
	<path d="M350.592,229.344c-0.315-0.62-0.814-1.009-1.48-1.184l-9.699-2.507c-0.638-0.162-1.24-0.053-1.818,0.326
		c-0.584,0.388-0.963,0.946-1.155,1.678l-3.839,14.857l21.858,5.646l1.324-5.156l-7.498-1.936l0.955-3.702l8.796-3.062l1.549-6.002
		l-8.796,3.062C350.977,230.634,350.919,229.956,350.592,229.344z M343.631,239.869l-5.046-1.309l1.844-7.148l5.053,1.303
		L343.631,239.869z"/>
	<g>
		<path d="M188.605,286.742c-1.834-0.011-3.738-0.071-5.819-0.185l-0.727-0.036c-2.436-0.15-4.833-0.383-7.122-0.682l-0.683-0.098
			c-2.285-0.319-4.562-0.719-6.782-1.193l-0.65-0.149c-2.185-0.481-4.365-1.058-6.46-1.694l-0.62-0.193
			c-2.071-0.652-4.133-1.392-6.132-2.194l-0.595-0.24c-1.941-0.805-3.896-1.702-5.806-2.683l-0.561-0.288
			c-1.835-0.956-3.693-2.023-5.506-3.165l-0.534-0.326c-1.41-0.905-2.57-1.691-3.661-2.476c-0.36-0.257-0.709-0.522-1.06-0.792
			l-0.976-0.75c-1.655-1.274-3.303-2.656-4.897-4.111l-0.467-0.428c-1.562-1.447-3.104-2.996-4.573-4.607l-0.44-0.482
			c-1.457-1.611-2.887-3.339-4.247-5.12l-0.408-0.525c-1.357-1.808-2.662-3.722-3.892-5.674c0,0-0.31-0.48-0.375-0.581
			c-1.253-2.042-2.434-4.154-3.504-6.27c-0.058-0.113-0.108-0.232-0.162-0.339c-0.056-0.111-0.105-0.227-0.162-0.331
			c-1.094-2.229-2.122-4.576-3.056-6.979c-0.094-0.237-0.185-0.479-0.276-0.724c-0.986-2.627-1.841-5.245-2.526-7.799l-0.091-0.308
			c-0.023-0.086-0.128-0.512-0.128-0.512c-0.734-2.822-1.352-5.815-1.833-8.896c0,0-0.114-0.747-0.15-0.932
			c-0.482-3.311-0.791-6.779-0.936-10.293l-0.021-0.432c-0.008-0.217-0.016-0.435-0.028-0.658
			c-0.115-4.097,0.007-8.246,0.375-12.333c0.028-0.283,0.052-0.566,0.089-0.859l0.054-0.527c0.578-5.649,1.603-11.201,3.048-16.488
			c0.171-0.633,0.357-1.26,0.537-1.879l0.074-0.235c0.604-2.04,1.182-3.801,1.752-5.391c4.83-13.316,13.681-26.136,24.933-36.086
			c0.55-0.491,1.108-0.966,1.673-1.444c3.717-3.136,7.642-5.944,11.673-8.357c0.655-0.393,1.317-0.78,1.986-1.146
			c0.382-0.211,0.769-0.424,1.149-0.635c3.39-1.817,6.961-3.419,10.594-4.755l0.12-0.04c0.285-0.106,0.569-0.207,0.852-0.308
			c3.029-1.062,6.132-1.949,9.244-2.645c0.19-0.041,0.866-0.18,0.866-0.18c2.764-0.584,5.587-1.028,8.391-1.318
			c0,0,0.596-0.064,0.789-0.08c2.452-0.229,4.932-0.349,7.369-0.349l0.395,0.005c0.157,0,0.733,0.01,0.733,0.01
			c2.462,0.039,4.902,0.187,7.253,0.442l0.691,0.085c2.294,0.269,4.588,0.652,6.813,1.125l0.651,0.139
			c1.251,0.277,2.468,0.583,3.608,0.894c0.814,0.219,1.693,0.503,2.748,0.873l0.615,0.21c1.744,0.633,3.581,1.405,5.94,2.482
			l2.291,1.061c1.393,0.646,2.797,1.294,4.205,1.913l0.591,0.264c2.286,0.989,4.334,1.757,6.271,2.338
			c0.213,0.063,0.431,0.127,0.646,0.19c2.357,0.669,4.542,1.061,6.692,1.211c0.091,0.008,0.182,0.008,0.273,0.008h0.141
			c0.262,0.013,0.518,0.018,0.772,0.018l0.205,0.005c3.543,0,6.894-0.961,9.689-2.79c0.535-0.354,1.056-0.729,1.522-1.115
			c2.606-2.161,4.532-5.115,5.592-8.567c1.668-0.028,3.303-0.087,4.889-0.144c0.776-0.024,3.107-0.1,3.107-0.1
			c0.545-0.02,1.097-0.029,1.649-0.036c0.005,2.235,0,4.465,0,6.7v1.179c-0.016,3.98-0.026,7.958-0.056,11.935l-0.062,14.324
			c-0.015,3.977-0.029,7.948-0.029,11.921v1.176c0,3.938,0.015,7.869,0.047,11.808l0.007,1.895l-2.022,0.007
			c-1.982,0-4.083-0.025-6.42-0.071l-0.747-0.013c-0.872-0.015-1.743-0.036-2.626-0.061c-0.295-1.31-0.637-2.625-1.028-3.925
			c-0.061-0.203-0.121-0.406-0.193-0.607l-0.062-0.19c-0.797-2.556-1.773-5.089-2.924-7.521c-0.107-0.236-0.21-0.459-0.322-0.693
			c-1.061-2.213-2.278-4.391-3.602-6.465l-0.382-0.595c-1.272-1.95-2.664-3.846-4.136-5.639l-0.433-0.52
			c-1.424-1.708-2.967-3.367-4.583-4.932l-0.465-0.459c-1.567-1.494-3.247-2.939-4.995-4.293l-0.512-0.395
			c-1.74-1.331-3.553-2.569-5.382-3.696l-0.552-0.329c-1.87-1.12-3.823-2.156-5.785-3.078l-0.586-0.275
			c-1.992-0.912-4.087-1.732-6.195-2.433c-0.234-0.074-0.43-0.143-0.633-0.207c-2.188-0.701-4.429-1.282-6.664-1.724
			c-0.224-0.042-0.457-0.088-0.683-0.126c-2.377-0.442-4.806-0.74-7.208-0.874c-0.242-0.018-0.491-0.033-0.734-0.049
			c-0.861-0.036-1.727-0.056-2.589-0.056c-1.773,0-3.557,0.087-5.317,0.249c-0.24,0.028-0.486,0.046-0.729,0.079l-0.1,0.013
			c-3,0.328-5.973,0.9-8.847,1.696l-0.054,0.018c-0.182,0.049-0.367,0.106-0.551,0.162c-0.117,0.041-0.249,0.082-0.366,0.118
			c-3.722,1.102-7.28,2.569-10.588,4.367c-0.412,0.216-0.811,0.449-1.217,0.681c-16.067,9.254-27.457,26.934-32.071,49.788
			c-0.093,0.47-0.182,0.943-0.271,1.413l-0.044,0.262c-0.888,4.791-1.446,9.695-1.671,14.586l-0.03,0.586
			c-0.007,0.13-0.021,0.673-0.021,0.673c-0.129,3.893-0.057,7.809,0.223,11.644c0.021,0.349,0.053,0.702,0.082,1.057
			c0.273,3.322,0.721,6.669,1.318,9.938c0.038,0.261,0.17,0.922,0.17,0.922c0.565,2.962,1.272,5.901,2.1,8.737
			c0.072,0.267,0.15,0.535,0.239,0.811c0.806,2.674,1.718,5.292,2.723,7.772l0.3,0.721c1,2.412,2.103,4.748,3.257,6.95l0.119,0.225
			c0.053,0.109,0.106,0.213,0.164,0.319l0.046,0.078c1.136,2.097,2.437,4.145,3.894,6.109c0,0,0.296,0.396,0.414,0.559
			c1.362,1.795,2.859,3.525,4.454,5.169c0.112,0.115,0.467,0.47,0.467,0.47c1.537,1.539,3.192,3.031,4.915,4.418l0.513,0.404
			c1.696,1.338,3.496,2.605,5.338,3.772l0.547,0.342c1.835,1.137,3.761,2.194,5.73,3.15l0.584,0.28
			c2.001,0.948,4.064,1.799,6.132,2.536l0.631,0.213c2.166,0.743,4.377,1.362,6.562,1.854l0.67,0.148
			c0.487,0.103,0.966,0.202,1.45,0.29c1.853,0.344,3.77,0.585,5.698,0.711c0,0,0.58,0.042,0.74,0.049
			c0.804,0.039,1.616,0.058,2.418,0.058c1.844,0,3.709-0.106,5.551-0.316c0.254-0.031,0.501-0.061,0.75-0.098l0.092-0.012
			c3.088-0.413,6.172-1.133,9.165-2.125c0.329-0.113,0.656-0.23,0.983-0.343c3.985-1.43,7.852-3.363,11.488-5.757
			c0.458-0.305,0.91-0.612,1.365-0.929c2.688-1.886,5.258-4.031,7.621-6.374c7.766-7.686,12.729-17.481,13.268-26.206
			c0.025-0.425,0.046-0.865,0.051-1.301c0.04-3.359-0.605-6.548-1.9-9.466c-0.106-0.24-0.227-0.482-0.339-0.717
			c-0.878-1.788-2.006-3.473-3.367-5.011c-0.276-0.312-0.558-0.605-0.851-0.892c-0.133-0.132-0.27-0.253-0.403-0.374l-0.099-0.092
			c-1.625-1.475-3.57-2.674-5.776-3.556l-0.157-0.065c-0.157-0.061-0.306-0.128-0.473-0.186c-2.068-0.758-4.398-1.273-6.933-1.527
			l-0.164-0.017c-0.19-0.021-0.378-0.041-0.573-0.056c-0.902-0.07-1.827-0.108-2.768-0.116c-0.044-1.667-0.073-3.3-0.09-4.84
			l-0.042-2.724l1.465-0.027c2.572-0.044,5.14-0.09,7.714-0.126l0.752-0.005c2.562-0.026,5.115-0.048,7.676-0.055l0.753-0.008
			c1.855-0.01,3.697-0.013,5.55-0.013h2.841c2.541,0.003,5.08,0.013,7.617,0.024h0.753c2.534,0.013,5.065,0.027,7.603,0.051
			l9.091,0.075l16.686,0.159c2.526,0.023,5.059,0.037,7.593,0.054l2.523,0.02c-0.028,2.146-0.06,4.411-0.126,6.688l-0.007,0.249
			c-3.264,0.157-6.263,0.771-8.917,1.831c-0.37,0.146-0.732,0.299-1.084,0.465c-7.774,3.571-12.803,11.337-14.951,23.084
			c-0.1,0.533-0.189,1.077-0.271,1.619c-0.634,4.041-0.97,8.484-1.019,13.584c0,0.393,0,0.794-0.007,1.188
			c0,3.477,0.121,7.191,0.37,11.351l0.074,1.072c0.242,3.653,0.543,7.247,0.848,10.579l0.146,1.59
			c0.272,3.068,0.536,5.984,0.714,8.552h-10.081c-0.383-1.268-0.743-2.343-1.13-3.33c-0.097-0.252-0.201-0.499-0.31-0.743
			c-1.118-2.607-2.479-4.611-4.177-6.134c-0.169-0.154-0.339-0.31-0.521-0.45c-0.2-0.162-0.398-0.317-0.606-0.465
			c-1.68-1.2-3.579-2.056-5.634-2.54l-0.172-0.039c-0.174-0.046-0.353-0.084-0.529-0.118c-1.102-0.211-2.263-0.319-3.458-0.319
			c-1.479,0-3.045,0.167-4.675,0.49c-0.27,0.057-0.54,0.116-0.812,0.183l-0.101,0.02c-1.774,0.411-3.652,1.014-5.575,1.782
			c-1.459,0.578-2.965,1.259-4.752,2.138c-0.371,0.188-0.746,0.374-1.119,0.561c-1.158,0.584-2.309,1.191-3.453,1.794
			c-0.788,0.413-1.577,0.827-2.373,1.236c-1.515,0.779-3.196,1.518-5.143,2.262l-0.241,0.087c-0.247,0.098-0.496,0.193-0.738,0.284
			c-2.129,0.771-4.341,1.473-6.48,2.147l-0.084,0.03c-0.971,0.309-1.977,0.609-2.983,0.887c-0.16,0.042-0.326,0.085-0.491,0.124
			l-0.406,0.106c-2.883,0.76-5.809,1.367-8.691,1.791l-0.82,0.118c-2.66,0.368-5.343,0.603-7.983,0.697l-1.233,0.029
			C189.383,286.725,188.996,286.734,188.605,286.742L188.605,286.742z"/>
		<path d="M308.527,195.168c0.022-1.363-1.241-2.503-2.574-2.505c-1.149,0-2.299-0.005-3.45-0.005c-0.252,0-0.502,0-0.751-0.003
			c-2.54-0.009-5.081-0.019-7.608-0.034c-0.257,0-0.504-0.006-0.753-0.009c-2.535-0.013-5.068-0.039-7.598-0.056
			c-0.251-0.005-0.506-0.007-0.753-0.007c-2.528-0.029-5.054-0.049-7.582-0.076c-0.255-0.004-0.507-0.007-0.758-0.007
			c-2.526-0.023-5.055-0.054-7.581-0.075c-0.255-0.007-0.504-0.007-0.755-0.012c-2.534-0.02-5.06-0.044-7.588-0.065
			c-0.248-0.002-0.504-0.002-0.754-0.007c-2.533-0.018-5.066-0.031-7.602-0.046c-0.25,0-0.501-0.003-0.756-0.003
			c-2.541-0.008-5.083-0.013-7.619-0.013c-0.26,0-0.508,0-0.758,0c-2.551,0-5.105,0.008-7.655,0.023
			c-0.254,0-0.502,0.008-0.76,0.008c-2.561,0.017-5.12,0.046-7.681,0.081c-0.257,0.003-0.511,0.006-0.767,0.01
			c-2.575,0.039-5.145,0.085-7.725,0.143c-0.261,0.004-0.511,0.015-0.771,0.02c-1.665,0.038-3.332,0.082-4.994,0.133
			c-1.344,0.043-2.654,1.142-2.572,2.579c0.155,2.868,0.22,5.75,0.28,8.627c0.008,0.384,0.008,0.76,0.013,1.14
			c0.075,3.772,0.14,7.544,0.362,11.319c0.015,0.308,0.031,0.612,0.052,0.926c0,0.044,0.015,0.086,0.021,0.134
			c0.182,1.704,1.567,2.613,3.234,2.343c0.998-0.16,2.055-0.294,3.142-0.393c0.257-0.021,0.529-0.043,0.798-0.062
			c2.437-0.167,4.976-0.075,7.314,0.503c0.208,0.054,0.425,0.114,0.634,0.18c2.098,0.619,3.992,1.679,5.464,3.378
			c0.145,0.166,0.289,0.345,0.421,0.524c0.062,0.09,0.145,0.165,0.215,0.266c1.653,2.341,2.2,5.155,2.117,7.985
			c-0.015,0.432-0.049,0.874-0.095,1.312c-0.169,1.752-0.551,3.486-1.038,5.091c-2.121,7.019-7.626,12.744-13.076,17.371
			c-0.227,0.195-0.466,0.38-0.693,0.57c-0.501,0.397-0.998,0.789-1.511,1.165c-3.48,2.56-7.352,4.556-11.436,5.911
			c-0.314,0.107-0.629,0.202-0.945,0.302c-2.788,0.847-5.655,1.411-8.564,1.648c-0.053,0.004-0.101,0.009-0.148,0.01
			c-0.252,0.019-0.516,0.033-0.786,0.051c-2.463,0.138-4.961,0.043-7.457-0.27c-0.232-0.028-0.465-0.064-0.699-0.092
			c-2.241-0.318-4.479-0.811-6.691-1.459c-0.211-0.06-0.421-0.128-0.631-0.195c-2.089-0.642-4.143-1.419-6.139-2.323
			c-0.194-0.092-0.395-0.179-0.584-0.267c-1.948-0.91-3.842-1.934-5.667-3.07c-0.176-0.106-0.357-0.215-0.535-0.336
			c-1.819-1.146-3.564-2.408-5.212-3.763c-0.164-0.134-0.329-0.276-0.493-0.411c-1.686-1.413-3.265-2.926-4.724-4.522
			c-0.149-0.157-0.298-0.322-0.442-0.482c-1.481-1.661-2.829-3.4-4.01-5.215c-0.046-0.072-0.095-0.144-0.141-0.214
			c-0.121-0.193-0.247-0.392-0.374-0.595c-1.29-2.059-2.467-4.2-3.512-6.412c-0.106-0.221-0.215-0.448-0.316-0.676
			c-1.099-2.395-2.053-4.868-2.88-7.39c-0.085-0.261-0.169-0.52-0.255-0.779c-0.873-2.784-1.596-5.621-2.167-8.5
			c-0.059-0.3-0.112-0.601-0.18-0.902c-0.609-3.25-1.042-6.536-1.311-9.827c-0.029-0.348-0.052-0.694-0.08-1.047
			c-0.279-3.874-0.332-7.739-0.209-11.552c0.021-0.416,0.032-0.835,0.052-1.247c0.08-1.722,0.191-3.426,0.351-5.11
			c0.271-3.159,0.738-6.311,1.36-9.432c0.122-0.591,0.249-1.174,0.384-1.762c3.656-16.315,12.166-31.366,25.764-40.062
			c0.423-0.262,0.836-0.529,1.26-0.781c3.265-1.947,6.824-3.528,10.659-4.691c0.308-0.095,0.617-0.201,0.934-0.287
			c1.749-0.496,3.547-0.905,5.412-1.218c1.096-0.175,2.181-0.317,3.273-0.413c0.263-0.026,0.531-0.049,0.794-0.067
			c2.543-0.18,5.067-0.134,7.557,0.122c0.235,0.02,0.473,0.052,0.7,0.084c2.299,0.267,4.561,0.716,6.782,1.321
			c0.218,0.058,0.426,0.122,0.644,0.184c2.109,0.609,4.176,1.362,6.191,2.247c0.194,0.086,0.395,0.17,0.591,0.26
			c1.948,0.889,3.851,1.896,5.691,3.022c0.175,0.108,0.354,0.221,0.535,0.328c1.812,1.141,3.562,2.386,5.24,3.73
			c0.163,0.129,0.329,0.267,0.494,0.399c1.68,1.377,3.279,2.854,4.798,4.415c0.158,0.157,0.301,0.312,0.45,0.472
			c1.546,1.626,2.996,3.34,4.336,5.134c0.131,0.182,0.267,0.367,0.4,0.551c1.391,1.909,2.656,3.906,3.793,5.968
			c0.119,0.21,0.232,0.425,0.349,0.637c1.205,2.271,2.251,4.621,3.11,7.026c0.092,0.259,0.188,0.505,0.268,0.762
			c0.961,2.812,1.662,5.691,2.091,8.624c0.044,0.326,0.083,0.653,0.123,0.973c0.013,0.114,0.042,0.228,0.044,0.346
			c0.167,1.395,1.053,2.568,2.577,2.575c1.041,0,2.078,0.012,3.122,0.024c0.253,0.007,0.501,0.012,0.749,0.012
			c2.507,0.044,5.023,0.107,7.536,0.157c0.248,0.003,0.496,0.008,0.75,0.013c2.545,0.041,5.084,0.055,7.632,0
			c0.256-0.005,0.513-0.013,0.76-0.022c1.433-0.041,2.871-0.092,4.302-0.184c1.389-0.092,2.594-1.106,2.572-2.575
			c-0.032-2.602-0.056-5.201-0.07-7.801c-0.008-0.383-0.013-0.771-0.013-1.154c-0.026-3.939-0.04-7.878-0.04-11.817
			c0-0.393,0-0.786,0-1.176c0-3.969,0.014-7.942,0.033-11.917c0-0.388,0-0.784,0.007-1.179c0.013-3.987,0.032-7.972,0.051-11.961
			c0-0.39,0-0.783,0.008-1.179c0.02-3.976,0.024-7.956,0.037-11.935c0-0.391,0-0.784,0-1.169c0.009-3.961,0.009-7.91-0.013-11.86
			c0-0.393,0-0.779,0-1.174c0-0.079,0-0.157,0-0.239c-0.005-1.469-1.167-2.489-2.572-2.572c-1.055-0.065-2.114-0.097-3.168-0.123
			c-0.253-0.002-0.501-0.002-0.752-0.002c-2.57-0.031-5.14,0.033-7.705,0.105c-0.254,0.01-0.513,0.013-0.769,0.023
			c-2.565,0.069-5.125,0.131-7.695,0.085c-0.241-0.005-0.491-0.021-0.732-0.024c-0.637-0.021-1.269-0.034-1.895-0.064
			c-1.149-0.061-1.894,0.519-2.24,1.309c-0.203,0.35-0.329,0.766-0.336,1.264c-0.065,8.755-4.845,10.566-10.939,9.584
			c-0.226-0.036-0.451-0.079-0.678-0.125c-2.052-0.385-4.227-1.073-6.422-1.888c-0.203-0.079-0.397-0.154-0.601-0.236
			c-2.037-0.784-4.065-1.673-5.991-2.556c-0.203-0.09-0.392-0.177-0.588-0.265c-2.163-0.996-4.171-1.955-5.895-2.705
			c-0.198-0.088-0.403-0.172-0.591-0.254c-0.723-0.311-1.393-0.573-1.988-0.776c-1.421-0.486-2.862-0.907-4.308-1.303
			c-0.217-0.069-0.428-0.118-0.646-0.172c-2.212-0.589-4.443-1.072-6.691-1.454c-0.233-0.044-0.457-0.09-0.687-0.122
			c-2.35-0.38-4.721-0.66-7.103-0.83c-0.236-0.018-0.476-0.026-0.723-0.044c-2.512-0.157-5.031-0.191-7.555-0.127
			c-0.251,0.001-0.506,0.005-0.762,0.016c-2.689,0.092-5.374,0.296-8.046,0.634c-0.276,0.033-0.554,0.072-0.825,0.116
			c-2.903,0.386-5.795,0.9-8.641,1.556c-0.298,0.072-0.591,0.147-0.893,0.216c-1.902,0.462-3.788,0.962-5.645,1.533
			c-1.28,0.39-2.533,0.817-3.79,1.259c-0.323,0.118-0.653,0.249-0.991,0.37c-3.681,1.364-7.258,2.955-10.707,4.776
			c-0.393,0.208-0.774,0.424-1.159,0.637c-4.675,2.553-9.12,5.5-13.3,8.797c-0.539,0.429-1.062,0.87-1.589,1.305
			c-4.689,3.869-9.043,8.159-13.011,12.824c-9.795,11.529-16.324,24.521-20.091,38.65c-0.18,0.655-0.352,1.311-0.521,1.971
			c-1.155,4.685-2.021,9.493-2.606,14.42c-0.074,0.593-0.119,1.192-0.175,1.788c-0.058,0.462-0.102,0.925-0.147,1.391
			c-0.368,4.15-0.49,8.324-0.393,12.484c0.013,0.37,0.021,0.742,0.032,1.122c0.133,3.507,0.418,7.008,0.887,10.489
			c0.045,0.32,0.082,0.646,0.133,0.971c0.438,3.076,1.023,6.135,1.745,9.163c0.065,0.284,0.129,0.567,0.203,0.853
			c0.675,2.754,1.457,5.493,2.368,8.188c0.085,0.254,0.181,0.503,0.271,0.753c0.866,2.489,1.828,4.95,2.894,7.365
			c0.104,0.234,0.211,0.467,0.308,0.694c0.197,0.434,0.382,0.874,0.586,1.312c0.852,1.816,1.775,3.604,2.755,5.364
			c0.119,0.203,0.239,0.416,0.356,0.627c1.176,2.047,2.434,4.045,3.779,5.993c0.133,0.189,0.264,0.375,0.396,0.56
			c1.307,1.868,2.682,3.681,4.134,5.449c0.137,0.169,0.277,0.341,0.415,0.511c1.423,1.711,2.907,3.367,4.445,4.968
			c0.155,0.157,0.3,0.319,0.45,0.476c1.524,1.562,3.097,3.071,4.727,4.523c0.158,0.139,0.322,0.281,0.482,0.417
			c1.618,1.427,3.285,2.8,4.991,4.113c0.172,0.131,0.334,0.254,0.506,0.387c1.713,1.295,3.458,2.536,5.244,3.715
			c0.176,0.114,0.355,0.23,0.535,0.351c0.377,0.249,0.76,0.506,1.139,0.745c1.439,0.907,2.897,1.742,4.373,2.553
			c0.19,0.102,0.375,0.199,0.564,0.301c1.904,1.019,3.848,1.962,5.817,2.82c0.196,0.088,0.392,0.172,0.59,0.257
			c2.016,0.866,4.058,1.648,6.125,2.346c0.203,0.072,0.415,0.143,0.626,0.212c2.112,0.705,4.256,1.326,6.422,1.873
			c0.216,0.054,0.436,0.111,0.651,0.167c2.226,0.54,4.47,1.002,6.738,1.395c0.219,0.04,0.45,0.081,0.674,0.118
			c2.335,0.387,4.68,0.691,7.041,0.919c0.239,0.026,0.474,0.052,0.719,0.073c2.432,0.225,4.89,0.368,7.347,0.442
			c0.248,0.003,0.497,0.003,0.745,0.01c1.964,0.043,3.932,0.058,5.895,0.01c0.6-0.013,1.195-0.044,1.782-0.073
			c0.262-0.014,0.523-0.017,0.779-0.038c2.764-0.16,5.506-0.477,8.229-0.932c0.285-0.041,0.568-0.082,0.842-0.126
			c3.011-0.532,5.991-1.225,8.953-2.05c0.308-0.092,0.617-0.179,0.925-0.269c0.564-0.164,1.125-0.318,1.677-0.49
			c2.819-0.857,5.52-1.849,8.157-2.924c0.348-0.145,0.691-0.285,1.023-0.429c3.663-1.535,7.229-3.232,10.861-4.998
			c0.356-0.178,0.731-0.363,1.094-0.543c0.434-0.207,0.861-0.416,1.291-0.631c2.729-1.334,5.722-2.725,8.773-3.141
			c0.267-0.031,0.537-0.065,0.806-0.083c1.353-0.102,2.705-0.009,4.053,0.395c0.938,0.28,1.691,0.841,2.321,1.57
			c0.145,0.159,0.28,0.341,0.421,0.521c1.471,2.067,2.153,5.154,2.71,7.654c0.065,0.303,0.135,0.586,0.196,0.866
			c0.102,0.429,0.2,0.845,0.304,1.212c0.303,1.101,1.332,1.89,2.481,1.89c0.95,0,1.904,0,2.857,0c0.255,0,0.504,0,0.753,0
			c2.549,0,5.094,0,7.634,0c0.255,0,0.509,0,0.758,0c2.548,0,5.092,0,7.632,0c0.255,0,0.504,0,0.762,0c0.771,0,1.549,0,2.326,0
			c1.401,0,2.579-1.173,2.574-2.576c-0.009-1.627-0.048-3.255-0.099-4.884c-0.022-0.369-0.029-0.749-0.052-1.115
			c-0.143-3.605-0.396-7.21-0.672-10.811c-0.027-0.354-0.052-0.702-0.08-1.049c-0.276-3.544-0.565-7.085-0.799-10.627
			c-0.028-0.354-0.048-0.711-0.074-1.067c-0.233-3.741-0.4-7.483-0.405-11.237c0-0.395,0.006-0.794,0.013-1.19
			c0.01-1.564,0.046-3.131,0.123-4.698c0.143-2.933,0.414-5.955,0.985-8.898c0.118-0.597,0.249-1.194,0.395-1.785
			c0.74-3.066,1.857-6.018,3.559-8.67c1.3-2.027,2.986-3.481,4.896-4.479c0.353-0.186,0.714-0.354,1.084-0.512
			c2.606-1.094,5.546-1.453,8.486-1.321c0.244,0.015,0.488,0.028,0.73,0.041c0.692,0.055,1.392,0.126,2.081,0.225
			c1.745,0.257,3.112-0.665,3.262-2.476c0.184-2.202,0.288-4.406,0.354-6.604c0.015-0.413,0.024-0.822,0.039-1.241
			c0.105-4.089,0.111-8.186,0.271-12.294c0.022-0.386,0.031-0.777,0.046-1.162C308.527,195.218,308.52,195.194,308.527,195.168z
			 M302.061,211.36c-0.033,0.667-0.546,1.244-1.235,1.234c-0.951-0.006-1.898,0.031-2.831,0.116
			c-0.273,0.025-0.542,0.062-0.811,0.096c-3.663,0.456-7.123,1.683-10.049,3.756c-0.525,0.368-1.033,0.763-1.524,1.188
			c-1.444,1.261-2.729,2.76-3.796,4.516c-1.048,1.733-1.909,3.564-2.609,5.452c-0.302,0.806-0.578,1.626-0.829,2.451
			c-1.049,3.521-1.627,7.198-1.929,10.848c-0.117,1.476-0.198,2.956-0.257,4.423c-0.022,0.423-0.046,0.843-0.054,1.259
			c-0.11,3.891-0.038,7.776,0.134,11.66c0.017,0.365,0.038,0.726,0.06,1.086c0.177,3.592,0.432,7.185,0.709,10.761
			c0.022,0.356,0.059,0.702,0.083,1.055c0.27,3.548,0.554,7.1,0.789,10.647c0.017,0.353,0.038,0.709,0.065,1.071
			c0.064,1.116,0.131,2.234,0.184,3.359c0.039,0.673-0.584,1.234-1.234,1.234c-0.639,0-1.275,0-1.902,0c-0.256,0-0.51,0-0.76,0
			c-2.543,0-5.09,0-7.637,0c-0.249,0-0.505,0-0.754,0c-1.036,0-2.082,0-3.125,0c-0.546,0-1.045-0.378-1.189-0.912
			c-0.257-0.959-0.543-1.93-0.871-2.897c-0.087-0.252-0.182-0.501-0.272-0.75c-0.853-2.327-1.986-4.524-3.63-6.221
			c-0.159-0.157-0.308-0.314-0.46-0.462c-1.279-1.179-2.85-2.062-4.796-2.498c-0.37-0.082-0.737-0.149-1.107-0.203
			c-0.228-0.036-0.457-0.072-0.692-0.101c-2.778-0.313-5.495,0.05-8.154,0.815c-0.314,0.095-0.629,0.189-0.937,0.288
			c-3.756,1.215-7.38,3.156-10.846,4.982c-0.384,0.196-0.762,0.399-1.137,0.6c-0.249,0.131-0.496,0.26-0.745,0.385
			c-3.194,1.648-6.517,3.088-9.914,4.326c-0.328,0.117-0.655,0.23-0.986,0.345c-3.061,1.073-6.195,1.979-9.375,2.71
			c-0.293,0.065-0.588,0.136-0.883,0.205c-2.838,0.622-5.689,1.102-8.561,1.439c-0.271,0.032-0.543,0.059-0.813,0.088
			c-2.654,0.287-5.306,0.454-7.954,0.494c-0.261,0.006-0.513,0.016-0.765,0.016c-0.02,0-0.04,0.005-0.056,0.005
			c-2.487-0.015-4.953-0.105-7.406-0.273c-0.246-0.017-0.479-0.03-0.724-0.046c-2.402-0.182-4.771-0.444-7.138-0.781
			c-0.227-0.034-0.458-0.065-0.686-0.095c-2.299-0.351-4.57-0.778-6.815-1.282c-0.223-0.05-0.44-0.095-0.664-0.147
			c-2.189-0.508-4.355-1.094-6.497-1.766c-0.212-0.062-0.421-0.131-0.631-0.196c-2.086-0.67-4.152-1.416-6.189-2.243
			c-0.196-0.08-0.401-0.167-0.593-0.25c-1.994-0.825-3.956-1.737-5.881-2.724c-0.188-0.102-0.38-0.194-0.568-0.289
			c-1.887-0.996-3.752-2.065-5.565-3.216c-0.181-0.113-0.36-0.229-0.534-0.345c-1.791-1.154-3.548-2.384-5.258-3.693
			c-0.172-0.135-0.344-0.252-0.509-0.387c-1.062-0.832-2.112-1.685-3.143-2.584c-0.61-0.525-1.205-1.058-1.804-1.604
			c-0.157-0.147-0.316-0.291-0.476-0.434c-1.614-1.5-3.161-3.051-4.639-4.647c-0.148-0.162-0.301-0.319-0.451-0.482
			c-1.512-1.657-2.953-3.37-4.335-5.129c-0.138-0.18-0.274-0.352-0.414-0.531c-1.41-1.831-2.741-3.716-3.997-5.654
			c-0.133-0.191-0.255-0.387-0.381-0.578c-1.291-2.028-2.506-4.108-3.631-6.232c-0.111-0.217-0.221-0.431-0.339-0.643
			c-1.165-2.253-2.227-4.556-3.189-6.903c-0.102-0.239-0.203-0.479-0.298-0.716c-1.01-2.517-1.911-5.089-2.686-7.7
			c-0.076-0.269-0.158-0.544-0.228-0.812c-0.823-2.86-1.497-5.775-2.028-8.732c-0.052-0.303-0.105-0.61-0.158-0.92
			c-0.188-1.138-0.362-2.286-0.511-3.434c-0.276-2.188-0.488-4.406-0.652-6.637c-0.017-0.352-0.038-0.71-0.063-1.07
			c-0.23-3.868-0.262-7.789-0.098-11.714c0.018-0.423,0.037-0.84,0.056-1.263c0.27-4.917,0.855-9.834,1.794-14.656
			c0.111-0.576,0.235-1.151,0.361-1.724c1.43-6.741,3.552-13.283,6.451-19.386c6.649-13.983,16.728-26.799,29.247-36.132
			c0.467-0.342,0.936-0.668,1.396-1.002c2.402-1.709,4.876-3.316,7.445-4.755c1.608-0.904,3.249-1.763,4.91-2.574
			c0.36-0.174,0.721-0.349,1.089-0.521c3.326-1.562,6.761-2.931,10.259-4.082c0.316-0.099,0.637-0.205,0.953-0.305
			c3.006-0.948,6.06-1.741,9.15-2.354c0.286-0.062,0.578-0.113,0.858-0.17c2.771-0.526,5.57-0.911,8.378-1.148
			c0.267-0.021,0.53-0.051,0.803-0.069c2.579-0.193,5.166-0.25,7.756-0.193c0.244,0.008,0.493,0.013,0.745,0.021
			c2.413,0.082,4.835,0.282,7.245,0.604c0.23,0.033,0.461,0.062,0.689,0.097c0.29,0.044,0.585,0.078,0.873,0.124
			c1.996,0.313,3.982,0.683,5.952,1.132c0.216,0.045,0.441,0.105,0.659,0.152c2.173,0.516,4.331,1.127,6.445,1.852
			c0.203,0.074,0.406,0.144,0.61,0.218c0.511,0.184,1.03,0.369,1.533,0.565c1.52,0.588,2.998,1.275,4.46,1.994
			c0.189,0.09,0.388,0.18,0.578,0.275c1.931,0.968,3.85,1.955,5.81,2.841c0.189,0.093,0.386,0.182,0.577,0.265
			c0.664,0.287,1.327,0.565,1.996,0.819c1.391,0.527,2.82,0.971,4.272,1.314c0.216,0.051,0.434,0.104,0.66,0.151
			c2.44,0.531,4.907,0.761,7.247,0.599c0.265-0.018,0.526-0.04,0.799-0.074c5.795-0.63,10.674-3.823,12.261-11.159
			c0.112-0.53,0.663-0.907,1.188-0.907c0.661,0,1.314-0.018,1.97-0.036c0.256-0.002,0.505-0.002,0.76-0.013
			c2.601-0.065,5.2-0.185,7.806-0.252c0.249-0.006,0.508-0.003,0.756-0.01c0.775-0.015,1.543-0.028,2.317-0.021
			c0.676,0.006,1.234,0.558,1.234,1.233c0.005,1.709,0,3.429,0,5.138c0,0.39,0,0.778,0,1.169c0,3.976-0.017,7.95-0.027,11.922
			c0,0.395,0,0.788-0.005,1.182c-0.023,3.987-0.046,7.971-0.061,11.966c0,0.393-0.007,0.788-0.007,1.177
			c-0.021,3.98-0.031,7.963-0.046,11.941c0,0.391,0,0.784,0,1.177c-0.005,3.946-0.005,7.9,0.015,11.854
			c0,0.38,0.003,0.774,0.003,1.158c0.016,2.256,0.028,4.511,0.05,6.764c0.006,0.685-0.566,1.224-1.233,1.236
			c-1.328,0.026-2.654,0.039-3.982,0.039c-0.248,0-0.506-0.008-0.754-0.008c-2.519-0.009-5.042-0.051-7.562-0.107
			c-0.249-0.003-0.498-0.015-0.739-0.021c-0.959-0.021-1.915-0.046-2.863-0.067c-0.525-0.015-1.091-0.36-1.195-0.912
			c-0.225-1.128-0.488-2.256-0.781-3.373c-0.077-0.276-0.148-0.56-0.225-0.826c-0.725-2.603-1.646-5.146-2.73-7.619
			c-0.105-0.235-0.21-0.462-0.314-0.69c-1.011-2.233-2.173-4.408-3.445-6.506c-0.126-0.199-0.249-0.402-0.375-0.6
			c-1.22-1.961-2.56-3.851-3.992-5.663c-0.136-0.175-0.281-0.347-0.419-0.521c-1.392-1.726-2.882-3.388-4.443-4.956
			c-0.159-0.154-0.31-0.305-0.461-0.459c-1.55-1.521-3.168-2.97-4.856-4.326c-0.172-0.131-0.334-0.262-0.499-0.391
			c-1.694-1.325-3.446-2.567-5.261-3.709c-0.174-0.113-0.354-0.219-0.529-0.332c-1.837-1.131-3.72-2.16-5.658-3.085
			c-0.19-0.09-0.384-0.182-0.58-0.269c-1.98-0.923-4.008-1.724-6.083-2.405c-0.209-0.074-0.421-0.144-0.622-0.211
			c-2.161-0.68-4.362-1.228-6.587-1.631c-0.222-0.042-0.452-0.082-0.677-0.121c-2.367-0.401-4.77-0.629-7.194-0.685
			c-0.241-0.008-0.489-0.016-0.74-0.018c-2.659-0.026-5.329,0.167-8.014,0.588c-0.283,0.046-0.558,0.083-0.841,0.134
			c-0.459,0.079-0.912,0.166-1.366,0.255c-2.735,0.557-5.351,1.292-7.851,2.193c-0.333,0.122-0.662,0.26-0.999,0.386
			c-4.188,1.602-8.048,3.665-11.58,6.126c-0.465,0.329-0.938,0.667-1.399,1.005c-12.008,8.948-20.014,22.532-24.135,37.524
			c-0.179,0.66-0.354,1.323-0.527,1.989c-0.811,3.26-1.442,6.579-1.9,9.928c-0.264,1.955-0.474,3.923-0.638,5.897
			c-0.031,0.442-0.068,0.886-0.1,1.328c-0.28,4.036-0.361,8.11-0.196,12.179c0.015,0.36,0.037,0.723,0.059,1.083
			c0.169,3.432,0.52,6.856,1.038,10.251c0.045,0.321,0.092,0.637,0.145,0.948c0.491,3.008,1.12,5.986,1.902,8.919
			c0.074,0.275,0.141,0.557,0.218,0.832c0.73,2.664,1.595,5.283,2.579,7.864c0.092,0.245,0.182,0.486,0.283,0.729
			c0.143,0.375,0.28,0.748,0.431,1.121c0.822,2,1.723,3.963,2.706,5.877c0.105,0.218,0.225,0.436,0.341,0.646
			c1.112,2.111,2.344,4.151,3.704,6.105c0.138,0.184,0.262,0.37,0.393,0.559c1.314,1.822,2.736,3.558,4.3,5.184
			c0.149,0.162,0.316,0.309,0.459,0.464c1.038,1.053,2.133,2.062,3.289,3.008c0.525,0.429,1.057,0.853,1.597,1.273
			c0.164,0.126,0.341,0.257,0.504,0.384c1.701,1.307,3.443,2.542,5.258,3.703c0.179,0.116,0.355,0.228,0.525,0.344
			c1.819,1.142,3.696,2.204,5.613,3.16c0.19,0.096,0.372,0.186,0.571,0.283c1.957,0.95,3.958,1.807,6.005,2.526
			c0.208,0.072,0.412,0.135,0.622,0.202c2.13,0.722,4.301,1.312,6.521,1.735c0.085,0.017,0.17,0.034,0.257,0.049
			c0.138,0.028,0.272,0.048,0.418,0.072c2.41,0.428,4.804,0.665,7.178,0.725c0.241,0.007,0.488,0.01,0.739,0.015
			c2.718,0.024,5.396-0.18,8.021-0.603c0.291-0.049,0.571-0.099,0.855-0.145c3.214-0.592,6.354-1.495,9.374-2.709
			c0.341-0.142,0.681-0.276,1.025-0.419c4.549-1.956,8.807-4.6,12.677-7.838c0.583-0.486,1.159-0.987,1.716-1.507
			c2.729-2.485,5.226-5.273,7.459-8.341c2.502-3.434,4.603-7.673,5.691-12.097c0.143-0.585,0.269-1.174,0.382-1.762
			c0.669-3.699,0.588-7.47-0.593-10.957c-0.084-0.251-0.174-0.5-0.269-0.754c-0.288-0.738-0.628-1.467-1.018-2.179
			c-0.797-1.433-1.753-2.666-2.82-3.722c-0.151-0.151-0.314-0.287-0.474-0.439c-1.609-1.47-3.467-2.575-5.474-3.354
			c-0.203-0.079-0.408-0.149-0.617-0.22c-2.134-0.753-4.426-1.173-6.782-1.331c-0.237-0.017-0.479-0.031-0.723-0.046
			c-1.104-0.044-2.213-0.049-3.328-0.002c-0.691,0.034-1.209-0.583-1.234-1.234c-0.045-1.122-0.079-2.25-0.105-3.376
			c-0.006-0.379-0.012-0.76-0.027-1.139c-0.045-2.512-0.058-5.028-0.099-7.551c-0.01-0.685,0.571-1.217,1.238-1.231
			c1.521-0.035,3.049-0.056,4.568-0.079c0.254-0.008,0.509-0.013,0.76-0.017c2.575-0.047,5.14-0.083,7.703-0.114
			c0.258,0,0.517,0,0.765-0.003c2.553-0.024,5.115-0.05,7.673-0.064c0.253,0,0.51,0.005,0.759,0c2.543-0.005,5.09-0.005,7.632,0
			c0.255,0,0.504-0.005,0.76,0c2.534,0,5.074,0.017,7.615,0.028c0.244,0.005,0.501,0.005,0.75,0.008
			c2.533,0.014,5.069,0.031,7.601,0.054c0.249,0.006,0.499,0.006,0.748,0.009c2.528,0.018,5.06,0.039,7.598,0.061
			c0.247,0.003,0.496,0.01,0.745,0.013c2.534,0.026,5.061,0.046,7.588,0.072c0.252,0,0.501,0,0.751,0.005
			c2.533,0.024,5.06,0.049,7.595,0.067c0.247,0.003,0.497,0.007,0.745,0.01c2.538,0.021,5.072,0.036,7.607,0.049
			c0.247,0.009,0.502,0.009,0.753,0.009c0.812,0.003,1.631,0.01,2.447,0.013c0.669,0.007,1.241,0.564,1.235,1.239
			c-0.023,1.657-0.036,3.31-0.053,4.972c-0.008,0.399-0.015,0.796-0.015,1.201C302.179,207.896,302.135,209.632,302.061,211.36z"/>
	</g>
	<g>
		<path d="M202.072,16.318c-101.104,0-183.355,82.254-183.355,183.356c0,101.102,82.251,183.357,183.355,183.357
			c101.105,0,183.363-82.256,183.363-183.357C385.435,98.572,303.178,16.318,202.072,16.318z M202.072,372.697
			c-95.405,0-173.02-77.614-173.02-173.022c0-95.406,77.615-173.021,173.02-173.021c95.409,0,173.027,77.616,173.027,173.021
			C375.1,295.083,297.481,372.697,202.072,372.697z"/>
	</g>
</g>
</svg>
