<svg enable-background="new 0 0 518.9 98.3" viewBox="0 0 518.9 98.3" xmlns="http://www.w3.org/2000/svg"><path d="m216.9 40c4.8 0 8.4-3 9.1-8.1l.7-6.1c0-.2-.1-.4-.4-.4h-7.4c-.2 0-.4.2-.4.4l-.3 2.4c0 .2.1.4.3.4h4c.1 0 .2.1.1.2l-.4 3.6c-.3 2.7-2.2 4.4-4.9 4.4s-4.3-1.8-3.9-4.6l1.5-12.4c.4-2.7 2.4-4.6 5-4.6 2.7 0 4.2 1.8 3.9 4.4l-.1 1.1c0 .2.1.4.3.4h2.9c.2 0 .4-.2.4-.4l.1-1.1c.5-4.5-2.3-7.7-7.1-7.7-4.9 0-8.4 3.1-9 7.9l-1.5 12.2c-.6 4.8 2.2 8 7.1 8z"/><path d="m216.9 40c-2.4 0-4.3-.8-5.6-2.2s-1.8-3.4-1.5-5.8l1.5-12.2c.3-2.4 1.3-4.4 2.9-5.8s3.7-2.2 6.1-2.2 4.4.8 5.7 2.2c1.2 1.4 1.7 3.3 1.5 5.5l-.1 1.1c0 .3-.2.4-.5.4h-2.9c-.1 0-.2 0-.3-.1s-.1-.2-.1-.3l.1-1.1c.2-1.3-.1-2.4-.8-3.2s-1.7-1.2-3-1.2c-2.6 0-4.6 1.8-4.9 4.5l-1.5 12.4c-.2 1.3.1 2.5.8 3.3s1.7 1.2 3 1.2c2.7 0 4.5-1.7 4.8-4.3l.4-3.7s0 0-.1 0h-4c-.1 0-.2 0-.3-.1s-.1-.2-.1-.3l.3-2.4c0-.3.2-.4.5-.4h7.4c.1 0 .3 0 .3.1.1.1.1.2.1.3l-.7 6.1c-.5 5.1-4 8.2-9 8.2zm3.4-28c-4.9 0-8.4 3.1-9 7.9l-1.5 12.2c-.3 2.3.2 4.3 1.5 5.7s3.2 2.2 5.5 2.2c4.9 0 8.4-3.1 9-8.1l.7-6.1c0-.1 0-.2-.1-.2-.1-.1-.1-.1-.2-.1h-7.4c-.2 0-.3.1-.4.4l-.3 2.4v.3c0 .1.1.1.2.1h4c.1 0 .1 0 .2.1v.1l-.4 3.6c-.3 2.7-2.2 4.4-4.9 4.4-1.3 0-2.4-.4-3.1-1.3-.7-.8-1-2-.9-3.4l1.5-12.4c.4-2.8 2.4-4.6 5-4.6 1.3 0 2.4.4 3.1 1.2s1 1.9.9 3.3l-.1 1.1v.3c0 .1.1.1.2.1h2.9c.2 0 .3-.1.4-.3l.1-1.1c.3-2.2-.2-4.1-1.5-5.4-1.1-1.7-3-2.4-5.4-2.4z"/><path d="m230 39.7h2.9c.2 0 .4-.2.4-.4l3.3-26.7c0-.2-.1-.4-.3-.4h-2.9c-.2 0-.4.2-.4.4l-3.3 26.7c-.1.2 0 .4.3.4z"/><path d="m232.9 39.7h-2.9c-.1 0-.2 0-.3-.1s-.1-.2-.1-.3l3.3-26.6c0-.3.2-.4.5-.4h2.9c.1 0 .2 0 .3.1s.1.2.1.3l-3.3 26.6c-.1.2-.3.4-.5.4zm.4-27.4c-.2 0-.3.1-.4.3l-3.3 26.6v.3s.1.1.2.1h2.9c.2 0 .3-.1.4-.4l3.3-26.6c0-.1 0-.2 0-.3s-.1-.1-.2-.1h-2.9z"/><path d="m239.1 39.7h2.9c.2 0 .4-.2.4-.4l2.2-18.4c0-.2.2-.2.2 0l7 18.5c0 .2.2.3.4.3h2.9c.2 0 .4-.2.4-.4l3.3-26.7c0-.2-.1-.4-.4-.4h-2.8c-.2 0-.4.2-.4.4l-2.3 18.3c0 .2-.1.2-.2 0l-7-18.5c-.1-.2-.2-.3-.4-.3h-2.9c-.2 0-.4.2-.4.4l-3.3 26.7c.1.3.2.5.4.5z"/><path d="m255.1 39.7h-2.9c-.3 0-.4-.1-.5-.3l-7-18.5s0 0-.1.1l-2.2 18.4c0 .3-.2.4-.5.4h-2.9c-.1 0-.2 0-.3-.1s-.1-.2-.1-.3l3.3-26.6c0-.3.2-.4.5-.4h2.9c.2 0 .4.1.5.3l7 18.5.1.1s0 0 0-.1l2.3-18.3c0-.3.2-.4.5-.4h2.8c.1 0 .3 0 .3.1.1.1.1.2.1.3l-3.3 26.6s-.3.2-.5.2zm-10.4-19c.1 0 .1 0 .1.1l7 18.5c0 .2.3.2.4.2h2.9c.2 0 .3-.1.3-.3l3.3-26.7c0-.1 0-.2-.1-.2-.1-.1-.1-.1-.3-.1h-2.8c-.2 0-.3.1-.4.3l-2.1 18.4c0 .1-.1.2-.1.2-.1 0-.1 0-.2-.1l-7-18.5c-.1-.2-.2-.2-.4-.2h-2.9c-.2 0-.3.1-.4.3l-3.3 26.6v.3s.1.1.2.1h2.9c.2 0 .3-.1.4-.4l2.2-18.4c.2 0 .3-.1.3-.1z"/><path d="m261.1 39.7h14.5c.2 0 .4-.2.4-.4l.3-2.5c0-.2-.1-.4-.3-.4h-11c-.1 0-.2-.1-.2-.2l1.1-8.6c0-.1.1-.2.2-.2h7.3c.2 0 .4-.2.4-.4l.3-2.5c0-.2-.1-.4-.3-.4h-7.3c-.1 0-.2-.1-.2-.2l1.1-8.5c0-.1.1-.2.2-.2h11c.2 0 .4-.2.4-.4l.3-2.5c0-.2-.1-.4-.3-.4h-14.5c-.2 0-.4.2-.4.4l-3.3 26.7c-.1.5 0 .7.3.7z"/><path d="m275.5 39.7h-14.5c-.1 0-.2 0-.3-.1s-.1-.2-.1-.3l3.3-26.6c0-.3.2-.4.5-.4h14.5c.1 0 .2 0 .3.1s.1.2.1.3l-.3 2.5c0 .2-.2.4-.5.4h-11c-.1 0-.1.1-.1.1l-1.1 8.5.1.1h7.2c.1 0 .2 0 .3.1s.1.2.1.3l-.3 2.5c0 .3-.2.4-.5.4h-7.2c-.1 0-.1.1-.1.1l-1.1 8.6.1.1h11c.1 0 .2 0 .3.1s.1.2.1.3l-.3 2.5c0 .2-.2.4-.5.4zm-11.1-27.4c-.2 0-.3.1-.4.3l-3.3 26.6v.3s.1.1.2.1h14.5c.2 0 .3-.1.4-.4l.3-2.5c0-.1 0-.2 0-.3s-.1-.1-.2-.1h-11c-.1 0-.2-.1-.2-.2l1.1-8.6c0-.1.1-.2.2-.2h7.3c.2 0 .3-.1.4-.4l.3-2.5c0-.1 0-.2 0-.3s-.1-.1-.2-.1h-7.2c-.1 0-.2-.1-.2-.2l1.1-8.5c0-.1.1-.2.2-.2h11c.2 0 .4-.1.4-.3l.3-2.5c0-.1 0-.2 0-.3s-.1-.1-.2-.1h-14.8z"/><path d="m280.7 39.7h14.2c.2 0 .4-.2.4-.4l.3-2.5c0-.2-.1-.4-.4-.4h-10.8c-.1 0-.2-.1-.2-.2l2.9-23.6c0-.2-.1-.4-.3-.4h-2.8c-.2 0-.4.2-.4.4l-3.3 26.7c0 .2.1.4.4.4z"/><path d="m294.9 39.7h-14.2c-.1 0-.2 0-.3-.1s-.1-.2-.1-.3l3.3-26.6c0-.3.2-.4.5-.4h2.9c.1 0 .2 0 .3.1s.1.2.1.3l-2.9 23.6.1.1h10.8c.3 0 .4.2.4.4l-.3 2.5c-.2.2-.4.4-.6.4zm-10.9-27.4c-.2 0-.3.1-.4.3l-3.3 26.6v.3s.1.1.2.1h14.2c.2 0 .3-.1.4-.4l.3-2.5c0-.1 0-.3-.3-.3h-10.8c-.1 0-.2-.1-.2-.2l2.9-23.6c0-.1 0-.2 0-.3s-.1-.1-.2-.1h-2.8z"/><path d="m299.2 39.7h14.2c.2 0 .4-.2.4-.4l.3-2.5c0-.2-.1-.4-.4-.4h-10.7c-.1 0-.2-.1-.2-.2l2.9-23.6c0-.2-.1-.4-.3-.4h-2.9c-.2 0-.4.2-.4.4l-3.3 26.7c0 .2.2.4.4.4z"/><path d="m313.4 39.7h-14.2c-.1 0-.2 0-.3-.1s-.1-.2-.1-.3l3.3-26.6c0-.3.2-.4.5-.4h2.9c.1 0 .2 0 .3.1s.1.2.1.3l-2.9 23.6.1.1h10.8c.3 0 .4.2.4.4l-.3 2.5c-.1.2-.3.4-.6.4zm-10.8-27.4c-.2 0-.3.1-.4.3l-3.3 26.6v.3s.1.1.2.1h14.2c.2 0 .3-.1.4-.4l.3-2.5c0-.1 0-.3-.3-.3h-10.7c-.1 0-.2-.1-.2-.2l2.9-23.6c0-.1 0-.2 0-.3s-.1-.1-.2-.1h-2.9z"/><path d="m317.7 39.7h14.5c.2 0 .4-.2.4-.4l.3-2.5c0-.2-.1-.4-.3-.4h-11c-.1 0-.2-.1-.2-.2l1.1-8.6c0-.1.1-.2.2-.2h7.3c.2 0 .4-.2.4-.4l.3-2.5c0-.2-.1-.4-.3-.4h-7.3c-.1 0-.2-.1-.2-.2l1.1-8.5c0-.1.1-.2.2-.2h11c.2 0 .4-.2.4-.4l.3-2.5c0-.2-.1-.4-.3-.4h-14.5c-.2 0-.4.2-.4.4l-3.3 26.7c0 .5.1.7.3.7z"/><path d="m332.2 39.7h-14.5c-.1 0-.2 0-.3-.1s-.1-.2-.1-.3l3.3-26.6c0-.3.2-.4.5-.4h14.5c.1 0 .2 0 .3.1s.1.2.1.3l-.3 2.5c0 .2-.2.4-.5.4h-11c-.1 0-.1.1-.1.1l-1.1 8.5.1.1h7.2c.1 0 .2 0 .3.1s.1.2.1.3l-.3 2.5c0 .3-.2.4-.5.4h-7.3c-.1 0-.1.1-.1.1l-1.1 8.6.1.1h11c.1 0 .2 0 .3.1s.1.2.1.3l-.3 2.5c0 .2-.1.4-.4.4zm-11.1-27.4c-.2 0-.3.1-.4.3l-3.3 26.6v.3s.1.1.2.1h14.5c.2 0 .3-.1.4-.4l.3-2.5c0-.1 0-.2 0-.3s-.1-.1-.2-.1h-11c-.1 0-.2-.1-.2-.2l1.1-8.6c0-.1.1-.2.2-.2h7.3c.2 0 .3-.1.4-.4l.3-2.5c0-.1 0-.2 0-.3s-.1-.1-.2-.1h-7.2c-.1 0-.2-.1-.2-.2l1.1-8.5c0-.1.1-.2.2-.2h11c.2 0 .4-.1.4-.3l.3-2.5c0-.1 0-.2 0-.3s-.1-.1-.2-.1h-14.8z"/><path d="m348.1 39.7h7.7c4.7 0 8.1-3 8.7-7.6l1.5-12.2c.6-4.6-2.1-7.6-6.8-7.6h-7.7c-.2 0-.4.2-.4.4l-3.3 26.7c-.1.1 0 .3.3.3zm6.2-24.1c0-.1.1-.2.2-.2h4.3c2.5 0 3.8 1.8 3.5 4.7l-1.4 11.4c-.4 2.9-2.2 4.7-4.6 4.7h-4.3c-.1 0-.2-.1-.2-.2z"/><path d="m355.8 39.7h-7.7c-.1 0-.2 0-.3-.1s-.1-.2-.1-.3l3.3-26.6c0-.3.2-.4.5-.4h7.7c2.4 0 4.2.7 5.5 2.1 1.2 1.4 1.7 3.3 1.4 5.5l-1.5 12.2c-.6 4.6-4.1 7.6-8.8 7.6zm-4.4-27.4c-.2 0-.3.1-.4.3l-3.3 26.6v.3s.1.1.2.1h7.7c4.7 0 8.1-3 8.7-7.6l1.5-12.2c.3-2.2-.2-4.1-1.4-5.5s-3.1-2.1-5.4-2.1h-7.6zm.5 24.2c-.1 0-.2-.1-.2-.2l2.5-20.6c0-.1.1-.2.2-.2h4.3c1.1 0 2.1.4 2.7 1.1.8.9 1.1 2.1.9 3.7l-1.4 11.4c-.4 2.9-2.2 4.7-4.7 4.7zm2.6-21c-.1 0-.1.1-.1.1l-2.5 20.6.1.1h4.3c2.4 0 4.2-1.8 4.6-4.7l1.4-11.4c.2-1.5-.1-2.8-.8-3.6-.6-.7-1.5-1-2.6-1z"/><path d="m368.7 39.7h14.5c.2 0 .4-.2.4-.4l.3-2.5c0-.2-.1-.4-.3-.4h-11c-.1 0-.2-.1-.2-.2l1.1-8.6c0-.1.1-.2.2-.2h7.3c.2 0 .4-.2.4-.4l.3-2.5c0-.2-.1-.4-.3-.4h-7.4c-.1 0-.2-.1-.2-.2l1.1-8.5c0-.1.1-.2.2-.2h11c.2 0 .4-.2.4-.4l.3-2.5c0-.2-.1-.4-.3-.4h-14.5c-.2 0-.4.2-.4.4l-3.3 26.7c0 .5.1.7.4.7z"/><path d="m383.1 39.7h-14.5c-.1 0-.2 0-.3-.1s-.1-.2-.1-.3l3.3-26.6c0-.3.2-.4.5-.4h14.5c.1 0 .2 0 .3.1s.1.2.1.3l-.3 2.5c0 .2-.2.4-.5.4h-11c-.1 0-.1.1-.1.1l-1.1 8.5.1.1h7.2c.1 0 .2 0 .3.1s.1.2.1.3l-.3 2.5c0 .3-.2.4-.5.4h-7.3c-.1 0-.1.1-.1.1l-1.1 8.6.1.1h11c.1 0 .2 0 .3.1s.1.2.1.3l-.3 2.5c.1.2-.1.4-.4.4zm-11.1-27.4c-.2 0-.3.1-.4.3l-3.3 26.6v.3s.1.1.2.1h14.5c.2 0 .3-.1.4-.4l.3-2.5c0-.1 0-.2 0-.3s-.1-.1-.2-.1h-11c-.1 0-.2-.1-.2-.2l1.1-8.6c0-.1.1-.2.2-.2h7.3c.2 0 .3-.1.4-.4l.3-2.5c0-.1 0-.2 0-.3s-.1-.1-.2-.1h-7.4c-.1 0-.2-.1-.2-.2l1.1-8.5c0-.1.1-.2.2-.2h11c.2 0 .4-.1.4-.3l.3-2.5c0-.1 0-.2 0-.3s-.1-.1-.2-.1h-14.6z"/><path d="m387.1 39.7h3c.2 0 .4-.1.5-.4l1.7-4.5c0-.1.1-.1.2-.1h8.4c.1 0 .2 0 .2.1l.5 4.5c0 .2.2.4.4.4h3c.3 0 .4-.2.4-.4l-3.8-26.7c0-.2-.1-.4-.4-.4h-3.6c-.2 0-.4.2-.5.4l-10.3 26.7c-.1.2.1.4.3.4zm6.4-8.2 5.3-14.1c0-.1.1-.1.2 0l1.7 14.1c0 .1-.1.2-.2.2h-6.9c-.1 0-.2-.1-.1-.2z"/><path d="m405 39.7h-3c-.3 0-.4-.2-.4-.4l-.5-4.5c0-.1-.1-.1-.1-.1h-8.4c-.1 0-.1 0-.1.1l-1.7 4.5c-.1.3-.3.4-.5.4h-3c-.1 0-.3-.1-.3-.1 0-.1-.1-.2 0-.4l10.3-26.7c.1-.2.3-.4.5-.4h3.6c.2 0 .4.2.4.4l3.8 26.6c0 .1 0 .3-.1.3-.3.3-.4.3-.5.3zm-12.5-5.1h8.4c.1 0 .2.1.2.2l.5 4.5c0 .3.2.3.3.3h3c.1 0 .2 0 .3-.1s.1-.2.1-.3l-3.8-26.7c0-.2-.1-.3-.3-.3h-3.6c-.2 0-.3.1-.4.3l-10.3 26.7v.3s.1.1.2.1h3c.2 0 .4-.1.4-.3l1.7-4.5c.1-.2.2-.2.3-.2zm7.9-2.9h-6.9c-.1 0-.2 0-.2-.1v-.1l5.2-14.1c0-.1.1-.1.1-.1s.1 0 .1.1l1.7 14.1v.1c.2.1.1.1 0 .1zm-1.6-14.3-5.3 14.2h.1 6.9s.1 0 .1-.1z"/><path d="m409.6 39.7h2.9c.2 0 .4-.2.4-.4l2.2-18.4c0-.2.2-.2.2 0l7 18.5c0 .2.2.3.4.3h2.9c.2 0 .4-.2.4-.4l3.3-26.7c0-.2-.1-.4-.4-.4h-2.8c-.2 0-.4.2-.4.4l-2.3 18.3c0 .2-.1.2-.2 0l-7-18.5c-.1-.2-.2-.3-.4-.3h-2.8c-.2 0-.4.2-.4.4l-3.3 26.7c0 .3.1.5.3.5z"/><path d="m425.7 39.7h-2.9c-.3 0-.4-.1-.5-.3l-7-18.5s0 0-.1.1l-2.2 18.3c0 .3-.2.4-.5.4h-2.9c-.1 0-.2 0-.3-.1s-.1-.2-.1-.3l3.3-26.6c0-.3.2-.4.5-.4h2.9c.2 0 .4.1.5.3l7 18.5.1.1s0 0 0-.1l2.3-18.3c0-.3.2-.4.5-.4h2.8c.1 0 .3 0 .3.1.1.1.1.2.1.3l-3.3 26.6c-.1.1-.3.3-.5.3zm-10.4-19c.1 0 .1 0 .1.1l7 18.5c0 .2.3.2.4.2h2.9c.2 0 .3-.1.3-.3l3.3-26.7c0-.1 0-.2-.1-.2-.1-.1-.1-.1-.2-.1h-2.8c-.2 0-.3.1-.4.3l-2.3 18.3c0 .1-.1.2-.1.2-.1 0-.1 0-.2-.1l-7-18.5c-.1-.2-.2-.2-.4-.2h-2.8c-.2 0-.3.1-.4.3l-3.3 26.6v.3s.1.1.2.1h2.9c.2 0 .3-.1.4-.4l2.2-18.4c.1.1.2 0 .3 0z"/><path d="m433.3 15.5h5.8c.1 0 .2.1.2.2l-2.9 23.6c0 .2.1.4.3.4h2.9c.2 0 .4-.2.4-.4l2.9-23.6c0-.1.1-.2.2-.2h6.1c.2 0 .4-.2.4-.4l.3-2.5c0-.2-.1-.4-.3-.4h-16c-.2 0-.4.2-.4.4l-.3 2.5c.1.3.2.4.4.4z"/><path d="m439.6 39.7h-2.9c-.1 0-.2 0-.3-.1s-.1-.2-.1-.3l2.9-23.6-.1-.1h-5.8c-.3 0-.4-.2-.4-.4l.3-2.5c0-.3.2-.4.5-.4h16c.1 0 .2 0 .3.1s.1.2.1.3l-.3 2.5c0 .2-.2.4-.5.4h-6.1c-.1 0-.1.1-.1.1l-2.9 23.6c-.1.2-.3.4-.6.4zm-5.9-27.4c-.2 0-.3.1-.4.3l-.3 2.5c0 .1 0 .3.3.3h5.8c.1 0 .2.1.2.2l-2.9 23.6v.3s.1.1.2.1h2.9c.2 0 .3-.1.4-.4l2.9-23.6c0-.1.1-.2.2-.2h6.1c.2 0 .4-.1.4-.3l.3-2.5c0-.1 0-.2-.1-.2 0-.1-.1-.1-.2-.1z"/><path d="m456.9 40c4.9 0 8.6-3.3 9.2-8.3l1.4-11.5c.6-4.9-2.2-8.3-7.2-8.3-4.9 0-8.6 3.3-9.2 8.3l-1.4 11.5c-.6 5 2.3 8.3 7.2 8.3zm-3.5-8.1 1.4-11.8c.4-2.9 2.4-4.9 5.1-4.9s4.3 2 4 4.9l-1.4 11.8c-.4 2.9-2.4 4.9-5.1 4.9-2.8-.1-4.4-2-4-4.9z"/><path d="m456.9 40.1c-2.4 0-4.3-.8-5.6-2.2-1.3-1.5-1.9-3.6-1.6-6.1l1.4-11.5c.6-5 4.3-8.3 9.2-8.3 2.4 0 4.4.8 5.7 2.3s1.9 3.6 1.5 6.1l-1.4 11.5c-.6 4.8-4.3 8.2-9.2 8.2zm3.4-28.1c-4.9 0-8.5 3.3-9.1 8.2l-1.4 11.5c-.3 2.5.2 4.6 1.5 6s3.2 2.2 5.5 2.2c4.9 0 8.6-3.3 9.2-8.3l1.4-11.5c.3-2.4-.2-4.5-1.5-6-1.2-1.4-3.2-2.1-5.6-2.1zm-3 24.8c-1.3 0-2.4-.4-3.1-1.3-.8-.9-1.1-2.2-.9-3.7l1.4-11.8c.4-3 2.5-5 5.2-5 1.3 0 2.3.4 3.1 1.2.8.9 1.1 2.2.9 3.8l-1.4 11.8c-.4 3-2.5 5-5.2 5zm2.6-21.6c-2.7 0-4.7 2-5.1 4.9l-1.4 11.8c-.2 1.4.1 2.7.9 3.6.7.8 1.7 1.2 3 1.2 2.7 0 4.7-1.9 5.1-4.8l1.4-11.8c.2-1.5-.1-2.8-.9-3.7-.7-.8-1.7-1.2-3-1.2z"/><path d="m470.4 39.7h2.9c.2 0 .4-.2.4-.4l2.2-18.4c0-.2.2-.2.2 0l7 18.5c0 .2.2.3.4.3h2.9c.2 0 .4-.2.4-.4l3.3-26.7c0-.2-.1-.4-.4-.4h-2.8c-.2 0-.4.2-.4.4l-2.3 18.3c0 .2-.1.2-.2 0l-7-18.5c-.1-.2-.2-.3-.4-.3h-2.9c-.2 0-.4.2-.4.4l-3.3 26.7c0 .3.1.5.4.5z"/><path d="m486.4 39.7h-2.9c-.3 0-.4-.1-.5-.3l-7-18.5s0 0-.1.1l-2.2 18.4c0 .3-.2.4-.5.4h-2.9c-.1 0-.2 0-.3-.1s-.1-.2-.1-.3l3.3-26.6c0-.3.2-.4.5-.4h2.9c.2 0 .4.1.5.3l7 18.5.1.1s0 0 0-.1l2.3-18.3c0-.3.2-.4.5-.4h2.8c.1 0 .3 0 .3.1.1.1.1.2.1.3l-3.3 26.6s-.3.2-.5.2zm-10.4-19c.1 0 .1 0 .1.1l7 18.5c0 .2.3.2.4.2h2.9c.2 0 .3-.1.3-.3l3.3-26.7c0-.1 0-.2-.1-.2-.1-.1-.1-.1-.3-.1h-2.8c-.2 0-.3.1-.4.3l-2.3 18.3c0 .1-.1.2-.1.2-.1 0-.1 0-.2-.1l-7-18.5c-.1-.2-.2-.2-.4-.2h-2.9c-.2 0-.3.1-.4.3l-3.3 26.6v.3s.1.1.2.1h2.9c.2 0 .3-.1.4-.4l2.2-18.4c.4.1.4 0 .5 0z"/><path d="m492.6 39.7h2.9c.2 0 .4-.2.4-.4l3.3-26.7c0-.2-.1-.4-.3-.4h-2.9c-.2 0-.4.2-.4.4l-3.3 26.7c-.1.2 0 .4.3.4z"/><path d="m495.5 39.7h-2.9c-.1 0-.2 0-.3-.1s-.1-.2-.1-.3l3.3-26.6c0-.3.2-.4.5-.4h2.9c.1 0 .2 0 .3.1s.1.2.1.3l-3.3 26.6c-.1.2-.3.4-.5.4zm.4-27.4c-.2 0-.3.1-.4.3l-3.3 26.6v.3s.1.1.2.1h2.9c.2 0 .3-.1.4-.4l3.3-26.6c0-.1 0-.2 0-.3s-.1-.1-.2-.1h-2.9z"/><path d="m511.5 11.9c-4.5 0-7.9 2.6-8.5 7.1-.5 4.5 2.5 6.3 5.8 8.3 3.4 2 5 3.1 4.7 5.5-.3 2.3-2 3.9-4.7 3.9-2.8 0-4.4-1.8-4.1-4.3l.1-.9c0-.2-.1-.4-.4-.4h-2.8c-.2 0-.4.2-.4.4l-.2 1.1c-.5 4.4 2.3 7.3 7.2 7.3 4.8 0 8.3-2.9 8.9-7.4.5-4.3-2.3-6-6.1-8.3-3.4-2-4.9-2.9-4.6-5.4.3-2.4 2-3.8 4.4-3.8 2.9 0 4.3 1.8 4 4.4l-.1.8c0 .2.1.4.4.4h2.8c.2 0 .4-.2.4-.4l.1-.9c.9-4.4-2-7.4-6.9-7.4z"/><path d="m508.4 40c-2.5 0-4.6-.8-5.8-2.2-1.2-1.3-1.6-3.1-1.4-5.2l.2-1.1c0-.2.2-.4.5-.4h2.8c.3 0 .4.2.4.4l-.1.9c-.1 1.2.1 2.2.8 3s1.8 1.2 3.2 1.2c2.5 0 4.4-1.5 4.7-3.9.3-2.5-1.4-3.6-4.7-5.5-3.2-1.8-6.4-3.7-5.9-8.4.5-4.3 3.9-7.1 8.5-7.1 2.5 0 4.5.8 5.8 2.2 1.2 1.4 1.7 3.2 1.4 5.4l-.1.9c0 .3-.2.4-.5.4h-2.8c-.1 0-.3 0-.3-.1-.1-.1-.1-.2-.1-.3l.1-.8c.1-1.3-.2-2.3-.8-3.1-.7-.8-1.8-1.2-3.2-1.2-2.4 0-4.1 1.4-4.4 3.7s1 3.3 4.6 5.3l.1.1c3.8 2.3 6.5 4 6 8.3-.6 4.6-4.1 7.5-9 7.5zm-6.5-8.8c-.2 0-.4.1-.4.3l-.2 1.1c-.3 2 .2 3.8 1.3 5.1 1.3 1.4 3.3 2.2 5.8 2.2 4.8 0 8.3-2.9 8.8-7.3.5-4.2-2.2-5.9-6-8.2l-.1-.1c-3.6-2-4.9-3-4.6-5.4s2-3.8 4.5-3.8c1.4 0 2.5.4 3.2 1.2s1 1.9.9 3.2l-.1.8c0 .1 0 .2.1.2.1.1.1.1.2.1h2.8c.2 0 .3-.1.4-.4l.1-.9c.3-2.1-.2-3.9-1.4-5.3-1.3-1.4-3.2-2.2-5.7-2.2-2.2 0-4.2.6-5.7 1.9-1.5 1.2-2.5 3-2.7 5.2-.6 4.6 2.5 6.4 5.8 8.3 3.2 1.9 5 3.1 4.8 5.6-.3 2.4-2.2 4-4.8 4-1.4 0-2.6-.4-3.3-1.3-.7-.8-1-1.8-.8-3l.1-.9c0-.1 0-.3-.3-.3z"/><path d="m213.9 71.9c-3.3 0-5.6 2.1-6 5.3l-1 8c-.2 1.6.2 2.9 1 3.8.8 1 2.1 1.5 3.7 1.5 3.3 0 5.6-2.1 6-5.4l.5-4c0-.1 0-.2-.1-.3s-.2-.1-.3-.1h-4.7c-.2 0-.4.1-.4.4l-.2 1.6c0 .1 0 .2.1.3 0 .1.1.1.3.1h2.6l-.3 2.3c-.2 1.7-1.4 2.7-3.1 2.7-.8 0-1.5-.3-1.9-.8-.5-.5-.6-1.2-.5-2.1l1-8.1c.2-1.7 1.5-2.9 3.1-2.9.8 0 1.5.3 1.9.7.4.5.6 1.2.5 2l-.1.7c0 .1 0 .2.1.3 0 .1.1.1.3.1h1.9c.2 0 .4-.1.4-.4l.1-.7c.2-1.5-.2-2.7-1-3.7-1-.8-2.3-1.3-3.9-1.3z"/><path d="m211.7 90.5c-1.6 0-2.9-.5-3.8-1.5s-1.2-2.3-1-3.9l1-8c.4-3.2 2.8-5.3 6.1-5.3 1.6 0 2.9.5 3.8 1.5.8.9 1.2 2.2 1 3.7l-.1.7c0 .3-.2.4-.5.4h-1.9c-.2 0-.2-.1-.3-.1-.1-.1-.1-.2-.1-.3l.1-.7c.1-.8-.1-1.5-.5-2s-1.1-.7-1.9-.7c-1.6 0-2.9 1.1-3.1 2.8l-1 8.1c-.1.8.1 1.5.5 2.1.4.5 1.1.7 1.9.7 1.7 0 2.8-1 3-2.7l.3-2.3h-2.5c-.2 0-.3-.1-.3-.1-.1-.1-.1-.2-.1-.3l.2-1.6c0-.3.2-.4.5-.4h4.8c.1 0 .2 0 .3.1s.1.2.1.3l-.5 4c-.3 3.5-2.7 5.5-6 5.5zm2.2-18.5c-3.2 0-5.6 2.1-6 5.2l-1 8c-.2 1.6.1 2.9 1 3.8.8.9 2.1 1.4 3.7 1.4 3.3 0 5.6-2.1 6-5.4l.5-4c0-.1 0-.2-.1-.2-.1-.1-.1-.1-.2-.1h-4.8c-.2 0-.3.1-.4.3l-.2 1.6c0 .1 0 .2.1.3 0 0 .1.1.2.1h2.6v.1l-.3 2.3c-.2 1.7-1.4 2.8-3.1 2.8-.8 0-1.5-.3-1.9-.8-.5-.5-.7-1.3-.5-2.1l1-8.1c.2-1.8 1.5-2.9 3.2-2.9.8 0 1.5.3 1.9.8.5.5.6 1.2.5 2.1l-.1.7c0 .1 0 .2.1.3s.1.1.2.1h1.9c.2 0 .3-.1.4-.3l.1-.7c.2-1.5-.2-2.7-1-3.6-.9-1.2-2.2-1.7-3.8-1.7z"/><path d="m235.7 72.1h-5.6c-.2 0-.4.1-.4.4l-2.1 17.4c0 .1 0 .2.1.3 0 0 .1.1.3.1h1.9c.2 0 .4-.1.4-.4l.9-7.6h2.6l2 7.7c0 .2.2.3.4.3h1.9c.1 0 .2 0 .3-.1s.1-.2 0-.3l-2.1-7.8c1.9-.7 3.3-2.4 3.5-4.7.2-1.6-.1-3-1-4-.7-.9-1.8-1.3-3.1-1.3zm-3.6 2.4h3c.6 0 1.2.2 1.5.6.4.5.6 1.3.5 2.2-.2 1.7-1.3 2.8-2.8 2.8h-3z"/><path d="m238 90.3h-1.9c-.2 0-.4-.1-.4-.3l-2-7.6h-2.5l-.9 7.6c0 .2-.2.4-.5.4h-1.9c-.2 0-.3-.1-.3-.1-.1-.1-.1-.2-.1-.3l2.1-17.4c0-.2.2-.4.5-.4h5.6c1.3 0 2.4.5 3.2 1.3.8 1 1.2 2.4 1 4-.3 2.3-1.6 4.1-3.5 4.8l2.1 7.7c0 .1 0 .3-.1.4-.1-.1-.3-.1-.4-.1zm-6.9-8h2.6l2 7.7c0 .2.1.3.3.3h1.9c.1 0 .2 0 .3-.1s.1-.2 0-.3l-2.1-7.8c1.9-.7 3.2-2.4 3.5-4.7.2-1.6-.1-3-1-3.9-.7-.8-1.8-1.3-3.1-1.3h-5.6c-.2 0-.3.1-.4.3l-2.1 17.4c0 .1 0 .2.1.3 0 0 .1.1.2.1h1.9c.2 0 .3-.1.4-.3zm3.3-2.1h-3v-.1l.7-5.7h3c.7 0 1.2.2 1.6.7.5.5.6 1.3.5 2.3-.2 1.6-1.3 2.8-2.8 2.8zm-3-.1h2.9c1.4 0 2.6-1.1 2.7-2.8.1-.9-.1-1.7-.5-2.2-.4-.4-.9-.6-1.5-.6h-3z"/><path d="m257.5 72.1h-2.3c-.2 0-.3.1-.4.3l-6.8 17.4c-.1.2 0 .3 0 .3.1.1.2.1.3.1h1.9c.2 0 .4-.1.4-.3l1.1-3h5.5l.4 2.9c0 .2.2.3.4.3h1.9c.2 0 .3-.1.3-.1 0-.1.1-.1.1-.3l-2.5-17.4c.1 0-.1-.2-.3-.2zm-.5 12.7h-4.4l3.3-8.9z"/><path d="m260 90.3h-2c-.3 0-.4-.2-.4-.4l-.3-2.9h-5.4l-1.1 2.9c-.1.2-.2.3-.5.3h-1.9c-.1 0-.3-.1-.3-.2s-.1-.2 0-.4l6.7-17.4c.1-.2.3-.3.5-.3h2.3c.2 0 .4.2.4.4l2.5 17.4c0 .2 0 .3-.1.3-.1.3-.2.3-.4.3zm-8.2-3.3h5.6l.4 2.9c0 .2.1.3.3.3h1.9c.1 0 .2-.1.3-.1.1-.1.1-.2.1-.3l-2.5-17.4c0-.2-.1-.3-.3-.3h-2.3c-.2 0-.3.1-.4.3l-6.7 17.4c-.1.1 0 .2 0 .3s.1.1.2.1h1.9c.2 0 .3-.1.4-.3zm5.3-2.1h-4.5v-.1l3.4-9.1v.2zm-4.4-.1h4.3l-1.1-8.6z"/><path d="m278.4 72.1h-5.6c-.2 0-.4.1-.4.4l-2.1 17.4c0 .1 0 .2.1.3 0 0 .1.1.3.1h1.9c.2 0 .4-.1.4-.4l.9-7.3h3.3c2.9 0 5.1-2.1 5.4-5.2.2-1.6-.2-3.1-1-4s-1.9-1.3-3.2-1.3zm-.6 2.4c.7 0 1.2.2 1.6.7.5.5.7 1.3.5 2.3-.2 1.8-1.4 2.9-2.9 2.9h-2.9l.7-5.9z"/><path d="m272.5 90.3h-1.9c-.2 0-.2-.1-.3-.1-.1-.1-.1-.2-.1-.3l2.1-17.4c0-.2.2-.4.5-.4h5.6c1.3 0 2.4.5 3.2 1.3.9 1 1.2 2.4 1 4.1-.4 3.1-2.6 5.2-5.5 5.2h-3.3l-.9 7.3c0 .2-.1.3-.4.3zm.3-18.2c-.2 0-.3.1-.4.3l-2.1 17.4c0 .1 0 .2.1.3 0 0 .1.1.2.1h1.9c.2 0 .3-.1.4-.3l.9-7.4h3.4c2.9 0 5-2.1 5.4-5.1.2-1.6-.1-3-1-4-.7-.8-1.8-1.3-3.1-1.3zm4.2 8.3h-3v-.1l.7-5.9h3c.7 0 1.3.2 1.7.7.5.5.7 1.3.6 2.3-.2 1.8-1.4 3-3 3zm-2.8-.1h2.9c1.5 0 2.7-1.2 2.9-2.9.1-1-.1-1.7-.5-2.3-.4-.4-.9-.6-1.6-.6h-2.9z"/><path d="m303.4 72.1h-1.9c-.2 0-.4.1-.4.4l-.9 7.5h-5.4l.9-7.5c0-.1 0-.2-.1-.3 0 0-.1-.1-.3-.1h-1.9c-.2 0-.4.1-.4.4l-2 17.4c0 .1 0 .2.1.3 0 0 .1.1.3.1h1.9c.2 0 .4-.1.4-.4l.9-7.6h5.4l-.9 7.5c0 .1 0 .2.1.3s.2.1.3.1h1.9c.2 0 .4-.1.4-.4l2.2-17.4c-.2-.1-.3-.3-.6-.3z"/><path d="m301.2 90.3h-1.9c-.1 0-.2 0-.3-.1s-.1-.2-.1-.3l.9-7.5h-5.3l-.9 7.5c0 .2-.2.4-.5.4h-1.9c-.2 0-.3-.1-.3-.1s-.1-.2-.1-.3l2.1-17.4c0-.2.2-.4.5-.4h1.9c.2 0 .2.1.3.1.1.1.1.2.1.3l-.9 7.4h5.3l.9-7.5c0-.1 0-.2.1-.3s.2-.1.3-.1h1.9c.2 0 .4.2.4.4l-2.2 17.4c.1.4 0 .5-.3.5zm-6.6-8h5.4v.1l-.9 7.5c0 .1 0 .2.1.2.1.1.1.1.2.1h1.9c.2 0 .3-.1.4-.3l2.2-17.4c0-.2-.1-.3-.3-.3h-1.9c-.1 0-.2 0-.2.1 0 0-.1.1-.1.2l-.9 7.5h-5.4l.9-7.5c0-.1 0-.2-.1-.3s-.1-.1-.2-.1h-1.9c-.2 0-.3.1-.4.3l-2.1 17.4c0 .1 0 .2.1.3 0 0 .1.1.2.1h1.9c.2 0 .3-.1.4-.3z"/><path d="m317 72.1h-1.9c-.2 0-.4.1-.4.4l-2.1 17.4c0 .1 0 .2.1.3 0 0 .1.1.3.1h1.9c.2 0 .4-.1.4-.4l2.1-17.4c0-.1 0-.2-.1-.3 0 0-.1-.1-.3-.1z"/><path d="m314.8 90.3h-1.9c-.2 0-.3-.1-.3-.1-.1-.1-.1-.2-.1-.3l2.1-17.4c0-.2.2-.4.5-.4h1.9c.2 0 .2.1.3.1.1.1.1.2.1.3l-2.1 17.4c-.1.3-.2.4-.5.4zm.3-18.1c-.2 0-.3.1-.4.3l-2.1 17.4c0 .1 0 .2.1.3 0 0 .1.1.2.1h1.9c.2 0 .3-.1.4-.3l2.1-17.4c0-.1 0-.2-.1-.3s-.1-.1-.2-.1z"/><path d="m333.4 71.9c-3.3 0-5.6 2.1-6 5.3l-1 7.9c-.2 1.6.2 2.9 1 3.9.9 1 2.2 1.5 3.8 1.5 3.2 0 5.6-2.1 6-5.3v-.2c0-.1 0-.2-.1-.2-.1-.1-.2-.1-.3-.1l-1.9-.1c-.2 0-.4.1-.4.4v.4c-.2 1.7-1.5 2.9-3.1 2.9-.8 0-1.5-.3-1.9-.8s-.6-1.2-.5-2.1l1-8.1c.2-1.7 1.5-2.9 3.1-2.9.8 0 1.4.3 1.9.7.5.5.6 1.2.5 2.1l-.1.4c0 .1 0 .2.1.3 0 0 .1.1.3.1l1.9-.1c.2 0 .4-.2.4-.4v-.2c.2-1.5-.2-2.9-1-3.8-.8-1.1-2.1-1.6-3.7-1.6z"/><path d="m331.2 90.5c-1.6 0-2.9-.5-3.8-1.5s-1.2-2.3-1-4l1-7.9c.4-3.3 2.8-5.4 6.1-5.4 1.6 0 2.9.5 3.8 1.5.8 1 1.2 2.3 1 3.9v.2c0 .1 0 .2-.1.3s-.2.1-.3.1l-1.9.1c-.2 0-.3-.1-.3-.1-.1-.1-.1-.2-.1-.3v-.4c.1-.8-.1-1.5-.5-2s-1.1-.7-1.8-.7c-1.6 0-2.9 1.1-3.1 2.8l-1 8.1c-.1.8.1 1.5.5 2s1.1.7 1.9.7c1.6 0 2.9-1.1 3.1-2.8v-.3c0-.3.2-.4.5-.4l1.9.1c.1 0 .3.1.3.1.1.1.1.2.1.3v.2c-.6 3.3-3.1 5.4-6.3 5.4zm2.2-18.5c-3.2 0-5.6 2.1-6 5.3l-1 7.9c-.2 1.6.2 2.9 1 3.9s2.1 1.5 3.7 1.5c3.2 0 5.6-2.1 6-5.2v-.2c0-.1 0-.1 0-.2-.1-.1-.1-.1-.3-.1l-1.9-.1c-.2 0-.3.1-.4.3v.3c-.2 1.7-1.5 2.9-3.2 2.9-.8 0-1.5-.3-1.9-.8-.5-.5-.6-1.3-.5-2.1l1-8.1c.2-1.7 1.5-2.9 3.2-2.9.8 0 1.5.3 1.9.8.5.5.7 1.3.6 2.1l-.1.4c0 .1 0 .2.1.3 0 0 .1.1.2.1l1.9-.1c.1 0 .2 0 .3-.1s.1-.2.1-.2v-.2c.2-1.5-.1-2.8-1-3.8-.8-1.2-2.1-1.7-3.7-1.7z"/><path d="m366.1 72.1h-5c-.2 0-.4.1-.4.4l-2.1 17.4c0 .1 0 .2.1.3 0 0 .1.1.3.1h5c3.1 0 5.4-2 5.8-5.1l1-8c.2-1.5-.1-2.8-.9-3.7-1-.9-2.3-1.4-3.8-1.4zm-.3 2.4c.7 0 1.3.2 1.6.7.5.5.6 1.3.5 2.3l-.9 7.5c-.2 1.8-1.4 3-2.9 3h-2.8l1.7-13.4z"/><path d="m363.9 90.3h-5c-.2 0-.3-.1-.3-.1-.1-.1-.1-.2-.1-.3l2.1-17.4c0-.2.2-.4.5-.4h5c1.6 0 2.9.5 3.7 1.4s1.1 2.2 1 3.7l-1 8c-.5 3.1-2.8 5.1-5.9 5.1zm-2.9-18.1c-.2 0-.3.1-.4.3l-2.1 17.4c0 .1 0 .2.1.3 0 0 .1.1.2.1h5c3.1 0 5.4-2 5.8-5l1-8c.2-1.5-.1-2.8-.9-3.6-.8-.9-2.1-1.4-3.6-1.4h-5.1zm.3 15.8 1.7-13.5h2.9c.7 0 1.3.2 1.7.7.5.5.7 1.3.5 2.3l-.9 7.5c-.2 1.9-1.4 3-2.9 3zm1.7-13.5-1.6 13.3h2.8c1.5 0 2.6-1.1 2.8-2.9l.9-7.5c.1-1-.1-1.8-.5-2.3-.4-.4-.9-.6-1.6-.6z"/><path d="m391.6 72.1h-9.5c-.2 0-.4.1-.4.4l-2.1 17.4c0 .1 0 .2.1.3 0 0 .1.1.3.1h9.5c.2 0 .4-.1.4-.4l.2-1.6c0-.1 0-.2-.1-.3 0-.1-.1-.1-.3-.1h-7.2l.7-5.6h4.7c.2 0 .4-.1.4-.4l.2-1.6c0-.1 0-.2-.1-.3 0-.1-.1-.1-.3-.1h-4.7l.7-5.5h7.2c.2 0 .4-.2.4-.4l.2-1.6c0-.1 0-.2-.1-.3 0 .1-.1 0-.2 0z"/><path d="m389.4 90.3h-9.5c-.2 0-.3-.1-.3-.1-.1-.1-.1-.2-.1-.3l2.1-17.4c0-.2.2-.4.5-.4h9.5c.2 0 .3.1.3.1.1.1.1.2.1.3l-.2 1.6c0 .1 0 .2-.1.3s-.2.1-.3.1h-7.1l-.7 5.4h4.7c.2 0 .3.1.3.1.1.1.1.2.1.3l-.2 1.6c0 .3-.2.4-.5.4h-4.7l-.7 5.5h7.1c.2 0 .3.1.3.1.1.1.1.2.1.3l-.2 1.6c-.1.4-.3.5-.5.5zm-7.3-18.1c-.2 0-.3.1-.4.3l-2.1 17.4c0 .1 0 .2.1.3 0 0 .1.1.2.1h9.5c.2 0 .3-.1.4-.3l.2-1.6c0-.1 0-.2-.1-.3 0 0-.1-.1-.2-.1h-7.2l.7-5.6h4.8c.2 0 .3-.1.4-.3l.2-1.6c0-.1 0-.2-.1-.3 0 0-.1-.1-.2-.1h-4.8v-.1l.7-5.5h7.2c.1 0 .2 0 .3-.1s.1-.1.1-.2l.2-1.6c0-.1 0-.2-.1-.3 0 0-.1-.1-.2-.1z"/><path d="m406.9 71.9c-3.1 0-5.3 1.9-5.7 4.7-.4 3.1 1.8 4.3 3.9 5.6 2.3 1.3 3.2 2 3 3.5s-1.3 2.5-3 2.5c-.9 0-1.6-.3-2-.8s-.6-1.1-.5-1.9l.1-.6c0-.2-.1-.4-.4-.4h-1.8c-.2 0-.4.2-.4.4l-.1.7c-.2 1.4.1 2.6.9 3.4.9 1 2.2 1.5 3.9 1.5 3.2 0 5.5-1.9 5.9-4.9.3-2.8-1.5-4-4-5.5h-.1c-2.3-1.3-3.1-1.9-2.9-3.4s1.2-2.3 2.8-2.3c.9 0 1.6.3 2 .8s.6 1.2.5 1.9l-.1.5c0 .1 0 .2.1.3s.2.1.3.1h1.8c.2 0 .4-.1.4-.4l.1-.6c.2-1.4-.2-2.7-1-3.6-.7-1-2.1-1.5-3.7-1.5z"/><path d="m404.8 90.5c-1.7 0-3.1-.5-3.9-1.5-.8-.9-1.1-2.1-.9-3.5l.1-.7c0-.1 0-.2.1-.3s.2-.1.3-.1h1.8c.2 0 .4.2.4.4l-.1.6c-.1.7.1 1.4.5 1.8.4.5 1.1.8 2 .8 1.6 0 2.7-.9 2.9-2.4.2-1.4-.7-2.1-3-3.4-2.1-1.2-4.3-2.5-3.9-5.6.4-2.9 2.6-4.8 5.7-4.8 1.7 0 3 .5 3.9 1.5.8.9 1.1 2.2 1 3.6l-.1.6c0 .2-.2.4-.5.4h-1.8c-.1 0-.2 0-.3-.1s-.1-.2-.1-.3l.1-.5c.1-.8-.1-1.4-.5-1.9s-1.1-.7-2-.7c-1.5 0-2.5.9-2.7 2.3-.2 1.5.6 2 2.9 3.3h.1c2.5 1.6 4.3 2.7 4 5.6-.4 3-2.7 4.9-6 4.9zm-4.3-6c-.1 0-.2 0-.3.1s-.1.1-.1.2l-.1.7c-.2 1.4.1 2.5.9 3.4.9 1 2.2 1.5 3.9 1.5 3.2 0 5.5-1.9 5.9-4.9.3-2.8-1.5-3.9-3.9-5.5h-.1c-2.3-1.3-3.1-1.9-3-3.4.2-1.5 1.2-2.4 2.8-2.4.9 0 1.6.3 2 .8s.6 1.2.5 2l-.1.5c0 .1 0 .2.1.2.1.1.1.1.2.1h1.8c.2 0 .3-.1.4-.3l.1-.6c.2-1.4-.2-2.6-.9-3.5-.9-1-2.2-1.5-3.8-1.5-3.1 0-5.3 1.8-5.6 4.7-.4 3 1.8 4.3 3.9 5.5 2.3 1.3 3.2 2 3.1 3.5-.2 1.5-1.4 2.5-3 2.5-.9 0-1.6-.3-2.1-.8-.4-.5-.6-1.1-.5-1.9l.1-.6c0-.2-.1-.3-.3-.3z"/><path d="m424.9 72.1h-1.9c-.2 0-.4.1-.4.4l-2.1 17.4c0 .1 0 .2.1.3 0 0 .1.1.3.1h1.9c.2 0 .4-.1.4-.4l2.1-17.4c0-.1 0-.2-.1-.3-.1 0-.2-.1-.3-.1z"/><path d="m422.7 90.3h-1.9c-.2 0-.2-.1-.3-.1-.1-.1-.1-.2-.1-.3l2.1-17.4c0-.2.2-.4.5-.4h1.9c.2 0 .2.1.3.1.1.1.1.2.1.3l-2.1 17.4c-.1.3-.3.4-.5.4zm.3-18.1c-.2 0-.3.1-.4.3l-2.1 17.4c0 .1 0 .2.1.3 0 0 .1.1.2.1h1.9c.2 0 .3-.1.4-.3l2.1-17.4c0-.1 0-.2-.1-.3 0 0-.1-.1-.2-.1z"/><path d="m441.3 71.9c-3.3 0-5.6 2.1-6 5.3l-1 8c-.2 1.6.2 2.9 1 3.8.8 1 2.1 1.5 3.7 1.5 3.3 0 5.6-2.1 6-5.4l.5-4c0-.1 0-.2-.1-.3s-.2-.1-.3-.1h-4.8c-.2 0-.4.1-.4.4l-.2 1.6c0 .1 0 .2.1.3 0 0 .1.1.3.1h2.6l-.3 2.3c-.2 1.7-1.4 2.7-3.1 2.7-.8 0-1.5-.3-1.9-.8-.5-.5-.6-1.2-.5-2.1l1-8.1c.2-1.7 1.5-2.9 3.1-2.9.8 0 1.5.3 1.9.7.4.5.6 1.2.5 2l-.1.7c0 .1 0 .2.1.3 0 0 .1.1.3.1h1.9c.2 0 .4-.1.4-.4l.1-.7c.2-1.5-.2-2.7-1-3.7-.9-.8-2.2-1.3-3.8-1.3z"/><path d="m439 90.5c-1.6 0-2.9-.5-3.8-1.5s-1.2-2.3-1-3.9l1-8c.4-3.2 2.8-5.3 6.1-5.3 1.6 0 2.9.5 3.8 1.5.8.9 1.2 2.2 1 3.7l-.1.7c0 .3-.2.4-.5.4h-1.9c-.2 0-.2-.1-.3-.1-.1-.1-.1-.2-.1-.3l.1-.7c.1-.8-.1-1.5-.5-2s-1.1-.7-1.9-.7c-1.6 0-2.9 1.1-3.1 2.8l-1 8.1c-.1.8.1 1.5.5 2.1.4.5 1.1.7 1.9.7 1.7 0 2.8-1 3-2.7l.3-2.3h-2.5c-.2 0-.2-.1-.3-.1-.1-.1-.1-.2-.1-.3l.2-1.6c0-.3.2-.4.5-.4h4.8c.1 0 .2 0 .3.1s.1.2.1.3l-.5 4c-.3 3.5-2.6 5.5-6 5.5zm2.3-18.5c-3.2 0-5.6 2.1-6 5.2l-1 8c-.2 1.6.1 2.9 1 3.8.8.9 2.1 1.4 3.7 1.4 3.3 0 5.6-2.1 6-5.4l.5-4c0-.1 0-.2-.1-.2-.1-.1-.1-.1-.2-.1h-4.8c-.2 0-.3.1-.4.3l-.2 1.6c0 .1 0 .2.1.3 0 0 .1.1.2.1h2.6v.1l-.3 2.3c-.2 1.7-1.4 2.8-3.1 2.8-.8 0-1.5-.3-1.9-.8-.5-.5-.7-1.3-.5-2.1l1-8.1c.2-1.8 1.5-2.9 3.2-2.9.8 0 1.5.3 1.9.8.5.5.6 1.2.5 2.1l-.1.7c0 .1 0 .2.1.3s.1.1.2.1h1.9c.2 0 .3-.1.4-.3l.1-.7c.2-1.5-.2-2.7-1-3.6-.9-1.2-2.2-1.7-3.8-1.7z"/><path d="m467.9 72.1h-1.8c-.2 0-.4.1-.4.4l-1.5 11.7-4.5-11.8c-.1-.2-.2-.3-.4-.3h-1.9c-.2 0-.4.1-.4.4l-2 17.4c0 .1 0 .2.1.3 0 0 .1.1.3.1h1.9c.2 0 .4-.1.4-.4l1.4-11.8 4.5 11.9c0 .2.2.3.4.3h1.9c.2 0 .4-.1.4-.4l2.2-17.4c0-.1 0-.2-.1-.3-.2 0-.3-.1-.5-.1z"/><path d="m465.8 90.3h-1.9c-.2 0-.4-.1-.5-.3l-4.4-11.6-1.4 11.6c0 .2-.2.4-.5.4h-1.9c-.2 0-.2-.1-.3-.1-.1-.1-.1-.2-.1-.3l2.1-17.4c0-.2.2-.4.5-.4h1.9c.2 0 .4.1.4.3l4.4 11.7 1.4-11.5c0-.2.2-.4.5-.4h1.8c.1 0 .2 0 .3.1s.1.2.1.3l-2.2 17.4c0 .1 0 .2-.2.2.2 0 .1 0 0 0zm-6.8-12.4.1.2 4.5 11.9c0 .2.2.2.4.2h1.9c.1 0 .2 0 .2-.1 0 0 .1-.1.1-.2l2.2-17.4c0-.1 0-.2-.1-.2-.1-.1-.1-.1-.2-.1h-1.8c-.2 0-.3.1-.4.3l-1.5 11.9-.1-.2-4.5-11.8c-.1-.1-.2-.2-.4-.2h-1.9c-.2 0-.3.1-.4.3l-2.1 17.4c0 .1 0 .2.1.3 0 0 .1.1.2.1h1.9c.2 0 .3-.1.4-.3z"/><path d="m489 72.1h-9.5c-.2 0-.4.1-.4.4l-2.1 17.4c0 .1 0 .2.1.3 0 0 .1.1.3.1h9.5c.2 0 .4-.1.4-.4l.2-1.6c0-.1 0-.2-.1-.3 0-.1-.1-.1-.3-.1h-7.2l.7-5.6h4.7c.2 0 .4-.1.4-.4l.2-1.6c0-.1 0-.2-.1-.3s-.2-.1-.3-.1h-4.7l.7-5.5h7.2c.2 0 .4-.2.4-.4l.2-1.6c0-.1 0-.2-.1-.3 0 .1-.1 0-.2 0z"/><path d="m486.8 90.3h-9.5c-.2 0-.3-.1-.3-.1-.1-.1-.1-.2-.1-.3l2.1-17.4c0-.2.2-.4.5-.4h9.5c.2 0 .2.1.3.1.1.1.1.2.1.3l-.2 1.6c0 .1 0 .2-.1.3s-.2.1-.3.1h-7.1l-.7 5.4h4.7c.1 0 .2 0 .3.1s.1.2.1.3l-.2 1.6c0 .3-.2.4-.5.4h-4.7l-.7 5.5h7.1c.2 0 .2.1.3.1.1.1.1.2.1.3l-.2 1.6c-.1.4-.3.5-.5.5zm-7.3-18.1c-.2 0-.3.1-.4.3l-2.1 17.4c0 .1 0 .2.1.3 0 0 .1.1.2.1h9.5c.2 0 .3-.1.4-.3l.2-1.6c0-.1 0-.2-.1-.3 0 0-.1-.1-.2-.1h-7.2l.7-5.6h4.8c.2 0 .3-.1.4-.3l.2-1.6c0-.1 0-.2-.1-.3 0-.1-.1-.1-.2-.1h-4.8v-.1l.7-5.5h7.2c.1 0 .2 0 .3-.1s.1-.1.1-.2l.2-1.6c0-.1 0-.2-.1-.3 0 0-.1-.1-.2-.1z"/><path d="m505.6 72.1h-5.6c-.2 0-.4.1-.4.4l-2.1 17.4c0 .1 0 .2.1.3 0 0 .1.1.3.1h1.9c.2 0 .4-.1.4-.4l.9-7.6h2.6l2 7.7c0 .2.2.3.4.3h1.9c.1 0 .2 0 .3-.1s.1-.2 0-.3l-2.1-7.8c1.9-.7 3.3-2.4 3.5-4.7.2-1.6-.1-3-1-4-.7-.9-1.8-1.3-3.1-1.3zm1.5 5.2c-.2 1.7-1.3 2.8-2.8 2.8h-3l.7-5.7h3c.6 0 1.2.2 1.5.6.5.6.7 1.4.6 2.3z"/><path d="m507.9 90.3h-1.9c-.2 0-.4-.1-.4-.3l-2-7.6h-2.5l-.9 7.6c0 .2-.2.4-.5.4h-1.9c-.2 0-.2-.1-.3-.1 0 0-.1-.2-.1-.3l2.1-17.4c0-.2.2-.4.5-.4h5.6c1.3 0 2.4.5 3.2 1.3.8 1 1.2 2.4 1 4-.3 2.3-1.6 4.1-3.5 4.8l2.1 7.7c0 .1 0 .3-.1.4-.1-.1-.3-.1-.4-.1zm-6.9-8h2.6l2 7.7c0 .2.1.3.3.3h1.9c.1 0 .2 0 .3-.1s.1-.2 0-.3l-2.1-7.8c1.9-.7 3.2-2.4 3.5-4.7.2-1.6-.1-3-1-3.9-.7-.8-1.8-1.3-3.1-1.3h-5.4c-.2 0-.3.1-.4.3l-2.1 17.4c0 .1 0 .2.1.3 0 0 .1.1.2.1h1.9c.2 0 .3-.1.4-.3zm3.3-2.1h-3v-.1l.7-5.7h3c.7 0 1.2.2 1.6.7.5.5.6 1.3.5 2.3-.2 1.6-1.3 2.8-2.8 2.8zm-3-.1h2.9c1.4 0 2.6-1.1 2.7-2.8.1-.9-.1-1.7-.5-2.2-.4-.4-.9-.6-1.5-.6h-3z"/><path d="m209 56.1.2-1.8h304.7l-.2 1.8z"/><path d="m513.7 56.1h-304.8v-.1l.2-1.8h304.9v.1zm-304.7-.1h304.6l.2-1.7h-304.6z"/><path d="m166.9 8.6c-11.8-6.1-24.5-6.1-37.5-6.1h-46.7c.1.1.2.1.3.2 1.5 1.1 2.9 2.4 4.1 3.8 2 2.2 3.7 4.8 4.9 7.5h23l-18.2 70.2h-13.1c-3.2 4.3-7.1 8.4-11.9 11.7h43.9c23 0 46.1-2.2 61.6-21.3 5.2-6.4 8.7-13.5 10.4-21 .8-3.4 1.2-6.8 1.2-10.1 0-7.1-1.8-13.9-5.5-20-3.4-6.1-9-11.1-16.5-14.9zm-4.2 51.8c-2.7 6.6-8 12.2-15.5 16.9-7.3 4.5-17.6 6.9-30.5 7l18.8-70.3c10.5.2 18.4 2.4 23.5 6.4 5.4 4.2 8 10.1 8 17.9.1 7.8-1.4 15.2-4.3 22.1z"/><path d="m92.4 66.6 3.4-12.8h-49.3v12.6h15l8.8.1c-3.7 6.6-8.4 12.9-14.9 16.7-6.6 3.8-15.3 4.8-21.8.9-4.1-2.5-7-6.6-8.6-11.1s-2-9.4-1.8-14.2c.3-9.9 2.8-19.8 7.1-28.7 2.7-5.6 6.3-11.1 11.6-14.5 9.1-6 22.5-4.3 29.8 3.8-4.9.2-9.6 3.6-11.1 8.2-1.4 4.7.7 10.3 5.1 12.6 2.4 1.2 5.2 1.4 7.9 1.2 2.6-.2 5.3-.9 7.4-2.4 3.7-2.7 5.2-7.7 5.1-12.3-.1-6.2-2.5-12.3-6.6-16.9-1.1-1.2-2.2-2.2-3.4-3.1-3.5-2.6-7.5-4.2-11.9-5.1-6-1.3-11.9-2-18.1-1.2-7.7 1-15.2 3.8-21.7 8.2-11.3 7.6-19.3 19.7-22.7 33-2.3 9.3-2.4 19.4.6 28.6 2.6 7.7 7.4 14.8 13.9 19.7 6.8 5.2 15.3 7.9 23.8 8.3 8 .4 16.1-1.2 23-5.2 9.9-5.8 16.3-16 21.2-26.4z"/></svg>