<?xml version="1.0" encoding="utf-8"?>
<!-- Generator: Adobe Illustrator 21.0.2, SVG Export Plug-In . SVG Version: 6.00 Build 0)  -->
<svg version="1.1" id="Layer_1" xmlns="http://www.w3.org/2000/svg" xmlns:xlink="http://www.w3.org/1999/xlink" x="0px" y="0px"
	 viewBox="0 0 518.9 98.3" style="enable-background:new 0 0 518.9 98.3;" xml:space="preserve">
<g>
	<g>
		<path d="M216.9,40c4.8,0,8.4-3,9.1-8.1l0.7-6.1c0-0.2-0.1-0.4-0.4-0.4h-7.4c-0.2,0-0.4,0.2-0.4,0.4l-0.3,2.4
			c0,0.2,0.1,0.4,0.3,0.4h4c0.1,0,0.2,0.1,0.1,0.2l-0.4,3.6c-0.3,2.7-2.2,4.4-4.9,4.4s-4.3-1.8-3.9-4.6l1.5-12.4
			c0.4-2.7,2.4-4.6,5-4.6c2.7,0,4.2,1.8,3.9,4.4l-0.1,1.1c0,0.2,0.1,0.4,0.3,0.4h2.9c0.2,0,0.4-0.2,0.4-0.4l0.1-1.1
			c0.5-4.5-2.3-7.7-7.1-7.7c-4.9,0-8.4,3.1-9,7.9L209.8,32C209.2,36.8,212,40,216.9,40z"/>
		<path d="M216.9,40c-2.4,0-4.3-0.8-5.6-2.2s-1.8-3.4-1.5-5.8l1.5-12.2c0.3-2.4,1.3-4.4,2.9-5.8c1.6-1.4,3.7-2.2,6.1-2.2
			c2.4,0,4.4,0.8,5.7,2.2c1.2,1.4,1.7,3.3,1.5,5.5l-0.1,1.1c0,0.3-0.2,0.4-0.5,0.4H224c-0.1,0-0.2,0-0.3-0.1s-0.1-0.2-0.1-0.3
			l0.1-1.1c0.2-1.3-0.1-2.4-0.8-3.2c-0.7-0.8-1.7-1.2-3-1.2c-2.6,0-4.6,1.8-4.9,4.5L213.5,32c-0.2,1.3,0.1,2.5,0.8,3.3
			s1.7,1.2,3,1.2c2.7,0,4.5-1.7,4.8-4.3l0.4-3.7l0,0c0,0,0,0-0.1,0h-4c-0.1,0-0.2,0-0.3-0.1s-0.1-0.2-0.1-0.3l0.3-2.4
			c0-0.3,0.2-0.4,0.5-0.4h7.4c0.1,0,0.3,0,0.3,0.1c0.1,0.1,0.1,0.2,0.1,0.3l-0.7,6.1C225.4,36.9,221.9,40,216.9,40z M220.3,12
			c-4.9,0-8.4,3.1-9,7.9l-1.5,12.2c-0.3,2.3,0.2,4.3,1.5,5.7s3.2,2.2,5.5,2.2c4.9,0,8.4-3.1,9-8.1l0.7-6.1c0-0.1,0-0.2-0.1-0.2
			c-0.1-0.1-0.1-0.1-0.2-0.1h-7.4c-0.2,0-0.3,0.1-0.4,0.4l-0.3,2.4c0,0.1,0,0.2,0,0.3c0,0.1,0.1,0.1,0.2,0.1h4c0.1,0,0.1,0,0.2,0.1
			v0.1l-0.4,3.6c-0.3,2.7-2.2,4.4-4.9,4.4c-1.3,0-2.4-0.4-3.1-1.3c-0.7-0.8-1-2-0.9-3.4l1.5-12.4c0.4-2.8,2.4-4.6,5-4.6
			c1.3,0,2.4,0.4,3.1,1.2c0.7,0.8,1,1.9,0.9,3.3l-0.1,1.1c0,0.1,0,0.2,0,0.3c0,0.1,0.1,0.1,0.2,0.1h2.9c0.2,0,0.3-0.1,0.4-0.3
			l0.1-1.1c0.3-2.2-0.2-4.1-1.5-5.4C224.6,12.7,222.7,12,220.3,12z"/>
	</g>
	<g>
		<path d="M230,39.7h2.9c0.2,0,0.4-0.2,0.4-0.4l3.3-26.7c0-0.2-0.1-0.4-0.3-0.4h-2.9c-0.2,0-0.4,0.2-0.4,0.4l-3.3,26.7
			C229.6,39.5,229.7,39.7,230,39.7z"/>
		<path d="M232.9,39.7H230c-0.1,0-0.2,0-0.3-0.1s-0.1-0.2-0.1-0.3l3.3-26.6c0-0.3,0.2-0.4,0.5-0.4h2.9c0.1,0,0.2,0,0.3,0.1
			s0.1,0.2,0.1,0.3l-3.3,26.6C233.3,39.5,233.1,39.7,232.9,39.7z M233.3,12.3c-0.2,0-0.3,0.1-0.4,0.3l-3.3,26.6c0,0.1,0,0.2,0,0.3
			s0.1,0.1,0.2,0.1h2.9c0.2,0,0.3-0.1,0.4-0.4l3.3-26.6c0-0.1,0-0.2,0-0.3s-0.1-0.1-0.2-0.1h-2.9V12.3z"/>
	</g>
	<g>
		<path d="M239.1,39.7h2.9c0.2,0,0.4-0.2,0.4-0.4l2.2-18.4c0-0.2,0.2-0.2,0.2,0l7,18.5c0,0.2,0.2,0.3,0.4,0.3h2.9
			c0.2,0,0.4-0.2,0.4-0.4l3.3-26.7c0-0.2-0.1-0.4-0.4-0.4h-2.8c-0.2,0-0.4,0.2-0.4,0.4l-2.3,18.3c0,0.2-0.1,0.2-0.2,0l-7-18.5
			c-0.1-0.2-0.2-0.3-0.4-0.3h-2.9c-0.2,0-0.4,0.2-0.4,0.4l-3.3,26.7C238.8,39.5,238.9,39.7,239.1,39.7z"/>
		<path d="M255.1,39.7h-2.9c-0.3,0-0.4-0.1-0.5-0.3l-7-18.5l0,0l0,0c0,0,0,0-0.1,0.1l-2.2,18.4c0,0.3-0.2,0.4-0.5,0.4H239
			c-0.1,0-0.2,0-0.3-0.1s-0.1-0.2-0.1-0.3l3.3-26.6c0-0.3,0.2-0.4,0.5-0.4h2.9c0.2,0,0.4,0.1,0.5,0.3l7,18.5l0.1,0.1l0,0
			c0,0,0,0,0-0.1l2.3-18.3c0-0.3,0.2-0.4,0.5-0.4h2.8c0.1,0,0.3,0,0.3,0.1c0.1,0.1,0.1,0.2,0.1,0.3l-3.3,26.6
			C255.6,39.5,255.3,39.7,255.1,39.7z M244.7,20.7c0.1,0,0.1,0,0.1,0.1l7,18.5c0,0.2,0.3,0.2,0.4,0.2h2.9c0.2,0,0.3-0.1,0.3-0.3
			l3.3-26.7c0-0.1,0-0.2-0.1-0.2c-0.1-0.1-0.1-0.1-0.3-0.1h-2.8c-0.2,0-0.3,0.1-0.4,0.3L253,30.9c0,0.1-0.1,0.2-0.1,0.2
			c-0.1,0-0.1,0-0.2-0.1l-7-18.5c-0.1-0.2-0.2-0.2-0.4-0.2h-2.9c-0.2,0-0.3,0.1-0.4,0.3l-3.3,26.6c0,0.1,0,0.2,0,0.3
			s0.1,0.1,0.2,0.1h2.9c0.2,0,0.3-0.1,0.4-0.4l2.2-18.4C244.6,20.8,244.7,20.7,244.7,20.7L244.7,20.7z"/>
	</g>
	<g>
		<path d="M261.1,39.7h14.5c0.2,0,0.4-0.2,0.4-0.4l0.3-2.5c0-0.2-0.1-0.4-0.3-0.4h-11c-0.1,0-0.2-0.1-0.2-0.2l1.1-8.6
			c0-0.1,0.1-0.2,0.2-0.2h7.3c0.2,0,0.4-0.2,0.4-0.4l0.3-2.5c0-0.2-0.1-0.4-0.3-0.4h-7.3c-0.1,0-0.2-0.1-0.2-0.2l1.1-8.5
			c0-0.1,0.1-0.2,0.2-0.2h11c0.2,0,0.4-0.2,0.4-0.4l0.3-2.5c0-0.2-0.1-0.4-0.3-0.4h-14.5c-0.2,0-0.4,0.2-0.4,0.4L260.8,39
			C260.7,39.5,260.8,39.7,261.1,39.7z"/>
		<path d="M275.5,39.7H261c-0.1,0-0.2,0-0.3-0.1c-0.1-0.1-0.1-0.2-0.1-0.3l3.3-26.6c0-0.3,0.2-0.4,0.5-0.4h14.5c0.1,0,0.2,0,0.3,0.1
			c0.1,0.1,0.1,0.2,0.1,0.3l-0.3,2.5c0,0.2-0.2,0.4-0.5,0.4h-11c-0.1,0-0.1,0.1-0.1,0.1l-1.1,8.5l0.1,0.1h7.2c0.1,0,0.2,0,0.3,0.1
			c0.1,0.1,0.1,0.2,0.1,0.3l-0.3,2.5c0,0.3-0.2,0.4-0.5,0.4H266c-0.1,0-0.1,0.1-0.1,0.1l-1.1,8.6l0.1,0.1h11c0.1,0,0.2,0,0.3,0.1
			c0.1,0.1,0.1,0.2,0.1,0.3l-0.3,2.5C276,39.5,275.8,39.7,275.5,39.7z M264.4,12.3c-0.2,0-0.3,0.1-0.4,0.3l-3.3,26.6
			c0,0.1,0,0.2,0,0.3s0.1,0.1,0.2,0.1h14.5c0.2,0,0.3-0.1,0.4-0.4l0.3-2.5c0-0.1,0-0.2,0-0.3s-0.1-0.1-0.2-0.1h-11
			c-0.1,0-0.2-0.1-0.2-0.2l1.1-8.6c0-0.1,0.1-0.2,0.2-0.2h7.3c0.2,0,0.3-0.1,0.4-0.4l0.3-2.5c0-0.1,0-0.2,0-0.3
			c0-0.1-0.1-0.1-0.2-0.1h-7.2c-0.1,0-0.2-0.1-0.2-0.2l1.1-8.5c0-0.1,0.1-0.2,0.2-0.2h11c0.2,0,0.4-0.1,0.4-0.3l0.3-2.5
			c0-0.1,0-0.2,0-0.3s-0.1-0.1-0.2-0.1h-14.8V12.3z"/>
	</g>
	<g>
		<path d="M280.7,39.7h14.2c0.2,0,0.4-0.2,0.4-0.4l0.3-2.5c0-0.2-0.1-0.4-0.4-0.4h-10.8c-0.1,0-0.2-0.1-0.2-0.2l2.9-23.6
			c0-0.2-0.1-0.4-0.3-0.4H284c-0.2,0-0.4,0.2-0.4,0.4l-3.3,26.7C280.3,39.5,280.4,39.7,280.7,39.7z"/>
		<path d="M294.9,39.7h-14.2c-0.1,0-0.2,0-0.3-0.1c-0.1-0.1-0.1-0.2-0.1-0.3l3.3-26.6c0-0.3,0.2-0.4,0.5-0.4h2.9
			c0.1,0,0.2,0,0.3,0.1c0.1,0.1,0.1,0.2,0.1,0.3l-2.9,23.6l0.1,0.1h10.8c0.3,0,0.4,0.2,0.4,0.4l-0.3,2.5
			C295.3,39.5,295.1,39.7,294.9,39.7z M284,12.3c-0.2,0-0.3,0.1-0.4,0.3l-3.3,26.6c0,0.1,0,0.2,0,0.3s0.1,0.1,0.2,0.1h14.2
			c0.2,0,0.3-0.1,0.4-0.4l0.3-2.5c0-0.1,0-0.3-0.3-0.3h-10.8c-0.1,0-0.2-0.1-0.2-0.2l2.9-23.6c0-0.1,0-0.2,0-0.3s-0.1-0.1-0.2-0.1
			H284V12.3z"/>
	</g>
	<g>
		<path d="M299.2,39.7h14.2c0.2,0,0.4-0.2,0.4-0.4l0.3-2.5c0-0.2-0.1-0.4-0.4-0.4H303c-0.1,0-0.2-0.1-0.2-0.2l2.9-23.6
			c0-0.2-0.1-0.4-0.3-0.4h-2.9c-0.2,0-0.4,0.2-0.4,0.4l-3.3,26.7C298.8,39.5,299,39.7,299.2,39.7z"/>
		<path d="M313.4,39.7h-14.2c-0.1,0-0.2,0-0.3-0.1c-0.1-0.1-0.1-0.2-0.1-0.3l3.3-26.6c0-0.3,0.2-0.4,0.5-0.4h2.9
			c0.1,0,0.2,0,0.3,0.1c0.1,0.1,0.1,0.2,0.1,0.3L303,36.3l0.1,0.1h10.8c0.3,0,0.4,0.2,0.4,0.4l-0.3,2.5
			C313.9,39.5,313.7,39.7,313.4,39.7z M302.6,12.3c-0.2,0-0.3,0.1-0.4,0.3l-3.3,26.6c0,0.1,0,0.2,0,0.3s0.1,0.1,0.2,0.1h14.2
			c0.2,0,0.3-0.1,0.4-0.4l0.3-2.5c0-0.1,0-0.3-0.3-0.3H303c-0.1,0-0.2-0.1-0.2-0.2l2.9-23.6c0-0.1,0-0.2,0-0.3s-0.1-0.1-0.2-0.1
			h-2.9V12.3z"/>
	</g>
	<g>
		<path d="M317.7,39.7h14.5c0.2,0,0.4-0.2,0.4-0.4l0.3-2.5c0-0.2-0.1-0.4-0.3-0.4h-11c-0.1,0-0.2-0.1-0.2-0.2l1.1-8.6
			c0-0.1,0.1-0.2,0.2-0.2h7.3c0.2,0,0.4-0.2,0.4-0.4l0.3-2.5c0-0.2-0.1-0.4-0.3-0.4h-7.3c-0.1,0-0.2-0.1-0.2-0.2l1.1-8.5
			c0-0.1,0.1-0.2,0.2-0.2h11c0.2,0,0.4-0.2,0.4-0.4l0.3-2.5c0-0.2-0.1-0.4-0.3-0.4h-14.5c-0.2,0-0.4,0.2-0.4,0.4L317.4,39
			C317.4,39.5,317.5,39.7,317.7,39.7z"/>
		<path d="M332.2,39.7h-14.5c-0.1,0-0.2,0-0.3-0.1c-0.1-0.1-0.1-0.2-0.1-0.3l3.3-26.6c0-0.3,0.2-0.4,0.5-0.4h14.5
			c0.1,0,0.2,0,0.3,0.1c0.1,0.1,0.1,0.2,0.1,0.3l-0.3,2.5c0,0.2-0.2,0.4-0.5,0.4h-11c-0.1,0-0.1,0.1-0.1,0.1l-1.1,8.5l0.1,0.1h7.2
			c0.1,0,0.2,0,0.3,0.1c0.1,0.1,0.1,0.2,0.1,0.3l-0.3,2.5c0,0.3-0.2,0.4-0.5,0.4h-7.3c-0.1,0-0.1,0.1-0.1,0.1l-1.1,8.6l0.1,0.1h11
			c0.1,0,0.2,0,0.3,0.1c0.1,0.1,0.1,0.2,0.1,0.3l-0.3,2.5C332.6,39.5,332.5,39.7,332.2,39.7z M321.1,12.3c-0.2,0-0.3,0.1-0.4,0.3
			l-3.3,26.6c0,0.1,0,0.2,0,0.3s0.1,0.1,0.2,0.1h14.5c0.2,0,0.3-0.1,0.4-0.4l0.3-2.5c0-0.1,0-0.2,0-0.3s-0.1-0.1-0.2-0.1h-11
			c-0.1,0-0.2-0.1-0.2-0.2l1.1-8.6c0-0.1,0.1-0.2,0.2-0.2h7.3c0.2,0,0.3-0.1,0.4-0.4l0.3-2.5c0-0.1,0-0.2,0-0.3
			c0-0.1-0.1-0.1-0.2-0.1h-7.2c-0.1,0-0.2-0.1-0.2-0.2l1.1-8.5c0-0.1,0.1-0.2,0.2-0.2h11c0.2,0,0.4-0.1,0.4-0.3l0.3-2.5
			c0-0.1,0-0.2,0-0.3s-0.1-0.1-0.2-0.1h-14.8V12.3z"/>
	</g>
	<g>
		<path d="M348.1,39.7h7.7c4.7,0,8.1-3,8.7-7.6l1.5-12.2c0.6-4.6-2.1-7.6-6.8-7.6h-7.7c-0.2,0-0.4,0.2-0.4,0.4l-3.3,26.7
			C347.7,39.5,347.8,39.7,348.1,39.7z M354.3,15.6c0-0.1,0.1-0.2,0.2-0.2h4.3c2.5,0,3.8,1.8,3.5,4.7l-1.4,11.4
			c-0.4,2.9-2.2,4.7-4.6,4.7H352c-0.1,0-0.2-0.1-0.2-0.2L354.3,15.6z"/>
		<path d="M355.8,39.7h-7.7c-0.1,0-0.2,0-0.3-0.1c-0.1-0.1-0.1-0.2-0.1-0.3l3.3-26.6c0-0.3,0.2-0.4,0.5-0.4h7.7
			c2.4,0,4.2,0.7,5.5,2.1c1.2,1.4,1.7,3.3,1.4,5.5l-1.5,12.2C364,36.7,360.5,39.7,355.8,39.7z M351.4,12.3c-0.2,0-0.3,0.1-0.4,0.3
			l-3.3,26.6c0,0.1,0,0.2,0,0.3s0.1,0.1,0.2,0.1h7.7c4.7,0,8.1-3,8.7-7.6l1.5-12.2c0.3-2.2-0.2-4.1-1.4-5.5
			c-1.2-1.4-3.1-2.1-5.4-2.1h-7.6V12.3z M351.9,36.5c-0.1,0-0.2-0.1-0.2-0.2l2.5-20.6c0-0.1,0.1-0.2,0.2-0.2h4.3
			c1.1,0,2.1,0.4,2.7,1.1c0.8,0.9,1.1,2.1,0.9,3.7l-1.4,11.4c-0.4,2.9-2.2,4.7-4.7,4.7L351.9,36.5z M354.5,15.5
			c-0.1,0-0.1,0.1-0.1,0.1l0,0l-2.5,20.6l0.1,0.1h4.3c2.4,0,4.2-1.8,4.6-4.7l1.4-11.4c0.2-1.5-0.1-2.8-0.8-3.6c-0.6-0.7-1.5-1-2.6-1
			L354.5,15.5L354.5,15.5z"/>
	</g>
	<g>
		<path d="M368.7,39.7h14.5c0.2,0,0.4-0.2,0.4-0.4l0.3-2.5c0-0.2-0.1-0.4-0.3-0.4h-11c-0.1,0-0.2-0.1-0.2-0.2l1.1-8.6
			c0-0.1,0.1-0.2,0.2-0.2h7.3c0.2,0,0.4-0.2,0.4-0.4l0.3-2.5c0-0.2-0.1-0.4-0.3-0.4H374c-0.1,0-0.2-0.1-0.2-0.2l1.1-8.5
			c0-0.1,0.1-0.2,0.2-0.2h11c0.2,0,0.4-0.2,0.4-0.4l0.3-2.5c0-0.2-0.1-0.4-0.3-0.4H372c-0.2,0-0.4,0.2-0.4,0.4L368.3,39
			C368.3,39.5,368.4,39.7,368.7,39.7z"/>
		<path d="M383.1,39.7h-14.5c-0.1,0-0.2,0-0.3-0.1c-0.1-0.1-0.1-0.2-0.1-0.3l3.3-26.6c0-0.3,0.2-0.4,0.5-0.4h14.5
			c0.1,0,0.2,0,0.3,0.1c0.1,0.1,0.1,0.2,0.1,0.3l-0.3,2.5c0,0.2-0.2,0.4-0.5,0.4h-11c-0.1,0-0.1,0.1-0.1,0.1l-1.1,8.5l0.1,0.1h7.2
			c0.1,0,0.2,0,0.3,0.1c0.1,0.1,0.1,0.2,0.1,0.3l-0.3,2.5c0,0.3-0.2,0.4-0.5,0.4h-7.3c-0.1,0-0.1,0.1-0.1,0.1l-1.1,8.6l0.1,0.1h11
			c0.1,0,0.2,0,0.3,0.1c0.1,0.1,0.1,0.2,0.1,0.3l-0.3,2.5C383.6,39.5,383.4,39.7,383.1,39.7z M372,12.3c-0.2,0-0.3,0.1-0.4,0.3
			l-3.3,26.6c0,0.1,0,0.2,0,0.3s0.1,0.1,0.2,0.1H383c0.2,0,0.3-0.1,0.4-0.4l0.3-2.5c0-0.1,0-0.2,0-0.3s-0.1-0.1-0.2-0.1h-11
			c-0.1,0-0.2-0.1-0.2-0.2l1.1-8.6c0-0.1,0.1-0.2,0.2-0.2h7.3c0.2,0,0.3-0.1,0.4-0.4l0.3-2.5c0-0.1,0-0.2,0-0.3
			c0-0.1-0.1-0.1-0.2-0.1H374c-0.1,0-0.2-0.1-0.2-0.2l1.1-8.5c0-0.1,0.1-0.2,0.2-0.2h11c0.2,0,0.4-0.1,0.4-0.3l0.3-2.5
			c0-0.1,0-0.2,0-0.3s-0.1-0.1-0.2-0.1H372V12.3z"/>
	</g>
	<g>
		<path d="M387.1,39.7h3c0.2,0,0.4-0.1,0.5-0.4l1.7-4.5c0-0.1,0.1-0.1,0.2-0.1h8.4c0.1,0,0.2,0,0.2,0.1l0.5,4.5
			c0,0.2,0.2,0.4,0.4,0.4h3c0.3,0,0.4-0.2,0.4-0.4l-3.8-26.7c0-0.2-0.1-0.4-0.4-0.4h-3.6c-0.2,0-0.4,0.2-0.5,0.4l-10.3,26.7
			C386.7,39.5,386.9,39.7,387.1,39.7z M393.5,31.5l5.3-14.1c0-0.1,0.1-0.1,0.2,0l1.7,14.1c0,0.1-0.1,0.2-0.2,0.2h-6.9
			C393.5,31.7,393.4,31.6,393.5,31.5z"/>
		<path d="M405,39.7h-3c-0.3,0-0.4-0.2-0.4-0.4l-0.5-4.5c0-0.1-0.1-0.1-0.1-0.1h-8.4c-0.1,0-0.1,0-0.1,0.1l-1.7,4.5
			c-0.1,0.3-0.3,0.4-0.5,0.4h-3c-0.1,0-0.3-0.1-0.3-0.1c0-0.1-0.1-0.2,0-0.4l10.3-26.7c0.1-0.2,0.3-0.4,0.5-0.4h3.6
			c0.2,0,0.4,0.2,0.4,0.4l3.8,26.6c0,0.1,0,0.3-0.1,0.3C405.2,39.7,405.1,39.7,405,39.7z M392.5,34.6h8.4c0.1,0,0.2,0.1,0.2,0.2
			l0.5,4.5c0,0.3,0.2,0.3,0.3,0.3h3c0.1,0,0.2,0,0.3-0.1c0.1-0.1,0.1-0.2,0.1-0.3l-3.8-26.7c0-0.2-0.1-0.3-0.3-0.3h-3.6
			c-0.2,0-0.3,0.1-0.4,0.3l-10.3,26.7c0,0.1,0,0.2,0,0.3s0.1,0.1,0.2,0.1h3c0.2,0,0.4-0.1,0.4-0.3l1.7-4.5
			C392.3,34.6,392.4,34.6,392.5,34.6z M400.4,31.7h-6.9c-0.1,0-0.2,0-0.2-0.1v-0.1l5.2-14.1c0-0.1,0.1-0.1,0.1-0.1l0,0
			c0,0,0.1,0,0.1,0.1l1.7,14.1v0.1C400.6,31.7,400.5,31.7,400.4,31.7z M398.8,17.4L398.8,17.4l-5.3,14.2l0,0h0.1h6.9
			c0,0,0.1,0,0.1-0.1l0,0l0,0L398.8,17.4L398.8,17.4z"/>
	</g>
	<g>
		<path d="M409.6,39.7h2.9c0.2,0,0.4-0.2,0.4-0.4l2.2-18.4c0-0.2,0.2-0.2,0.2,0l7,18.5c0,0.2,0.2,0.3,0.4,0.3h2.9
			c0.2,0,0.4-0.2,0.4-0.4l3.3-26.7c0-0.2-0.1-0.4-0.4-0.4h-2.8c-0.2,0-0.4,0.2-0.4,0.4l-2.3,18.3c0,0.2-0.1,0.2-0.2,0l-7-18.5
			c-0.1-0.2-0.2-0.3-0.4-0.3H413c-0.2,0-0.4,0.2-0.4,0.4l-3.3,26.7C409.3,39.5,409.4,39.7,409.6,39.7z"/>
		<path d="M425.7,39.7h-2.9c-0.3,0-0.4-0.1-0.5-0.3l-7-18.5l0,0l0,0c0,0,0,0-0.1,0.1L413,39.3c0,0.3-0.2,0.4-0.5,0.4h-2.9
			c-0.1,0-0.2,0-0.3-0.1c-0.1-0.1-0.1-0.2-0.1-0.3l3.3-26.6c0-0.3,0.2-0.4,0.5-0.4h2.9c0.2,0,0.4,0.1,0.5,0.3l7,18.5l0.1,0.1
			c0,0,0,0,0-0.1l2.3-18.3c0-0.3,0.2-0.4,0.5-0.4h2.8c0.1,0,0.3,0,0.3,0.1c0.1,0.1,0.1,0.2,0.1,0.3l-3.3,26.6
			C426.1,39.5,425.9,39.7,425.7,39.7z M415.3,20.7c0.1,0,0.1,0,0.1,0.1l7,18.5c0,0.2,0.3,0.2,0.4,0.2h2.9c0.2,0,0.3-0.1,0.3-0.3
			l3.3-26.7c0-0.1,0-0.2-0.1-0.2c-0.1-0.1-0.1-0.1-0.2-0.1h-2.8c-0.2,0-0.3,0.1-0.4,0.3l-2.3,18.3c0,0.1-0.1,0.2-0.1,0.2
			c-0.1,0-0.1,0-0.2-0.1l-7-18.5c-0.1-0.2-0.2-0.2-0.4-0.2H413c-0.2,0-0.3,0.1-0.4,0.3l-3.3,26.6c0,0.1,0,0.2,0,0.3s0.1,0.1,0.2,0.1
			h2.9c0.2,0,0.3-0.1,0.4-0.4l2.2-18.4C415.1,20.8,415.2,20.7,415.3,20.7L415.3,20.7z"/>
	</g>
	<g>
		<path d="M433.3,15.5h5.8c0.1,0,0.2,0.1,0.2,0.2l-2.9,23.6c0,0.2,0.1,0.4,0.3,0.4h2.9c0.2,0,0.4-0.2,0.4-0.4l2.9-23.6
			c0-0.1,0.1-0.2,0.2-0.2h6.1c0.2,0,0.4-0.2,0.4-0.4l0.3-2.5c0-0.2-0.1-0.4-0.3-0.4h-16c-0.2,0-0.4,0.2-0.4,0.4l-0.3,2.5
			C433,15.4,433.1,15.5,433.3,15.5z"/>
		<path d="M439.6,39.7h-2.9c-0.1,0-0.2,0-0.3-0.1c-0.1-0.1-0.1-0.2-0.1-0.3l2.9-23.6l-0.1-0.1h-5.8c-0.3,0-0.4-0.2-0.4-0.4l0.3-2.5
			c0-0.3,0.2-0.4,0.5-0.4h16c0.1,0,0.2,0,0.3,0.1c0.1,0.1,0.1,0.2,0.1,0.3l-0.3,2.5c0,0.2-0.2,0.4-0.5,0.4h-6.1
			c-0.1,0-0.1,0.1-0.1,0.1l-2.9,23.6C440.1,39.5,439.9,39.7,439.6,39.7z M433.7,12.3c-0.2,0-0.3,0.1-0.4,0.3l-0.3,2.5
			c0,0.1,0,0.3,0.3,0.3h5.8c0.1,0,0.2,0.1,0.2,0.2l-2.9,23.6c0,0.1,0,0.2,0,0.3s0.1,0.1,0.2,0.1h2.9c0.2,0,0.3-0.1,0.4-0.4l2.9-23.6
			c0-0.1,0.1-0.2,0.2-0.2h6.1c0.2,0,0.4-0.1,0.4-0.3l0.3-2.5c0-0.1,0-0.2-0.1-0.2c0-0.1-0.1-0.1-0.2-0.1
			C449.5,12.3,433.7,12.3,433.7,12.3z"/>
	</g>
	<g>
		<path d="M456.9,40c4.9,0,8.6-3.3,9.2-8.3l1.4-11.5c0.6-4.9-2.2-8.3-7.2-8.3c-4.9,0-8.6,3.3-9.2,8.3l-1.4,11.5
			C449.1,36.7,452,40,456.9,40z M453.4,31.9l1.4-11.8c0.4-2.9,2.4-4.9,5.1-4.9s4.3,2,4,4.9l-1.4,11.8c-0.4,2.9-2.4,4.9-5.1,4.9
			C454.6,36.7,453,34.8,453.4,31.9z"/>
		<path d="M456.9,40.1c-2.4,0-4.3-0.8-5.6-2.2c-1.3-1.5-1.9-3.6-1.6-6.1l1.4-11.5c0.6-5,4.3-8.3,9.2-8.3c2.4,0,4.4,0.8,5.7,2.3
			c1.3,1.5,1.9,3.6,1.5,6.1l-1.4,11.5C465.5,36.7,461.8,40.1,456.9,40.1z M460.3,12c-4.9,0-8.5,3.3-9.1,8.2l-1.4,11.5
			c-0.3,2.5,0.2,4.6,1.5,6s3.2,2.2,5.5,2.2c4.9,0,8.6-3.3,9.2-8.3l1.4-11.5c0.3-2.4-0.2-4.5-1.5-6C464.7,12.7,462.7,12,460.3,12z
			 M457.3,36.8c-1.3,0-2.4-0.4-3.1-1.3c-0.8-0.9-1.1-2.2-0.9-3.7l1.4-11.8c0.4-3,2.5-5,5.2-5c1.3,0,2.3,0.4,3.1,1.2
			c0.8,0.9,1.1,2.2,0.9,3.8l-1.4,11.8C462.1,34.8,460,36.8,457.3,36.8z M459.9,15.2c-2.7,0-4.7,2-5.1,4.9l-1.4,11.8
			c-0.2,1.4,0.1,2.7,0.9,3.6c0.7,0.8,1.7,1.2,3,1.2c2.7,0,4.7-1.9,5.1-4.8l1.4-11.8c0.2-1.5-0.1-2.8-0.9-3.7
			C462.2,15.6,461.2,15.2,459.9,15.2z"/>
	</g>
	<g>
		<path d="M470.4,39.7h2.9c0.2,0,0.4-0.2,0.4-0.4l2.2-18.4c0-0.2,0.2-0.2,0.2,0l7,18.5c0,0.2,0.2,0.3,0.4,0.3h2.9
			c0.2,0,0.4-0.2,0.4-0.4l3.3-26.7c0-0.2-0.1-0.4-0.4-0.4h-2.8c-0.2,0-0.4,0.2-0.4,0.4l-2.3,18.3c0,0.2-0.1,0.2-0.2,0l-7-18.5
			c-0.1-0.2-0.2-0.3-0.4-0.3h-2.9c-0.2,0-0.4,0.2-0.4,0.4L470,39.2C470,39.5,470.1,39.7,470.4,39.7z"/>
		<path d="M486.4,39.7h-2.9c-0.3,0-0.4-0.1-0.5-0.3l-7-18.5l0,0l0,0c0,0,0,0-0.1,0.1l-2.2,18.4c0,0.3-0.2,0.4-0.5,0.4h-2.9
			c-0.1,0-0.2,0-0.3-0.1c-0.1-0.1-0.1-0.2-0.1-0.3l3.3-26.6c0-0.3,0.2-0.4,0.5-0.4h2.9c0.2,0,0.4,0.1,0.5,0.3l7,18.5l0.1,0.1
			c0,0,0,0,0-0.1l2.3-18.3c0-0.3,0.2-0.4,0.5-0.4h2.8c0.1,0,0.3,0,0.3,0.1c0.1,0.1,0.1,0.2,0.1,0.3l-3.3,26.6
			C486.9,39.5,486.6,39.7,486.4,39.7z M476,20.7c0.1,0,0.1,0,0.1,0.1l7,18.5c0,0.2,0.3,0.2,0.4,0.2h2.9c0.2,0,0.3-0.1,0.3-0.3
			l3.3-26.7c0-0.1,0-0.2-0.1-0.2c-0.1-0.1-0.1-0.1-0.3-0.1h-2.8c-0.2,0-0.3,0.1-0.4,0.3l-2.3,18.3c0,0.1-0.1,0.2-0.1,0.2
			c-0.1,0-0.1,0-0.2-0.1l-7-18.5c-0.1-0.2-0.2-0.2-0.4-0.2h-2.9c-0.2,0-0.3,0.1-0.4,0.3l-3.3,26.6c0,0.1,0,0.2,0,0.3
			s0.1,0.1,0.2,0.1h2.9c0.2,0,0.3-0.1,0.4-0.4l2.2-18.4C475.9,20.8,475.9,20.7,476,20.7L476,20.7z"/>
	</g>
	<g>
		<path d="M492.6,39.7h2.9c0.2,0,0.4-0.2,0.4-0.4l3.3-26.7c0-0.2-0.1-0.4-0.3-0.4H496c-0.2,0-0.4,0.2-0.4,0.4l-3.3,26.7
			C492.2,39.5,492.3,39.7,492.6,39.7z"/>
		<path d="M495.5,39.7h-2.9c-0.1,0-0.2,0-0.3-0.1c-0.1-0.1-0.1-0.2-0.1-0.3l3.3-26.6c0-0.3,0.2-0.4,0.5-0.4h2.9c0.1,0,0.2,0,0.3,0.1
			c0.1,0.1,0.1,0.2,0.1,0.3L496,39.3C495.9,39.5,495.7,39.7,495.5,39.7z M495.9,12.3c-0.2,0-0.3,0.1-0.4,0.3l-3.3,26.6
			c0,0.1,0,0.2,0,0.3s0.1,0.1,0.2,0.1h2.9c0.2,0,0.3-0.1,0.4-0.4l3.3-26.6c0-0.1,0-0.2,0-0.3s-0.1-0.1-0.2-0.1h-2.9V12.3z"/>
	</g>
	<g>
		<path d="M511.5,11.9c-4.5,0-7.9,2.6-8.5,7.1c-0.5,4.5,2.5,6.3,5.8,8.3c3.4,2,5,3.1,4.7,5.5c-0.3,2.3-2,3.9-4.7,3.9
			c-2.8,0-4.4-1.8-4.1-4.3l0.1-0.9c0-0.2-0.1-0.4-0.4-0.4h-2.8c-0.2,0-0.4,0.2-0.4,0.4l-0.2,1.1c-0.5,4.4,2.3,7.3,7.2,7.3
			c4.8,0,8.3-2.9,8.9-7.4c0.5-4.3-2.3-6-6.1-8.3c-3.4-2-4.9-2.9-4.6-5.4c0.3-2.4,2-3.8,4.4-3.8c2.9,0,4.3,1.8,4,4.4l-0.1,0.8
			c0,0.2,0.1,0.4,0.4,0.4h2.8c0.2,0,0.4-0.2,0.4-0.4l0.1-0.9C519.3,14.9,516.4,11.9,511.5,11.9z"/>
		<path d="M508.4,40c-2.5,0-4.6-0.8-5.8-2.2c-1.2-1.3-1.6-3.1-1.4-5.2l0.2-1.1c0-0.2,0.2-0.4,0.5-0.4h2.8c0.3,0,0.4,0.2,0.4,0.4
			l-0.1,0.9c-0.1,1.2,0.1,2.2,0.8,3c0.7,0.8,1.8,1.2,3.2,1.2c2.5,0,4.4-1.5,4.7-3.9c0.3-2.5-1.4-3.6-4.7-5.5
			c-3.2-1.8-6.4-3.7-5.9-8.4c0.5-4.3,3.9-7.1,8.5-7.1c2.5,0,4.5,0.8,5.8,2.2c1.2,1.4,1.7,3.2,1.4,5.4l-0.1,0.9
			c0,0.3-0.2,0.4-0.5,0.4h-2.8c-0.1,0-0.3,0-0.3-0.1c-0.1-0.1-0.1-0.2-0.1-0.3l0.1-0.8c0.1-1.3-0.2-2.3-0.8-3.1
			c-0.7-0.8-1.8-1.2-3.2-1.2c-2.4,0-4.1,1.4-4.4,3.7s1,3.3,4.6,5.3l0.1,0.1c3.8,2.3,6.5,4,6,8.3C516.8,37.1,513.3,40,508.4,40z
			 M501.9,31.2c-0.2,0-0.4,0.1-0.4,0.3l-0.2,1.1c-0.3,2,0.2,3.8,1.3,5.1c1.3,1.4,3.3,2.2,5.8,2.2c4.8,0,8.3-2.9,8.8-7.3
			c0.5-4.2-2.2-5.9-6-8.2l-0.1-0.1c-3.6-2-4.9-3-4.6-5.4s2-3.8,4.5-3.8c1.4,0,2.5,0.4,3.2,1.2c0.7,0.8,1,1.9,0.9,3.2l-0.1,0.8
			c0,0.1,0,0.2,0.1,0.2c0.1,0.1,0.1,0.1,0.2,0.1h2.8c0.2,0,0.3-0.1,0.4-0.4l0.1-0.9c0.3-2.1-0.2-3.9-1.4-5.3
			c-1.3-1.4-3.2-2.2-5.7-2.2c-2.2,0-4.2,0.6-5.7,1.9c-1.5,1.2-2.5,3-2.7,5.2c-0.6,4.6,2.5,6.4,5.8,8.3c3.2,1.9,5,3.1,4.8,5.6
			c-0.3,2.4-2.2,4-4.8,4c-1.4,0-2.6-0.4-3.3-1.3c-0.7-0.8-1-1.8-0.8-3l0.1-0.9c0-0.1,0-0.3-0.3-0.3L501.9,31.2L501.9,31.2z"/>
	</g>
	<g>
		<path d="M213.9,71.9c-3.3,0-5.6,2.1-6,5.3l-1,8c-0.2,1.6,0.2,2.9,1,3.8c0.8,1,2.1,1.5,3.7,1.5c3.3,0,5.6-2.1,6-5.4l0.5-4
			c0-0.1,0-0.2-0.1-0.3c-0.1-0.1-0.2-0.1-0.3-0.1H213c-0.2,0-0.4,0.1-0.4,0.4l-0.2,1.6c0,0.1,0,0.2,0.1,0.3c0,0.1,0.1,0.1,0.3,0.1
			h2.6l-0.3,2.3c-0.2,1.7-1.4,2.7-3.1,2.7c-0.8,0-1.5-0.3-1.9-0.8c-0.5-0.5-0.6-1.2-0.5-2.1l1-8.1c0.2-1.7,1.5-2.9,3.1-2.9
			c0.8,0,1.5,0.3,1.9,0.7c0.4,0.5,0.6,1.2,0.5,2l-0.1,0.7c0,0.1,0,0.2,0.1,0.3c0,0.1,0.1,0.1,0.3,0.1h1.9c0.2,0,0.4-0.1,0.4-0.4
			l0.1-0.7c0.2-1.5-0.2-2.7-1-3.7C216.8,72.4,215.5,71.9,213.9,71.9z"/>
		<path d="M211.7,90.5c-1.6,0-2.9-0.5-3.8-1.5c-0.9-1-1.2-2.3-1-3.9l1-8c0.4-3.2,2.8-5.3,6.1-5.3c1.6,0,2.9,0.5,3.8,1.5
			c0.8,0.9,1.2,2.2,1,3.7l-0.1,0.7c0,0.3-0.2,0.4-0.5,0.4h-1.9c-0.2,0-0.2-0.1-0.3-0.1c-0.1-0.1-0.1-0.2-0.1-0.3L216,77
			c0.1-0.8-0.1-1.5-0.5-2s-1.1-0.7-1.9-0.7c-1.6,0-2.9,1.1-3.1,2.8l-1,8.1c-0.1,0.8,0.1,1.5,0.5,2.1c0.4,0.5,1.1,0.7,1.9,0.7
			c1.7,0,2.8-1,3-2.7l0.3-2.3h-2.5c-0.2,0-0.3-0.1-0.3-0.1c-0.1-0.1-0.1-0.2-0.1-0.3l0.2-1.6c0-0.3,0.2-0.4,0.5-0.4h4.8
			c0.1,0,0.2,0,0.3,0.1s0.1,0.2,0.1,0.3l-0.5,4C217.4,88.5,215,90.5,211.7,90.5z M213.9,72c-3.2,0-5.6,2.1-6,5.2l-1,8
			c-0.2,1.6,0.1,2.9,1,3.8c0.8,0.9,2.1,1.4,3.7,1.4c3.3,0,5.6-2.1,6-5.4l0.5-4c0-0.1,0-0.2-0.1-0.2c-0.1-0.1-0.1-0.1-0.2-0.1H213
			c-0.2,0-0.3,0.1-0.4,0.3l-0.2,1.6c0,0.1,0,0.2,0.1,0.3c0,0,0.1,0.1,0.2,0.1h2.6v0.1l-0.3,2.3c-0.2,1.7-1.4,2.8-3.1,2.8
			c-0.8,0-1.5-0.3-1.9-0.8c-0.5-0.5-0.7-1.3-0.5-2.1l1-8.1c0.2-1.8,1.5-2.9,3.2-2.9c0.8,0,1.5,0.3,1.9,0.8c0.5,0.5,0.6,1.2,0.5,2.1
			l-0.1,0.7c0,0.1,0,0.2,0.1,0.3s0.1,0.1,0.2,0.1h1.9c0.2,0,0.3-0.1,0.4-0.3l0.1-0.7c0.2-1.5-0.2-2.7-1-3.6
			C216.8,72.5,215.5,72,213.9,72z"/>
	</g>
	<g>
		<path d="M235.7,72.1h-5.6c-0.2,0-0.4,0.1-0.4,0.4l-2.1,17.4c0,0.1,0,0.2,0.1,0.3c0,0,0.1,0.1,0.3,0.1h1.9c0.2,0,0.4-0.1,0.4-0.4
			l0.9-7.6l0,0h2.6l2,7.7c0,0.2,0.2,0.3,0.4,0.3h1.9c0.1,0,0.2,0,0.3-0.1s0.1-0.2,0-0.3l-2.1-7.8c1.9-0.7,3.3-2.4,3.5-4.7
			c0.2-1.6-0.1-3-1-4C238.1,72.5,237,72.1,235.7,72.1z M232.1,74.5h3c0.6,0,1.2,0.2,1.5,0.6c0.4,0.5,0.6,1.3,0.5,2.2
			c-0.2,1.7-1.3,2.8-2.8,2.8h-3L232.1,74.5z"/>
		<path d="M238,90.3h-1.9c-0.2,0-0.4-0.1-0.4-0.3l-2-7.6h-2.5l-0.9,7.6c0,0.2-0.2,0.4-0.5,0.4h-1.9c-0.2,0-0.3-0.1-0.3-0.1
			c-0.1-0.1-0.1-0.2-0.1-0.3l2.1-17.4c0-0.2,0.2-0.4,0.5-0.4h5.6c1.3,0,2.4,0.5,3.2,1.3c0.8,1,1.2,2.4,1,4c-0.3,2.3-1.6,4.1-3.5,4.8
			l2.1,7.7c0,0.1,0,0.3-0.1,0.4C238.3,90.3,238.1,90.3,238,90.3z M231.1,82.3h2.6l0,0l2,7.7c0,0.2,0.1,0.3,0.3,0.3h1.9
			c0.1,0,0.2,0,0.3-0.1s0.1-0.2,0-0.3l-2.1-7.8l0,0c1.9-0.7,3.2-2.4,3.5-4.7c0.2-1.6-0.1-3-1-3.9c-0.7-0.8-1.8-1.3-3.1-1.3h-5.6
			c-0.2,0-0.3,0.1-0.4,0.3l-2.1,17.4c0,0.1,0,0.2,0.1,0.3c0,0,0.1,0.1,0.2,0.1h1.9c0.2,0,0.3-0.1,0.4-0.3L231.1,82.3L231.1,82.3
			L231.1,82.3L231.1,82.3z M234.4,80.2h-3v-0.1l0.7-5.7h3c0.7,0,1.2,0.2,1.6,0.7c0.5,0.5,0.6,1.3,0.5,2.3
			C237,79,235.9,80.2,234.4,80.2z M231.4,80.1h2.9c1.4,0,2.6-1.1,2.7-2.8c0.1-0.9-0.1-1.7-0.5-2.2c-0.4-0.4-0.9-0.6-1.5-0.6h-3
			L231.4,80.1z"/>
	</g>
	<g>
		<path d="M257.5,72.1h-2.3c-0.2,0-0.3,0.1-0.4,0.3L248,89.8c-0.1,0.2,0,0.3,0,0.3c0.1,0.1,0.2,0.1,0.3,0.1h1.9
			c0.2,0,0.4-0.1,0.4-0.3l1.1-3h5.5l0.4,2.9c0,0.2,0.2,0.3,0.4,0.3h1.9c0.2,0,0.3-0.1,0.3-0.1c0-0.1,0.1-0.1,0.1-0.3l-2.5-17.4
			C257.9,72.3,257.7,72.1,257.5,72.1z M257,84.8h-4.4l3.3-8.9L257,84.8z"/>
		<path d="M260,90.3h-2c-0.3,0-0.4-0.2-0.4-0.4l-0.3-2.9h-5.4l-1.1,2.9c-0.1,0.2-0.2,0.3-0.5,0.3h-1.9c-0.1,0-0.3-0.1-0.3-0.2
			s-0.1-0.2,0-0.4l6.7-17.4c0.1-0.2,0.3-0.3,0.5-0.3h2.3c0.2,0,0.4,0.2,0.4,0.4l2.5,17.4c0,0.2,0,0.3-0.1,0.3
			C260.3,90.3,260.2,90.3,260,90.3z M251.8,87h5.6l0,0l0.4,2.9c0,0.2,0.1,0.3,0.3,0.3h1.9c0.1,0,0.2-0.1,0.3-0.1
			c0.1-0.1,0.1-0.2,0.1-0.3l-2.5-17.4c0-0.2-0.1-0.3-0.3-0.3h-2.3c-0.2,0-0.3,0.1-0.4,0.3l-6.7,17.4c-0.1,0.1,0,0.2,0,0.3
			c0,0.1,0.1,0.1,0.2,0.1h1.9c0.2,0,0.3-0.1,0.4-0.3L251.8,87z M257.1,84.9h-4.5v-0.1l3.4-9.1v0.2L257.1,84.9z M252.7,84.8h4.3
			l-1.1-8.6L252.7,84.8z"/>
	</g>
	<g>
		<path d="M278.4,72.1h-5.6c-0.2,0-0.4,0.1-0.4,0.4l-2.1,17.4c0,0.1,0,0.2,0.1,0.3c0,0,0.1,0.1,0.3,0.1h1.9c0.2,0,0.4-0.1,0.4-0.4
			l0.9-7.3h3.3c2.9,0,5.1-2.1,5.4-5.2c0.2-1.6-0.2-3.1-1-4C280.8,72.5,279.7,72.1,278.4,72.1z M277.8,74.5c0.7,0,1.2,0.2,1.6,0.7
			c0.5,0.5,0.7,1.3,0.5,2.3c-0.2,1.8-1.4,2.9-2.9,2.9h-2.9l0.7-5.9H277.8z"/>
		<path d="M272.5,90.3h-1.9c-0.2,0-0.2-0.1-0.3-0.1c-0.1-0.1-0.1-0.2-0.1-0.3l2.1-17.4c0-0.2,0.2-0.4,0.5-0.4h5.6
			c1.3,0,2.4,0.5,3.2,1.3c0.9,1,1.2,2.4,1,4.1c-0.4,3.1-2.6,5.2-5.5,5.2h-3.3l-0.9,7.3C272.9,90.2,272.8,90.3,272.5,90.3z
			 M272.8,72.1c-0.2,0-0.3,0.1-0.4,0.3l-2.1,17.4c0,0.1,0,0.2,0.1,0.3c0,0,0.1,0.1,0.2,0.1h1.9c0.2,0,0.3-0.1,0.4-0.3l0.9-7.4h3.4
			c2.9,0,5-2.1,5.4-5.1c0.2-1.6-0.1-3-1-4c-0.7-0.8-1.8-1.3-3.1-1.3H272.8z M277,80.4h-3v-0.1l0.7-5.9h3c0.7,0,1.3,0.2,1.7,0.7
			c0.5,0.5,0.7,1.3,0.6,2.3C279.8,79.2,278.6,80.4,277,80.4z M274.2,80.3h2.9c1.5,0,2.7-1.2,2.9-2.9c0.1-1-0.1-1.7-0.5-2.3
			c-0.4-0.4-0.9-0.6-1.6-0.6H275L274.2,80.3z"/>
	</g>
	<g>
		<path d="M303.4,72.1h-1.9c-0.2,0-0.4,0.1-0.4,0.4l-0.9,7.5l0,0h-5.4l0.9-7.5c0-0.1,0-0.2-0.1-0.3c0,0-0.1-0.1-0.3-0.1h-1.9
			c-0.2,0-0.4,0.1-0.4,0.4l-2,17.4c0,0.1,0,0.2,0.1,0.3c0,0,0.1,0.1,0.3,0.1h1.9c0.2,0,0.4-0.1,0.4-0.4l0.9-7.6l0,0h5.4l-0.9,7.5
			c0,0.1,0,0.2,0.1,0.3c0.1,0.1,0.2,0.1,0.3,0.1h1.9c0.2,0,0.4-0.1,0.4-0.4l2.2-17.4C303.8,72.3,303.7,72.1,303.4,72.1z"/>
		<path d="M301.2,90.3h-1.9c-0.1,0-0.2,0-0.3-0.1c-0.1-0.1-0.1-0.2-0.1-0.3l0.9-7.5h-5.3l-0.9,7.5c0,0.2-0.2,0.4-0.5,0.4h-1.9
			c-0.2,0-0.3-0.1-0.3-0.1s-0.1-0.2-0.1-0.3l2.1-17.4c0-0.2,0.2-0.4,0.5-0.4h1.9c0.2,0,0.2,0.1,0.3,0.1c0.1,0.1,0.1,0.2,0.1,0.3
			l-0.9,7.4h5.3l0.9-7.5c0-0.1,0-0.2,0.1-0.3c0.1-0.1,0.2-0.1,0.3-0.1h1.9c0.2,0,0.4,0.2,0.4,0.4l-2.2,17.4
			C301.6,90.2,301.5,90.3,301.2,90.3z M294.6,82.3h5.4v0.1l-0.9,7.5c0,0.1,0,0.2,0.1,0.2c0.1,0.1,0.1,0.1,0.2,0.1h1.9
			c0.2,0,0.3-0.1,0.4-0.3l2.2-17.4c0-0.2-0.1-0.3-0.3-0.3h-1.9c-0.1,0-0.2,0-0.2,0.1c0,0-0.1,0.1-0.1,0.2l-0.9,7.5l0,0l0,0l0,0v0
			h-5.4l0.9-7.5c0-0.1,0-0.2-0.1-0.3c-0.1-0.1-0.1-0.1-0.2-0.1h-1.9c-0.2,0-0.3,0.1-0.4,0.3l-2.1,17.4c0,0.1,0,0.2,0.1,0.3
			c0,0,0.1,0.1,0.2,0.1h1.9c0.2,0,0.3-0.1,0.4-0.3L294.6,82.3L294.6,82.3L294.6,82.3L294.6,82.3z"/>
	</g>
	<g>
		<path d="M317,72.1h-1.9c-0.2,0-0.4,0.1-0.4,0.4l-2.1,17.4c0,0.1,0,0.2,0.1,0.3c0,0,0.1,0.1,0.3,0.1h1.9c0.2,0,0.4-0.1,0.4-0.4
			l2.1-17.4c0-0.1,0-0.2-0.1-0.3C317.3,72.2,317.2,72.1,317,72.1z"/>
		<path d="M314.8,90.3h-1.9c-0.2,0-0.3-0.1-0.3-0.1c-0.1-0.1-0.1-0.2-0.1-0.3l2.1-17.4c0-0.2,0.2-0.4,0.5-0.4h1.9
			c0.2,0,0.2,0.1,0.3,0.1c0.1,0.1,0.1,0.2,0.1,0.3l-2.1,17.4C315.2,90.2,315.1,90.3,314.8,90.3z M315.1,72.2c-0.2,0-0.3,0.1-0.4,0.3
			l-2.1,17.4c0,0.1,0,0.2,0.1,0.3c0,0,0.1,0.1,0.2,0.1h1.9c0.2,0,0.3-0.1,0.4-0.3l2.1-17.4c0-0.1,0-0.2-0.1-0.3
			c-0.1-0.1-0.1-0.1-0.2-0.1H315.1z"/>
	</g>
	<g>
		<path d="M333.4,71.9c-3.3,0-5.6,2.1-6,5.3l-1,7.9l0,0c-0.2,1.6,0.2,2.9,1,3.9c0.9,1,2.2,1.5,3.8,1.5c3.2,0,5.6-2.1,6-5.3V85
			c0-0.1,0-0.2-0.1-0.2c-0.1-0.1-0.2-0.1-0.3-0.1l0,0l-1.9-0.1c-0.2,0-0.4,0.1-0.4,0.4v0.4c-0.2,1.7-1.5,2.9-3.1,2.9
			c-0.8,0-1.5-0.3-1.9-0.8s-0.6-1.2-0.5-2.1l1-8.1c0.2-1.7,1.5-2.9,3.1-2.9c0.8,0,1.4,0.3,1.9,0.7c0.5,0.5,0.6,1.2,0.5,2.1l-0.1,0.4
			c0,0.1,0,0.2,0.1,0.3c0,0,0.1,0.1,0.3,0.1l0,0l1.9-0.1c0.2,0,0.4-0.2,0.4-0.4v-0.2c0.2-1.5-0.2-2.9-1-3.8
			C336.3,72.4,335,71.9,333.4,71.9z"/>
		<path d="M331.2,90.5c-1.6,0-2.9-0.5-3.8-1.5s-1.2-2.3-1-4l1-7.9c0.4-3.3,2.8-5.4,6.1-5.4c1.6,0,2.9,0.5,3.8,1.5
			c0.8,1,1.2,2.3,1,3.9v0.2c0,0.1,0,0.2-0.1,0.3c-0.1,0.1-0.2,0.1-0.3,0.1l-1.9,0.1l0,0c-0.2,0-0.3-0.1-0.3-0.1
			c-0.1-0.1-0.1-0.2-0.1-0.3V77c0.1-0.8-0.1-1.5-0.5-2s-1.1-0.7-1.8-0.7c-1.6,0-2.9,1.1-3.1,2.8l-1,8.1c-0.1,0.8,0.1,1.5,0.5,2
			s1.1,0.7,1.9,0.7c1.6,0,2.9-1.1,3.1-2.8v-0.3c0-0.3,0.2-0.4,0.5-0.4l1.9,0.1l0,0c0.1,0,0.3,0.1,0.3,0.1c0.1,0.1,0.1,0.2,0.1,0.3
			v0.2C336.9,88.4,334.4,90.5,331.2,90.5z M333.4,72c-3.2,0-5.6,2.1-6,5.3l-1,7.9c-0.2,1.6,0.2,2.9,1,3.9s2.1,1.5,3.7,1.5
			c3.2,0,5.6-2.1,6-5.2v-0.2c0-0.1,0-0.1,0-0.2c-0.1-0.1-0.1-0.1-0.3-0.1l-1.9-0.1c-0.2,0-0.3,0.1-0.4,0.3v0.3
			c-0.2,1.7-1.5,2.9-3.2,2.9c-0.8,0-1.5-0.3-1.9-0.8c-0.5-0.5-0.6-1.3-0.5-2.1l1-8.1c0.2-1.7,1.5-2.9,3.2-2.9c0.8,0,1.5,0.3,1.9,0.8
			c0.5,0.5,0.7,1.3,0.6,2.1l-0.1,0.4c0,0.1,0,0.2,0.1,0.3c0,0,0.1,0.1,0.2,0.1l1.9-0.1c0.1,0,0.2,0,0.3-0.1c0.1-0.1,0.1-0.2,0.1-0.2
			v-0.2c0.2-1.5-0.1-2.8-1-3.8C336.3,72.5,335,72,333.4,72z"/>
	</g>
	<g>
		<path d="M366.1,72.1h-5c-0.2,0-0.4,0.1-0.4,0.4l-2.1,17.4c0,0.1,0,0.2,0.1,0.3c0,0,0.1,0.1,0.3,0.1h5c3.1,0,5.4-2,5.8-5.1l1-8
			c0.2-1.5-0.1-2.8-0.9-3.7C368.9,72.6,367.6,72.1,366.1,72.1z M365.8,74.5c0.7,0,1.3,0.2,1.6,0.7c0.5,0.5,0.6,1.3,0.5,2.3L367,85
			c-0.2,1.8-1.4,3-2.9,3h-2.8l1.7-13.4L365.8,74.5L365.8,74.5z"/>
		<path d="M363.9,90.3h-5c-0.2,0-0.3-0.1-0.3-0.1c-0.1-0.1-0.1-0.2-0.1-0.3l2.1-17.4c0-0.2,0.2-0.4,0.5-0.4h5c1.6,0,2.9,0.5,3.7,1.4
			c0.8,0.9,1.1,2.2,1,3.7l-1,8C369.3,88.3,367,90.3,363.9,90.3z M361,72.2c-0.2,0-0.3,0.1-0.4,0.3l-2.1,17.4c0,0.1,0,0.2,0.1,0.3
			c0,0,0.1,0.1,0.2,0.1h5c3.1,0,5.4-2,5.8-5l1-8c0.2-1.5-0.1-2.8-0.9-3.6c-0.8-0.9-2.1-1.4-3.6-1.4H361V72.2z M361.3,88L361.3,88
			l1.7-13.5h2.9c0.7,0,1.3,0.2,1.7,0.7c0.5,0.5,0.7,1.3,0.5,2.3l-0.9,7.5c-0.2,1.9-1.4,3-2.9,3H361.3z M363,74.5l-1.6,13.3h2.8
			c1.5,0,2.6-1.1,2.8-2.9l0.9-7.5c0.1-1-0.1-1.8-0.5-2.3c-0.4-0.4-0.9-0.6-1.6-0.6H363z"/>
	</g>
	<g>
		<path d="M391.6,72.1h-9.5c-0.2,0-0.4,0.1-0.4,0.4l-2.1,17.4c0,0.1,0,0.2,0.1,0.3c0,0,0.1,0.1,0.3,0.1h9.5c0.2,0,0.4-0.1,0.4-0.4
			l0.2-1.6c0-0.1,0-0.2-0.1-0.3c0-0.1-0.1-0.1-0.3-0.1h-7.2l0.7-5.6l0,0h4.7c0.2,0,0.4-0.1,0.4-0.4l0.2-1.6c0-0.1,0-0.2-0.1-0.3
			c0-0.1-0.1-0.1-0.3-0.1h-4.7l0.7-5.5h7.2c0.2,0,0.4-0.2,0.4-0.4l0.2-1.6c0-0.1,0-0.2-0.1-0.3C391.8,72.2,391.7,72.1,391.6,72.1z"
			/>
		<path d="M389.4,90.3h-9.5c-0.2,0-0.3-0.1-0.3-0.1c-0.1-0.1-0.1-0.2-0.1-0.3l2.1-17.4c0-0.2,0.2-0.4,0.5-0.4h9.5
			c0.2,0,0.3,0.1,0.3,0.1c0.1,0.1,0.1,0.2,0.1,0.3l-0.2,1.6c0,0.1,0,0.2-0.1,0.3c-0.1,0.1-0.2,0.1-0.3,0.1h-7.1l-0.7,5.4h4.7
			c0.2,0,0.3,0.1,0.3,0.1c0.1,0.1,0.1,0.2,0.1,0.3l-0.2,1.6c0,0.3-0.2,0.4-0.5,0.4h-4.7l-0.7,5.5h7.1c0.2,0,0.3,0.1,0.3,0.1
			c0.1,0.1,0.1,0.2,0.1,0.3l-0.2,1.6C389.8,90.2,389.6,90.3,389.4,90.3z M382.1,72.2c-0.2,0-0.3,0.1-0.4,0.3l-2.1,17.4
			c0,0.1,0,0.2,0.1,0.3c0,0,0.1,0.1,0.2,0.1h9.5c0.2,0,0.3-0.1,0.4-0.3l0.2-1.6c0-0.1,0-0.2-0.1-0.3c0,0-0.1-0.1-0.2-0.1h-7.2
			l0.7-5.6l0,0l0,0l0,0h4.8c0.2,0,0.3-0.1,0.4-0.3l0.2-1.6c0-0.1,0-0.2-0.1-0.3c0,0-0.1-0.1-0.2-0.1h-4.8V80l0.7-5.5h7.2
			c0.1,0,0.2,0,0.3-0.1c0.1-0.1,0.1-0.1,0.1-0.2l0.2-1.6c0-0.1,0-0.2-0.1-0.3c0,0-0.1-0.1-0.2-0.1C391.7,72.2,382.1,72.2,382.1,72.2
			z"/>
	</g>
	<g>
		<path d="M406.9,71.9c-3.1,0-5.3,1.9-5.7,4.7c-0.4,3.1,1.8,4.3,3.9,5.6c2.3,1.3,3.2,2,3,3.5s-1.3,2.5-3,2.5c-0.9,0-1.6-0.3-2-0.8
			s-0.6-1.1-0.5-1.9l0.1-0.6c0-0.2-0.1-0.4-0.4-0.4h-1.8c-0.2,0-0.4,0.2-0.4,0.4l-0.1,0.7l0,0c-0.2,1.4,0.1,2.6,0.9,3.4
			c0.9,1,2.2,1.5,3.9,1.5c3.2,0,5.5-1.9,5.9-4.9c0.3-2.8-1.5-4-4-5.5h-0.1c-2.3-1.3-3.1-1.9-2.9-3.4s1.2-2.3,2.8-2.3
			c0.9,0,1.6,0.3,2,0.8s0.6,1.2,0.5,1.9l-0.1,0.5c0,0.1,0,0.2,0.1,0.3c0.1,0.1,0.2,0.1,0.3,0.1h1.8c0.2,0,0.4-0.1,0.4-0.4l0.1-0.6
			c0.2-1.4-0.2-2.7-1-3.6C409.9,72.4,408.5,71.9,406.9,71.9z"/>
		<path d="M404.8,90.5c-1.7,0-3.1-0.5-3.9-1.5c-0.8-0.9-1.1-2.1-0.9-3.5l0.1-0.7c0-0.1,0-0.2,0.1-0.3c0.1-0.1,0.2-0.1,0.3-0.1h1.8
			c0.2,0,0.4,0.2,0.4,0.4l-0.1,0.6c-0.1,0.7,0.1,1.4,0.5,1.8c0.4,0.5,1.1,0.8,2,0.8c1.6,0,2.7-0.9,2.9-2.4c0.2-1.4-0.7-2.1-3-3.4
			c-2.1-1.2-4.3-2.5-3.9-5.6c0.4-2.9,2.6-4.8,5.7-4.8c1.7,0,3,0.5,3.9,1.5c0.8,0.9,1.1,2.2,1,3.6l-0.1,0.6c0,0.2-0.2,0.4-0.5,0.4
			h-1.8c-0.1,0-0.2,0-0.3-0.1c-0.1-0.1-0.1-0.2-0.1-0.3L409,77c0.1-0.8-0.1-1.4-0.5-1.9s-1.1-0.7-2-0.7c-1.5,0-2.5,0.9-2.7,2.3
			c-0.2,1.5,0.6,2,2.9,3.3h0.1c2.5,1.6,4.3,2.7,4,5.6C410.4,88.6,408.1,90.5,404.8,90.5z M400.5,84.5c-0.1,0-0.2,0-0.3,0.1
			c-0.1,0.1-0.1,0.1-0.1,0.2l-0.1,0.7c-0.2,1.4,0.1,2.5,0.9,3.4c0.9,1,2.2,1.5,3.9,1.5c3.2,0,5.5-1.9,5.9-4.9
			c0.3-2.8-1.5-3.9-3.9-5.5h-0.1c-2.3-1.3-3.1-1.9-3-3.4c0.2-1.5,1.2-2.4,2.8-2.4c0.9,0,1.6,0.3,2,0.8s0.6,1.2,0.5,2l-0.1,0.5
			c0,0.1,0,0.2,0.1,0.2c0.1,0.1,0.1,0.1,0.2,0.1h1.8c0.2,0,0.3-0.1,0.4-0.3l0.1-0.6c0.2-1.4-0.2-2.6-0.9-3.5c-0.9-1-2.2-1.5-3.8-1.5
			c-3.1,0-5.3,1.8-5.6,4.7c-0.4,3,1.8,4.3,3.9,5.5c2.3,1.3,3.2,2,3.1,3.5c-0.2,1.5-1.4,2.5-3,2.5c-0.9,0-1.6-0.3-2.1-0.8
			c-0.4-0.5-0.6-1.1-0.5-1.9l0.1-0.6c0-0.2-0.1-0.3-0.3-0.3L400.5,84.5L400.5,84.5z"/>
	</g>
	<g>
		<path d="M424.9,72.1H423c-0.2,0-0.4,0.1-0.4,0.4l-2.1,17.4c0,0.1,0,0.2,0.1,0.3c0,0,0.1,0.1,0.3,0.1h1.9c0.2,0,0.4-0.1,0.4-0.4
			l2.1-17.4c0-0.1,0-0.2-0.1-0.3C425.1,72.2,425,72.1,424.9,72.1z"/>
		<path d="M422.7,90.3h-1.9c-0.2,0-0.2-0.1-0.3-0.1c-0.1-0.1-0.1-0.2-0.1-0.3l2.1-17.4c0-0.2,0.2-0.4,0.5-0.4h1.9
			c0.2,0,0.2,0.1,0.3,0.1c0.1,0.1,0.1,0.2,0.1,0.3l-2.1,17.4C423.1,90.2,422.9,90.3,422.7,90.3z M423,72.2c-0.2,0-0.3,0.1-0.4,0.3
			l-2.1,17.4c0,0.1,0,0.2,0.1,0.3c0,0,0.1,0.1,0.2,0.1h1.9c0.2,0,0.3-0.1,0.4-0.3l2.1-17.4c0-0.1,0-0.2-0.1-0.3c0,0-0.1-0.1-0.2-0.1
			H423z"/>
	</g>
	<g>
		<path d="M441.3,71.9c-3.3,0-5.6,2.1-6,5.3l-1,8c-0.2,1.6,0.2,2.9,1,3.8c0.8,1,2.1,1.5,3.7,1.5c3.3,0,5.6-2.1,6-5.4l0.5-4
			c0-0.1,0-0.2-0.1-0.3c-0.1-0.1-0.2-0.1-0.3-0.1h-4.8c-0.2,0-0.4,0.1-0.4,0.4l-0.2,1.6c0,0.1,0,0.2,0.1,0.3c0,0,0.1,0.1,0.3,0.1
			h2.6l-0.3,2.3c-0.2,1.7-1.4,2.7-3.1,2.7c-0.8,0-1.5-0.3-1.9-0.8c-0.5-0.5-0.6-1.2-0.5-2.1l1-8.1c0.2-1.7,1.5-2.9,3.1-2.9
			c0.8,0,1.5,0.3,1.9,0.7c0.4,0.5,0.6,1.2,0.5,2l-0.1,0.7c0,0.1,0,0.2,0.1,0.3c0,0,0.1,0.1,0.3,0.1h1.9c0.2,0,0.4-0.1,0.4-0.4
			l0.1-0.7c0.2-1.5-0.2-2.7-1-3.7C444.2,72.4,442.9,71.9,441.3,71.9z"/>
		<path d="M439,90.5c-1.6,0-2.9-0.5-3.8-1.5s-1.2-2.3-1-3.9l1-8c0.4-3.2,2.8-5.3,6.1-5.3c1.6,0,2.9,0.5,3.8,1.5
			c0.8,0.9,1.2,2.2,1,3.7l-0.1,0.7c0,0.3-0.2,0.4-0.5,0.4h-1.9c-0.2,0-0.2-0.1-0.3-0.1c-0.1-0.1-0.1-0.2-0.1-0.3l0.1-0.7
			c0.1-0.8-0.1-1.5-0.5-2s-1.1-0.7-1.9-0.7c-1.6,0-2.9,1.1-3.1,2.8l-1,8.1c-0.1,0.8,0.1,1.5,0.5,2.1c0.4,0.5,1.1,0.7,1.9,0.7
			c1.7,0,2.8-1,3-2.7l0.3-2.3H440c-0.2,0-0.2-0.1-0.3-0.1c-0.1-0.1-0.1-0.2-0.1-0.3l0.2-1.6c0-0.3,0.2-0.4,0.5-0.4h4.8
			c0.1,0,0.2,0,0.3,0.1c0.1,0.1,0.1,0.2,0.1,0.3l-0.5,4C444.7,88.5,442.4,90.5,439,90.5z M441.3,72c-3.2,0-5.6,2.1-6,5.2l-1,8
			c-0.2,1.6,0.1,2.9,1,3.8c0.8,0.9,2.1,1.4,3.7,1.4c3.3,0,5.6-2.1,6-5.4l0.5-4c0-0.1,0-0.2-0.1-0.2c-0.1-0.1-0.1-0.1-0.2-0.1h-4.8
			c-0.2,0-0.3,0.1-0.4,0.3l-0.2,1.6c0,0.1,0,0.2,0.1,0.3c0,0,0.1,0.1,0.2,0.1h2.6v0.1l-0.3,2.3c-0.2,1.7-1.4,2.8-3.1,2.8
			c-0.8,0-1.5-0.3-1.9-0.8c-0.5-0.5-0.7-1.3-0.5-2.1l1-8.1c0.2-1.8,1.5-2.9,3.2-2.9c0.8,0,1.5,0.3,1.9,0.8c0.5,0.5,0.6,1.2,0.5,2.1
			l-0.1,0.7c0,0.1,0,0.2,0.1,0.3c0.1,0.1,0.1,0.1,0.2,0.1h1.9c0.2,0,0.3-0.1,0.4-0.3l0.1-0.7c0.2-1.5-0.2-2.7-1-3.6
			C444.2,72.5,442.9,72,441.3,72z"/>
	</g>
	<g>
		<path d="M467.9,72.1h-1.8c-0.2,0-0.4,0.1-0.4,0.4l-1.5,11.7l-4.5-11.8c-0.1-0.2-0.2-0.3-0.4-0.3h-1.9c-0.2,0-0.4,0.1-0.4,0.4
			l-2,17.4c0,0.1,0,0.2,0.1,0.3c0,0,0.1,0.1,0.3,0.1h1.9c0.2,0,0.4-0.1,0.4-0.4l1.4-11.8l4.5,11.9c0,0.2,0.2,0.3,0.4,0.3h1.9
			c0.2,0,0.4-0.1,0.4-0.4l2.2-17.4c0-0.1,0-0.2-0.1-0.3C468.2,72.2,468.1,72.1,467.9,72.1z"/>
		<path d="M465.8,90.3h-1.9c-0.2,0-0.4-0.1-0.5-0.3L459,78.4L457.6,90c0,0.2-0.2,0.4-0.5,0.4h-1.9c-0.2,0-0.2-0.1-0.3-0.1
			c-0.1-0.1-0.1-0.2-0.1-0.3l2.1-17.4c0-0.2,0.2-0.4,0.5-0.4h1.9c0.2,0,0.4,0.1,0.4,0.3l4.4,11.7l1.4-11.5c0-0.2,0.2-0.4,0.5-0.4
			h1.8c0.1,0,0.2,0,0.3,0.1c0.1,0.1,0.1,0.2,0.1,0.3L466,90.1C466,90.2,466,90.3,465.8,90.3C466,90.3,465.9,90.3,465.8,90.3z
			 M459,77.9l0.1,0.2l4.5,11.9c0,0.2,0.2,0.2,0.4,0.2h1.9c0.1,0,0.2,0,0.2-0.1c0,0,0.1-0.1,0.1-0.2l2.2-17.4c0-0.1,0-0.2-0.1-0.2
			c-0.1-0.1-0.1-0.1-0.2-0.1h-1.8c-0.2,0-0.3,0.1-0.4,0.3l-1.5,11.9l-0.1-0.2l-4.5-11.8c-0.1-0.1-0.2-0.2-0.4-0.2h-1.9
			c-0.2,0-0.3,0.1-0.4,0.3L455,89.9c0,0.1,0,0.2,0.1,0.3c0,0,0.1,0.1,0.2,0.1h1.9c0.2,0,0.3-0.1,0.4-0.3L459,77.9z"/>
	</g>
	<g>
		<path d="M489,72.1h-9.5c-0.2,0-0.4,0.1-0.4,0.4L477,89.9c0,0.1,0,0.2,0.1,0.3c0,0,0.1,0.1,0.3,0.1h9.5c0.2,0,0.4-0.1,0.4-0.4
			l0.2-1.6c0-0.1,0-0.2-0.1-0.3c0-0.1-0.1-0.1-0.3-0.1h-7.2l0.7-5.6l0,0h4.7c0.2,0,0.4-0.1,0.4-0.4l0.2-1.6c0-0.1,0-0.2-0.1-0.3
			c-0.1-0.1-0.2-0.1-0.3-0.1h-4.7l0.7-5.5h7.2c0.2,0,0.4-0.2,0.4-0.4l0.2-1.6c0-0.1,0-0.2-0.1-0.3C489.2,72.2,489.1,72.1,489,72.1z"
			/>
		<path d="M486.8,90.3h-9.5c-0.2,0-0.3-0.1-0.3-0.1c-0.1-0.1-0.1-0.2-0.1-0.3l2.1-17.4c0-0.2,0.2-0.4,0.5-0.4h9.5
			c0.2,0,0.2,0.1,0.3,0.1c0.1,0.1,0.1,0.2,0.1,0.3l-0.2,1.6c0,0.1,0,0.2-0.1,0.3c-0.1,0.1-0.2,0.1-0.3,0.1h-7.1l-0.7,5.4h4.7
			c0.1,0,0.2,0,0.3,0.1c0.1,0.1,0.1,0.2,0.1,0.3l-0.2,1.6c0,0.3-0.2,0.4-0.5,0.4h-4.7l-0.7,5.5h7.1c0.2,0,0.2,0.1,0.3,0.1
			c0.1,0.1,0.1,0.2,0.1,0.3l-0.2,1.6C487.2,90.2,487,90.3,486.8,90.3z M479.5,72.2c-0.2,0-0.3,0.1-0.4,0.3L477,89.9
			c0,0.1,0,0.2,0.1,0.3c0,0,0.1,0.1,0.2,0.1h9.5c0.2,0,0.3-0.1,0.4-0.3l0.2-1.6c0-0.1,0-0.2-0.1-0.3c0,0-0.1-0.1-0.2-0.1h-7.2
			l0.7-5.6l0,0l0,0l0,0h4.8c0.2,0,0.3-0.1,0.4-0.3l0.2-1.6c0-0.1,0-0.2-0.1-0.3c0-0.1-0.1-0.1-0.2-0.1h-4.8V80l0.7-5.5h7.2
			c0.1,0,0.2,0,0.3-0.1c0.1-0.1,0.1-0.1,0.1-0.2l0.2-1.6c0-0.1,0-0.2-0.1-0.3c0,0-0.1-0.1-0.2-0.1C489.1,72.2,479.5,72.2,479.5,72.2
			z"/>
	</g>
	<g>
		<path d="M505.6,72.1H500c-0.2,0-0.4,0.1-0.4,0.4l-2.1,17.4c0,0.1,0,0.2,0.1,0.3c0,0,0.1,0.1,0.3,0.1h1.9c0.2,0,0.4-0.1,0.4-0.4
			l0.9-7.6l0,0h2.6l2,7.7c0,0.2,0.2,0.3,0.4,0.3h1.9c0.1,0,0.2,0,0.3-0.1c0.1-0.1,0.1-0.2,0-0.3l-2.1-7.8c1.9-0.7,3.3-2.4,3.5-4.7
			c0.2-1.6-0.1-3-1-4C508,72.5,506.9,72.1,505.6,72.1z M507.1,77.3c-0.2,1.7-1.3,2.8-2.8,2.8h-3l0.7-5.7h3c0.6,0,1.2,0.2,1.5,0.6
			C507,75.6,507.2,76.4,507.1,77.3z"/>
		<path d="M507.9,90.3H506c-0.2,0-0.4-0.1-0.4-0.3l-2-7.6h-2.5l-0.9,7.6c0,0.2-0.2,0.4-0.5,0.4h-1.9c-0.2,0-0.2-0.1-0.3-0.1
			c0,0-0.1-0.2-0.1-0.3l2.1-17.4c0-0.2,0.2-0.4,0.5-0.4h5.6c1.3,0,2.4,0.5,3.2,1.3c0.8,1,1.2,2.4,1,4c-0.3,2.3-1.6,4.1-3.5,4.8
			l2.1,7.7c0,0.1,0,0.3-0.1,0.4C508.2,90.3,508,90.3,507.9,90.3z M501,82.3h2.6l0,0l2,7.7c0,0.2,0.1,0.3,0.3,0.3h1.9
			c0.1,0,0.2,0,0.3-0.1s0.1-0.2,0-0.3l-2.1-7.8l0,0c1.9-0.7,3.2-2.4,3.5-4.7c0.2-1.6-0.1-3-1-3.9c-0.7-0.8-1.8-1.3-3.1-1.3H500
			c-0.2,0-0.3,0.1-0.4,0.3l-2.1,17.4c0,0.1,0,0.2,0.1,0.3c0,0,0.1,0.1,0.2,0.1h1.9c0.2,0,0.3-0.1,0.4-0.3L501,82.3L501,82.3
			L501,82.3L501,82.3L501,82.3z M504.3,80.2h-3v-0.1l0.7-5.7h3c0.7,0,1.2,0.2,1.6,0.7c0.5,0.5,0.6,1.3,0.5,2.3
			C506.9,79,505.8,80.2,504.3,80.2z M501.3,80.1h2.9c1.4,0,2.6-1.1,2.7-2.8l0,0c0.1-0.9-0.1-1.7-0.5-2.2c-0.4-0.4-0.9-0.6-1.5-0.6
			h-3L501.3,80.1z"/>
	</g>
	<g>
		<polygon points="209,56.1 209.2,54.3 513.9,54.3 513.7,56.1 		"/>
		<path d="M513.7,56.1H208.9V56l0.2-1.8H514v0.1L513.7,56.1z M209,56h304.6l0.2-1.7H209.2L209,56z"/>
	</g>
	<path d="M166.9,8.6c-11.8-6.1-24.5-6.1-37.5-6.1H82.7c0.1,0.1,0.2,0.1,0.3,0.2c1.5,1.1,2.9,2.4,4.1,3.8c2,2.2,3.7,4.8,4.9,7.5h23
		L96.8,84.2H83.7c-3.2,4.3-7.1,8.4-11.9,11.7c0,0,25.3,0,43.9,0c23,0,46.1-2.2,61.6-21.3c5.2-6.4,8.7-13.5,10.4-21
		c0.8-3.4,1.2-6.8,1.2-10.1c0-7.1-1.8-13.9-5.5-20C180,17.4,174.4,12.4,166.9,8.6z M162.7,60.4c-2.7,6.6-8,12.2-15.5,16.9
		c-7.3,4.5-17.6,6.9-30.5,7L135.5,14c10.5,0.2,18.4,2.4,23.5,6.4c5.4,4.2,8,10.1,8,17.9C167.1,46.1,165.6,53.5,162.7,60.4z"/>
	<path d="M92.4,66.6l3.4-12.8H46.5v12.6h15l8.8,0.1c-3.7,6.6-8.4,12.9-14.9,16.7C48.8,87,40.1,88,33.6,84.1c-4.1-2.5-7-6.6-8.6-11.1
		s-2-9.4-1.8-14.2c0.3-9.9,2.8-19.8,7.1-28.7C33,24.5,36.6,19,41.9,15.6c9.1-6,22.5-4.3,29.8,3.8c-4.9,0.2-9.6,3.6-11.1,8.2
		c-1.4,4.7,0.7,10.3,5.1,12.6c2.4,1.2,5.2,1.4,7.9,1.2c2.6-0.2,5.3-0.9,7.4-2.4c3.7-2.7,5.2-7.7,5.1-12.3
		c-0.1-6.2-2.5-12.3-6.6-16.9c-1.1-1.2-2.2-2.2-3.4-3.1c-3.5-2.6-7.5-4.2-11.9-5.1c-6-1.3-11.9-2-18.1-1.2c-7.7,1-15.2,3.8-21.7,8.2
		c-11.3,7.6-19.3,19.7-22.7,33C-0.6,50.9-0.7,61,2.3,70.2C4.9,77.9,9.7,85,16.2,89.9c6.8,5.2,15.3,7.9,23.8,8.3
		c8,0.4,16.1-1.2,23-5.2c9.9-5.8,16.3-16,21.2-26.4C84.2,66.6,92.4,66.6,92.4,66.6z"/>
</g>
</svg>
